<?xml version="1.0" encoding="UTF-8" standalone="no"?>
<svg
   xmlns:dc="http://purl.org/dc/elements/1.1/"
   xmlns:cc="http://creativecommons.org/ns#"
   xmlns:rdf="http://www.w3.org/1999/02/22-rdf-syntax-ns#"
   xmlns:svg="http://www.w3.org/2000/svg"
   xmlns="http://www.w3.org/2000/svg"
   xmlns:sodipodi="http://sodipodi.sourceforge.net/DTD/sodipodi-0.dtd"
   xmlns:inkscape="http://www.inkscape.org/namespaces/inkscape"
   viewBox="0 0 32 32"
   id="svg2"
   version="1.1"
   inkscape:version="0.92.4 (5da689c313, 2019-01-14)"
   width="32"
   height="32"
   sodipodi:docname="belge.svg">
  <metadata
     id="metadata61">
    <rdf:RDF>
      <cc:Work
         rdf:about="">
        <dc:format>image/svg+xml</dc:format>
        <dc:type
           rdf:resource="http://purl.org/dc/dcmitype/StillImage" />
        <dc:title />
      </cc:Work>
    </rdf:RDF>
  </metadata>
  <sodipodi:namedview
     pagecolor="#ffffff"
     bordercolor="#666666"
     borderopacity="1"
     objecttolerance="10"
     gridtolerance="10"
     guidetolerance="10"
     inkscape:pageopacity="0"
     inkscape:pageshadow="2"
     inkscape:window-width="1920"
     inkscape:window-height="1025"
     id="namedview59"
     showgrid="false"
     inkscape:zoom="3.4766082"
     inkscape:cx="-68.913201"
     inkscape:cy="28.214289"
     inkscape:window-x="0"
     inkscape:window-y="0"
     inkscape:window-maximized="1"
     inkscape:current-layer="svg2"
     units="px" />
  <defs
     id="defs4">
    <linearGradient
       id="linearGradient3764"
       x1="1"
       x2="47"
       gradientUnits="userSpaceOnUse"
       gradientTransform="rotate(-90,23.999998,24)">
      <stop
         stop-color="#5eb6e8"
         stop-opacity="1"
         id="stop7" />
      <stop
         offset="1"
         stop-color="#70bdea"
         stop-opacity="1"
         id="stop9" />
    </linearGradient>
    <clipPath
       id="clipPath-926608780">
      <g
         transform="translate(0,-1004.3622)"
         id="g12">
        <path
           d="m -24,13 c 0,1.105 -0.672,2 -1.5,2 -0.828,0 -1.5,-0.895 -1.5,-2 0,-1.105 0.672,-2 1.5,-2 0.828,0 1.5,0.895 1.5,2 z"
           transform="matrix(15.333333,0,0,11.5,414.99999,878.8622)"
           id="path14"
           inkscape:connector-curvature="0"
           style="fill:#1890d0" />
      </g>
    </clipPath>
    <clipPath
       id="clipPath-934514917">
      <g
         transform="translate(0,-1004.3622)"
         id="g17">
        <path
           d="m -24,13 c 0,1.105 -0.672,2 -1.5,2 -0.828,0 -1.5,-0.895 -1.5,-2 0,-1.105 0.672,-2 1.5,-2 0.828,0 1.5,0.895 1.5,2 z"
           transform="matrix(15.333333,0,0,11.5,414.99999,878.8622)"
           id="path19"
           inkscape:connector-curvature="0"
           style="fill:#1890d0" />
      </g>
    </clipPath>
  </defs>
  <g
     id="g33"
     transform="translate(0,483)" />
  <path
     style="fill:#cfd0c2;fill-opacity:1;stroke:none;stroke-width:0.07070149"
     d="M 4.5014705,1 C 3.66969,1 3,1.66969 3,2.50147 V 29.49853 C 3,30.33031 3.66969,31 4.5014705,31 H 9.889491 c 0.831781,0 1.501328,-0.66969 1.501328,-1.50147 V 2.50147 C 11.390819,1.66969 10.721272,1 9.889491,1 Z m 0.877645,3.368543 H 8.994234 c 0.558088,0 1.007324,0.449377 1.007324,1.007467 v 12.224674 c 0,0.558087 -0.449236,1.007467 -1.007324,1.007467 H 5.3791155 c -0.5580885,0 -1.0073245,-0.44938 -1.0073245,-1.007467 V 5.37601 c 0,-0.55809 0.449236,-1.007467 1.0073245,-1.007467 z M 6.093844,5.688206 c -0.3645585,0 -0.6580565,0.293497 -0.6580565,0.658057 v 1.331592 c 0,0.364561 0.2934975,0.658058 0.6580565,0.658058 h 2.361502 c 0.364561,0 0.658056,-0.293498 0.658056,-0.658058 V 6.346263 c 0,-0.36456 -0.293495,-0.658057 -0.658056,-0.658057 z M 5.657223,13.37012 c -0.1528715,0 -0.275977,0.123105 -0.275977,0.275978 v 0.25538 c 0,0.152872 0.1231055,0.275977 0.275977,0.275977 h 2.922406 c 0.15287,0 0.275835,-0.123105 0.275835,-0.275977 v -0.25538 c 0,-0.152873 -0.122964,-0.275978 -0.275835,-0.275978 z m 0.010795,1.453318 c -0.1528715,0 -0.275977,0.123107 -0.275977,0.27598 v 0.255522 c 0,0.152873 0.1231055,0.275835 0.275977,0.275835 h 2.922264 c 0.152872,0 0.275977,-0.122962 0.275977,-0.275835 v -0.255522 c 0,-0.152873 -0.123105,-0.27598 -0.275977,-0.27598 z m 0.057525,1.495505 c -0.1528715,0 -0.275977,0.123107 -0.275977,0.275977 v 0.255525 c 0,0.15287 0.1231055,0.275835 0.275977,0.275835 h 2.922264 c 0.152871,0 0.275976,-0.122965 0.275976,-0.275835 V 16.59492 c 0,-0.15287 -0.123105,-0.275977 -0.275976,-0.275977 z M 7.1937765,22.51615 A 2.5164746,2.5165029 0 0 1 9.277739,23.598325 L 8.455915,24.16832 a 1.5404176,1.5404349 0 0 0 -2.1406355,-0.383785 1.5404176,1.5404349 0 0 0 -0.38776,2.14376 1.5404176,1.5404349 0 0 0 2.1436175,0.3879 1.5404176,1.5404349 0 0 0 0.387902,-2.143755 1.5404176,1.5404349 0 0 0 -0.003,-0.004 L 9.277864,23.598585 A 2.5164746,2.5165029 0 0 1 8.644097,27.1005 2.5164746,2.5165029 0 0 1 5.142181,26.466875 2.5164746,2.5165029 0 0 1 5.775665,22.96482 2.5164746,2.5165029 0 0 1 7.1937595,22.516125 Z"
     id="rect3007"
     inkscape:connector-curvature="0" />
  <path
     id="path908"
     d="m 13.59182,1 c -0.83178,0 -1.50147,0.66969 -1.50147,1.50147 v 26.99706 c 0,0.83178 0.66969,1.50147 1.50147,1.50147 h 5.388021 c 0.83178,0 1.501328,-0.66969 1.501328,-1.50147 V 2.50147 C 20.481169,1.66969 19.811621,1 18.979841,1 Z m 0.877644,3.368543 h 3.615119 c 0.558089,0 1.007325,0.449377 1.007325,1.007467 v 12.224674 c 0,0.558087 -0.449236,1.007467 -1.007325,1.007467 h -3.615119 c -0.558087,0 -1.007323,-0.44938 -1.007323,-1.007467 V 5.37601 c 0,-0.55809 0.449236,-1.007467 1.007323,-1.007467 z m 0.714729,1.319663 c -0.364558,0 -0.658056,0.293497 -0.658056,0.658057 v 1.331592 c 0,0.364561 0.293498,0.658058 0.658056,0.658058 h 2.361503 c 0.36456,0 0.658056,-0.293498 0.658056,-0.658058 V 6.346263 c 0,-0.36456 -0.293495,-0.658057 -0.658056,-0.658057 z m -0.436621,7.681914 c -0.152871,0 -0.275977,0.123105 -0.275977,0.275978 v 0.25538 c 0,0.152872 0.123106,0.275977 0.275977,0.275977 h 2.922406 c 0.152871,0 0.275836,-0.123105 0.275836,-0.275977 v -0.25538 c 0,-0.152873 -0.122965,-0.275978 -0.275836,-0.275978 z m 0.01079,1.453318 c -0.152872,0 -0.275977,0.123107 -0.275977,0.27598 v 0.255522 c 0,0.152873 0.123105,0.275835 0.275977,0.275835 h 2.922264 c 0.152872,0 0.275978,-0.122962 0.275978,-0.275835 v -0.255522 c 0,-0.152873 -0.123106,-0.27598 -0.275978,-0.27598 z m 0.05753,1.495505 c -0.152872,0 -0.275977,0.123107 -0.275977,0.275977 v 0.255525 c 0,0.15287 0.123106,0.275835 0.275977,0.275835 h 2.922264 c 0.152871,0 0.275977,-0.122965 0.275977,-0.275835 V 16.59492 c 0,-0.15287 -0.123106,-0.275977 -0.275977,-0.275977 z m 1.468234,6.197207 a 2.5164746,2.5165029 0 0 1 2.083963,1.082175 l -0.821824,0.569995 a 1.5404176,1.5404349 0 0 0 -2.140636,-0.383785 1.5404176,1.5404349 0 0 0 -0.38776,2.14376 1.5404176,1.5404349 0 0 0 2.143618,0.3879 1.5404176,1.5404349 0 0 0 0.387902,-2.143755 1.5404176,1.5404349 0 0 0 -0.003,-0.004 l 0.821825,-0.569855 a 2.5164746,2.5165029 0 0 1 -0.633768,3.501915 2.5164746,2.5165029 0 0 1 -3.501915,-0.633625 2.5164746,2.5165029 0 0 1 0.633484,-3.502055 2.5164746,2.5165029 0 0 1 1.418094,-0.448695 z"
     style="fill:#cfd0c2;fill-opacity:1;stroke:none;stroke-width:0.07070149"
     inkscape:connector-curvature="0" />
  <path
     inkscape:connector-curvature="0"
     style="fill:#cfd0c2;fill-opacity:1;stroke:none;stroke-width:0.07070149"
     d="M 22.682171,1 C 21.850391,1 21.1807,1.66969 21.1807,2.50147 V 29.49853 C 21.1807,30.33031 21.850391,31 22.682171,31 h 5.388023 c 0.831777,0 1.501325,-0.66969 1.501325,-1.50147 V 2.50147 C 29.571518,1.66969 28.901971,1 28.070193,1 Z m 0.877645,3.368543 h 3.61512 c 0.558088,0 1.007325,0.449377 1.007325,1.007467 v 12.224674 c 0,0.558087 -0.449237,1.007467 -1.007325,1.007467 h -3.61512 c -0.55809,0 -1.007326,-0.44938 -1.007326,-1.007467 V 5.37601 c 0,-0.55809 0.449236,-1.007467 1.007326,-1.007467 z m 0.714727,1.319663 c -0.364557,0 -0.658055,0.293497 -0.658055,0.658057 v 1.331592 c 0,0.364561 0.293498,0.658058 0.658055,0.658058 h 2.361503 c 0.364563,0 0.658057,-0.293498 0.658057,-0.658058 V 6.346263 c 0,-0.36456 -0.293495,-0.658057 -0.658057,-0.658057 z m -0.43662,7.681914 c -0.152872,0 -0.275977,0.123105 -0.275977,0.275978 v 0.25538 c 0,0.152872 0.123105,0.275977 0.275977,0.275977 h 2.922403 c 0.15287,0 0.27584,-0.123105 0.27584,-0.275977 v -0.25538 c 0,-0.152873 -0.12297,-0.275978 -0.27584,-0.275978 z m 0.0108,1.453318 c -0.152873,0 -0.275978,0.123107 -0.275978,0.27598 v 0.255522 c 0,0.152873 0.123105,0.275835 0.275978,0.275835 h 2.92226 c 0.152876,0 0.275983,-0.122962 0.275983,-0.275835 v -0.255522 c 0,-0.152873 -0.123107,-0.27598 -0.275983,-0.27598 z m 0.05752,1.495505 c -0.15287,0 -0.275974,0.123107 -0.275974,0.275977 v 0.255525 c 0,0.15287 0.123104,0.275835 0.275974,0.275835 h 2.922266 c 0.152872,0 0.27598,-0.122965 0.27598,-0.275835 V 16.59492 c 0,-0.15287 -0.123108,-0.275977 -0.27598,-0.275977 z m 1.468236,6.197207 a 2.5164746,2.5165029 0 0 1 2.083965,1.082175 l -0.82183,0.569995 a 1.5404176,1.5404349 0 0 0 -2.140633,-0.383785 1.5404176,1.5404349 0 0 0 -0.38776,2.14376 1.5404176,1.5404349 0 0 0 2.143618,0.3879 1.5404176,1.5404349 0 0 0 0.387903,-2.143755 1.5404176,1.5404349 0 0 0 -0.003,-0.004 l 0.821825,-0.569855 a 2.5164746,2.5165029 0 0 1 -0.63377,3.501915 2.5164746,2.5165029 0 0 1 -3.501916,-0.633625 2.5164746,2.5165029 0 0 1 0.633485,-3.502055 2.5164746,2.5165029 0 0 1 1.418095,-0.448695 z"
     id="path910" />
</svg>
