<?xml version="1.0" encoding="UTF-8" standalone="no"?>
<!-- Created with Inkscape (http://www.inkscape.org/) -->

<svg
   xmlns:dc="http://purl.org/dc/elements/1.1/"
   xmlns:cc="http://creativecommons.org/ns#"
   xmlns:rdf="http://www.w3.org/1999/02/22-rdf-syntax-ns#"
   xmlns:svg="http://www.w3.org/2000/svg"
   xmlns="http://www.w3.org/2000/svg"
   xmlns:sodipodi="http://sodipodi.sourceforge.net/DTD/sodipodi-0.dtd"
   xmlns:inkscape="http://www.inkscape.org/namespaces/inkscape"
   width="32"
   height="32"
   id="svg2"
   version="1.1"
   inkscape:version="0.92.2 (5c3e80d, 2017-08-06)"
   sodipodi:docname="diller_32_32.svg">
  <defs
     id="defs4">
    <radialGradient
       id="polygon413_1_"
       cx="7976.3457"
       cy="-10508.842"
       r="13293.867"
       gradientTransform="matrix(0.0222,0,0,-0.0248,721.1671,674.6745)"
       gradientUnits="userSpaceOnUse">
      <stop
         offset="0"
         style="stop-color:#80FF80"
         id="stop388" />
      <stop
         offset="1"
         style="stop-color:#0f0"
         id="stop390" />
    </radialGradient>
  </defs>
  <sodipodi:namedview
     id="base"
     pagecolor="#ffffff"
     bordercolor="#666666"
     borderopacity="1.0"
     inkscape:pageopacity="0.0"
     inkscape:pageshadow="2"
     inkscape:zoom="5.6"
     inkscape:cx="55.170219"
     inkscape:cy="15.789448"
     inkscape:document-units="px"
     inkscape:current-layer="layer1"
     showgrid="false"
     inkscape:window-width="1366"
     inkscape:window-height="715"
     inkscape:window-x="0"
     inkscape:window-y="24"
     inkscape:window-maximized="1" />
  <metadata
     id="metadata7">
    <rdf:RDF>
      <cc:Work
         rdf:about="">
        <dc:format>image/svg+xml</dc:format>
        <dc:type
           rdf:resource="http://purl.org/dc/dcmitype/StillImage" />
        <dc:title></dc:title>
      </cc:Work>
    </rdf:RDF>
  </metadata>
  <g
     inkscape:label="Layer 1"
     inkscape:groupmode="layer"
     id="layer1"
     transform="translate(0,-1020.3622)">
    <g
       id="g828"
       transform="matrix(0.06944665,0,0,0.06944665,-1.900808,980.05977)">
      <path
         sodipodi:nodetypes="cczcczccc"
         inkscape:connector-curvature="0"
         id="path4227"
         d="m 296.07705,938.5975 156.68246,-0.0697 c 0,0 10.5347,1.62031 23.68807,-10.96015 13.15338,-12.58051 11.13694,-21.92036 11.13694,-21.92036 V 616.08706 c 0,0 2.36456,-9.06549 -11.84405,-24.04164 -14.20861,-14.97615 -23.15774,-11.3137 -23.15774,-11.3137 H 202.62048 Z"
         style="fill:#ffffff;fill-rule:evenodd;stroke:none;stroke-width:1px;stroke-linecap:butt;stroke-linejoin:miter;stroke-opacity:1" />
      <path
         sodipodi:nodetypes="ccccczcc"
         inkscape:connector-curvature="0"
         id="path4225"
         d="M 27.47598,1041.122 137.11873,938.78251 296.29266,938.59524 206.40621,580.7348 H 62.77514 c 0,0 -14.40454,-0.35985 -25.28057,12.35939 -10.87602,12.71924 -10.11222,22.09709 -10.11222,22.09709 z"
         style="fill:#00bbf2;fill-opacity:1;fill-rule:evenodd;stroke:none;stroke-width:1px;stroke-linecap:butt;stroke-linejoin:miter;stroke-opacity:1" />
      <path
         class="fil1"
         d="m 151.48139,852.4997 v -9.85985 l 20.59844,-3.47747 -11.88368,-32.78843 h -56.40627 l -12.65025,32.78843 20.48395,3.47747 v 9.85985 h -54.1884 v -9.85985 l 16.12776,-3.47747 60.45625,-154.50254 h 21.59169 l 56.90166,154.50254 17.35002,3.47747 v 9.85985 H 151.48374 Z M 133.55881,731.93066 h -0.87874 l -22.96818,59.30879 h 45.24695 z"
         id="path13"
         inkscape:connector-curvature="0"
         style="clip-rule:evenodd;fill:#ffffff;fill-opacity:1;fill-rule:nonzero;stroke-width:0.0076973;image-rendering:optimizeQuality;shape-rendering:geometricPrecision;text-rendering:geometricPrecision" />
      <path
         class="fil1"
         d="m 411.66876,717.75449 c 3.83309,0 7.61848,0.45063 11.36144,1.30706 3.69792,1.57726 5.54555,3.51749 5.54555,5.81582 -0.72102,3.87817 -12.80616,8.47742 -36.20501,13.75264 -14.113,2.97686 -25.69977,5.18496 -34.89814,6.58177 -2.79665,14.83409 -4.37386,26.78129 -4.73439,35.93465 16.00571,-6.13138 30.56939,-9.604 43.60083,-10.27996 -0.36053,-3.33731 -1.08155,-6.17622 -2.11799,-8.47717 -0.9013,-2.29831 -1.3069,-3.78818 -1.3069,-4.46413 0,-2.66133 1.12662,-3.96813 3.42752,-3.96813 3.15715,0 6.58202,2.20807 10.27992,6.58201 1.93776,2.84154 3.24728,6.26646 3.96829,10.32485 14.96922,1.03661 27.55006,5.18496 37.78487,12.39783 14.789,10.23486 22.18216,23.17643 22.18216,38.82159 0,17.81072 -11.09105,33.99677 -33.27585,48.65056 -19.56839,12.67101 -40.75912,19.25292 -63.66493,19.79355 19.52336,-7.39563 35.75436,-15.78018 48.60556,-25.11386 18.66716,-13.5272 28.18098,-28.00064 28.54149,-43.33025 0.36052,-13.34709 -3.9683,-23.85214 -12.94135,-31.42569 -7.25797,-4.73432 -16.23102,-7.66351 -26.96157,-8.70272 -1.93775,10.55044 -6.53694,21.37102 -13.75248,32.50977 -7.03265,10.73059 -16.45636,21.01057 -28.27109,30.88477 3.02196,5.09502 6.53696,9.42382 10.59538,12.94129 2.2532,2.84172 3.6979,5.27526 4.19358,7.39345 -0.49568,3.51747 -4.19358,5.54538 -11.09106,6.08621 -3.6979,-0.54083 -7.75633,-3.87816 -12.12755,-10.05465 -1.0815,-1.39701 -2.57128,-3.698 -4.50902,-6.85251 -15.32973,9.51401 -28.36123,14.15807 -39.09176,14.02307 -15.8705,-0.17932 -23.76203,-8.83778 -23.76203,-25.92517 0,-10.91082 5.45542,-22.18206 16.36621,-33.81653 6.85237,-7.39336 15.8705,-14.24839 26.96158,-20.60484 0.31543,-10.18998 2.25317,-23.94235 5.81588,-41.20988 h -4.50902 c -4.77944,0 -10.23486,-0.7662 -16.36621,-2.34343 -8.47738,-2.1179 -12.71605,-4.86945 -12.71605,-8.20699 0,-1.0815 2.93183,-1.577 8.74773,-1.577 7.75635,0 17.08989,-0.99152 28.00072,-2.93202 l 7.93655,-36.43018 c 0,-5.27522 -1.35189,-9.42379 -3.96829,-12.4458 -2.48117,-2.43341 -3.69788,-4.19345 -3.69788,-5.27495 0,-2.29833 2.88675,-3.42752 8.70266,-3.42752 2.66143,0 6.62709,2.88665 11.9022,8.70247 5.27517,5.63587 7.98164,10.14489 8.16191,13.48218 -2.43348,4.95964 -4.91465,9.96444 -7.39316,15.05944 -1.75748,4.05836 -3.69788,9.87418 -5.81591,17.45029 3.38245,-0.90128 8.47734,-2.20808 15.32973,-3.96813 20.24438,-5.095 31.96634,-7.66634 35.16852,-7.66634 z m -75.07144,83.72917 c -6.67213,4.23858 -12.58084,9.28846 -17.67571,15.05941 -9.33356,9.87421 -14.02287,18.66716 -14.02287,26.42066 0,10.95594 4.41891,16.50151 13.21172,16.68185 8.11683,-0.54083 18.75727,-5.63568 31.96632,-15.32993 -0.67594,-1.4419 -2.43344,-5.54539 -5.27514,-12.44296 -4.55412,-10.73063 -7.30302,-20.87525 -8.20696,-30.38903 z m 59.47132,-19.79376 c -13.21172,1.03638 -26.51094,4.41903 -39.90288,10.05465 -0.72104,0.18014 -1.84765,0.58575 -3.42755,1.30682 0.54079,15.87048 3.6979,29.39778 9.51383,40.669 0,0.18014 0.0901,0.36042 0.27039,0.54089 17.58558,-15.32985 28.76679,-32.87042 33.54621,-52.57394 z"
         id="path11"
         inkscape:connector-curvature="0"
         style="clip-rule:evenodd;fill:#394050;fill-opacity:1;fill-rule:nonzero;stroke-width:0.00873089;image-rendering:optimizeQuality;shape-rendering:geometricPrecision;text-rendering:geometricPrecision" />
    </g>
  </g>
</svg>
