<?xml version="1.0" encoding="UTF-8" standalone="no"?>
<!-- Created with Inkscape (http://www.inkscape.org/) -->

<svg
   xmlns:dc="http://purl.org/dc/elements/1.1/"
   xmlns:cc="http://creativecommons.org/ns#"
   xmlns:rdf="http://www.w3.org/1999/02/22-rdf-syntax-ns#"
   xmlns:svg="http://www.w3.org/2000/svg"
   xmlns="http://www.w3.org/2000/svg"
   xmlns:sodipodi="http://sodipodi.sourceforge.net/DTD/sodipodi-0.dtd"
   xmlns:inkscape="http://www.inkscape.org/namespaces/inkscape"
   id="svg2"
   version="1.1"
   inkscape:version="0.92.2 (5c3e80d, 2017-08-06)"
   width="32"
   height="32"
   sodipodi:docname="disks.svg">
  <metadata
     id="metadata8">
    <rdf:RDF>
      <cc:Work
         rdf:about="">
        <dc:format>image/svg+xml</dc:format>
        <dc:type
           rdf:resource="http://purl.org/dc/dcmitype/StillImage" />
        <dc:title></dc:title>
      </cc:Work>
    </rdf:RDF>
  </metadata>
  <defs
     id="defs6" />
  <sodipodi:namedview
     pagecolor="#ffffff"
     bordercolor="#666666"
     borderopacity="1"
     objecttolerance="10"
     gridtolerance="10"
     guidetolerance="10"
     inkscape:pageopacity="0"
     inkscape:pageshadow="2"
     inkscape:window-width="1366"
     inkscape:window-height="715"
     id="namedview4"
     showgrid="false"
     inkscape:zoom="4.368"
     inkscape:cx="8.0341926"
     inkscape:cy="10.612303"
     inkscape:window-x="0"
     inkscape:window-y="24"
     inkscape:window-maximized="1"
     inkscape:current-layer="svg2" />
  <g
     id="g841"
     transform="translate(-67,25.000005)">
    <g
       transform="matrix(0.03321071,0,0,0.03387519,65.42266,-26.978514)"
       id="Calque.__202">
      <g
         id="shape">
        <path
           style="fill:#000000;fill-opacity:0.09803922"
           inkscape:connector-curvature="0"
           d="M 919.15,109.8 Q 918.7,89.9 904.5,75.7 C 894.75,65.95 882.95,61.05 869.15,61.05 h -674.2 c -13.8,0 -25.6,4.9 -35.35,14.65 -9.45,9.45 -14.35,20.85 -14.65,34.1 v 843.25 c 0,13.8 4.9,25.6 14.65,35.35 9.75,9.75 21.55,14.65 35.35,14.65 h 674.2 c 13.8,0 25.6,-4.9 35.35,-14.65 9.75,-9.75 14.65,-21.55 14.65,-35.35 z"
           id="path" />
      </g>
    </g>
    <path
       style="fill:#ebebeb;fill-opacity:1;stroke-width:0.07111111"
       inkscape:connector-curvature="0"
       d="m 95.729903,-24.50373 c -0.330283,-0.330284 -0.73001,-0.496272 -1.197488,-0.496272 H 71.69376 c -0.467478,0 -0.867205,0.165988 -1.197488,0.496272 -0.320121,0.32012 -0.48611,0.706297 -0.496272,1.155144 v -8.47e-4 24.5451184 q 0.01551,0.6726941 0.496272,1.1534507 c 0.330283,0.3302827 0.73001,0.4962716 1.197488,0.4962716 h 22.838655 c 0.467478,0 0.867205,-0.1659889 1.197488,-0.4962716 0.32012,-0.3201209 0.486108,-0.7046045 0.496272,-1.1534507 v -24.5451184 8.47e-4 c -0.01016,-0.448847 -0.176152,-0.835024 -0.496272,-1.155144 z"
       id="path1" />
    <path
       style="fill:#5d6a7b;fill-opacity:0.98823529;stroke-width:0.07111111"
       inkscape:connector-curvature="0"
       d="M 70.496272,2.3491354 Q 70.015515,1.8683787 70,1.1956847 v 4.0209856 c 0,0.4674774 0.165988,0.867205 0.496272,1.1974884 0.330283,0.3302826 0.73001,0.4962702 1.197488,0.4962702 h 22.838655 c 0.467478,0 0.867205,-0.1659876 1.197488,-0.4962702 0.330283,-0.3302834 0.496272,-0.730011 0.496272,-1.1974884 V 1.1956847 C 96.216011,1.6445309 96.050023,2.0290145 95.729903,2.3491354 95.39962,2.679418 94.999893,2.845407 94.532415,2.845407 H 71.69376 c -0.467478,0 -0.867205,-0.165989 -1.197488,-0.4962716 z"
       id="path2" />
    <g
       style="fill:#394050"
       id="Calque.__204"
       transform="matrix(0.03387519,0,0,0.03387519,65.326343,-26.978514)">
      <g
         style="overflow:visible;fill:#394050"
         overflow="visible"
         id="Symbole.__2026_1">
        <g
           style="fill:#394050"
           id="Calque.__208">
          <g
             style="fill:#394050"
             id="shape17">
            <path
               style="fill:#394050;fill-opacity:1"
               d="m 518,918 q 0,-8.3 -5.85,-14.15 C 508.25,899.95 503.55,898 498,898 H 196 c -5.55,0 -10.25,1.95 -14.15,5.85 -3.9,3.9 -5.85,8.6 -5.85,14.15 v 8.2 c 0,5.55 1.95,10.25 5.85,14.15 3.9,3.9 8.6,5.85 14.15,5.85 h 302 c 5.55,0 10.25,-1.95 14.15,-5.85 3.9,-3.9 5.85,-8.6 5.85,-14.15 z"
               id="path11"
               inkscape:connector-curvature="0" />
          </g>
        </g>
      </g>
    </g>
    <g
       id="Calque.__205"
       transform="matrix(0.03387519,0,0,0.03387519,65.326343,-26.978514)">
      <g
         id="shape6">
        <path
           d="M 849.65,912.15 Q 843.1,905.6 833.8,905.6 c -6.2,0 -11.5,2.2 -15.9,6.55 -4.35,4.4 -6.55,9.7 -6.55,15.9 0,6.2 2.2,11.5 6.55,15.85 4.4,4.4 9.7,6.6 15.9,6.6 6.2,0 11.5,-2.2 15.85,-6.6 4.4,-4.35 6.6,-9.65 6.6,-15.85 0,-6.2 -2.2,-11.5 -6.6,-15.9 z m -64.85,15.9 c 0,-6.2 -2.2,-11.5 -6.6,-15.9 -4.35,-4.35 -9.65,-6.55 -15.85,-6.55 -6.2,0 -11.5,2.2 -15.9,6.55 -4.35,4.4 -6.55,9.7 -6.55,15.9 0,6.2 2.2,11.5 6.55,15.85 4.4,4.4 9.7,6.6 15.9,6.6 6.2,0 11.5,-2.2 15.85,-6.6 4.4,-4.35 6.6,-9.65 6.6,-15.85 z"
           id="path3"
           inkscape:connector-curvature="0"
           style="fill:#000000;fill-opacity:0.2" />
      </g>
    </g>
    <path
       style="fill:#ffffff;fill-opacity:0.09803922;stroke-width:0.07111111"
       inkscape:connector-curvature="0"
       d="m 89.154153,-5.2306399 q 2.68461,-2.6846095 2.68461,-6.4820181 c 0,-2.532171 -0.894306,-4.691714 -2.68461,-6.482018 -1.790303,-1.790304 -3.949846,-2.68461 -6.482018,-2.68461 -2.532171,0 -4.691714,0.894306 -6.482017,2.68461 -1.790304,1.790304 -2.68461,3.949847 -2.68461,6.482018 0,2.5321706 0.894306,4.691714 2.68461,6.4820181 1.790303,1.790304 3.949846,2.6846087 6.482017,2.6846087 2.532172,0 4.691715,-0.8943047 6.482018,-2.6846087 z"
       id="path6" />
    <path
       style="fill:#ffcc00;fill-opacity:1;stroke-width:0.07111111"
       inkscape:connector-curvature="0"
       d="m 93.410571,4.8811048 c 0.210027,0 0.389566,-0.074525 0.536923,-0.2235762 0.14905,-0.1473571 0.223576,-0.3268956 0.223576,-0.5369216 0,-0.2100259 -0.07453,-0.3895651 -0.223576,-0.5386154 -0.147357,-0.1473572 -0.326896,-0.2218831 -0.536923,-0.2218831 -0.210025,0 -0.389564,0.074526 -0.538615,0.2218831 -0.147357,0.1490503 -0.221882,0.3285895 -0.221882,0.5386154 0,0.210026 0.07452,0.3895645 0.221882,0.5369216 0.149051,0.149051 0.32859,0.2235762 0.538615,0.2235762 z M 91.750687,4.120607 c 0,-0.2100259 -0.07452,-0.3895651 -0.223576,-0.5386154 -0.147357,-0.1473572 -0.326895,-0.2218831 -0.536922,-0.2218831 -0.210026,0 -0.389565,0.074526 -0.538616,0.2218831 -0.147357,0.1490503 -0.221882,0.3285895 -0.221882,0.5386154 0,0.210026 0.07452,0.3895645 0.221882,0.5369216 0.149051,0.149051 0.32859,0.2235762 0.538616,0.2235762 0.210027,0 0.389565,-0.074525 0.536922,-0.2235762 0.149051,-0.1473571 0.223576,-0.3268956 0.223576,-0.5369216 z"
       id="path7" />
  </g>
</svg>
