<?xml version="1.0" encoding="UTF-8" standalone="no"?>
<!-- Generator: flash2svg, http://dissentgraphics.com/tools/flash2svg -->

<svg
   xmlns:dc="http://purl.org/dc/elements/1.1/"
   xmlns:cc="http://creativecommons.org/ns#"
   xmlns:rdf="http://www.w3.org/1999/02/22-rdf-syntax-ns#"
   xmlns:svg="http://www.w3.org/2000/svg"
   xmlns="http://www.w3.org/2000/svg"
   xmlns:sodipodi="http://sodipodi.sourceforge.net/DTD/sodipodi-0.dtd"
   xmlns:inkscape="http://www.inkscape.org/namespaces/inkscape"
   id="Messages"
   version="1.1"
   style="image-rendering:optimizeSpeed"
   x="0px"
   y="0px"
   width="32"
   height="32"
   viewBox="0 0 32 32"
   enable-background="new 0 0 1024 1024"
   inkscape:version="0.92.4 (5da689c313, 2019-01-14)"
   sodipodi:docname="forum.svg">
  <metadata
     id="metadata25">
    <rdf:RDF>
      <cc:Work
         rdf:about="">
        <dc:format>image/svg+xml</dc:format>
        <dc:type
           rdf:resource="http://purl.org/dc/dcmitype/StillImage" />
        <dc:title />
      </cc:Work>
    </rdf:RDF>
  </metadata>
  <sodipodi:namedview
     pagecolor="#ffffff"
     bordercolor="#666666"
     borderopacity="1"
     objecttolerance="10"
     gridtolerance="10"
     guidetolerance="10"
     inkscape:pageopacity="0"
     inkscape:pageshadow="2"
     inkscape:window-width="1920"
     inkscape:window-height="1025"
     id="namedview23"
     showgrid="false"
     inkscape:zoom="1.84375"
     inkscape:cx="-109.9646"
     inkscape:cy="103.68927"
     inkscape:window-x="0"
     inkscape:window-y="0"
     inkscape:window-maximized="1"
     inkscape:current-layer="Messages" />
  <defs
     transform="matrix(1 0 0 1 0 0) "
     id="defs3" />
  <path
     inkscape:connector-curvature="0"
     style="fill:#cfd0c2;fill-opacity:1;stroke-width:0.04784153"
     d="m 14.228044,9.8685601 c -0.381549,0 -0.709883,0.1364459 -0.980435,0.4069989 -0.270553,0.270553 -0.406999,0.599014 -0.406999,0.980562 v 10.449765 2.407269 c 0,0.381549 0.136446,0.709883 0.406999,0.980435 0.270552,0.270553 0.598886,0.406999 0.980435,0.406999 h 7.302625 l 4.673356,4.673357 C 26.421392,30.391313 26.68509,30.5 26.992641,30.5 c 0.307551,0 0.571123,-0.108687 0.78849,-0.326054 0.217367,-0.217367 0.326054,-0.480939 0.326054,-0.78849 v -3.884867 h 1.50538 c 0.381549,0 0.709883,-0.136446 0.980435,-0.406999 0.270553,-0.270552 0.406999,-0.598886 0.406999,-0.980435 V 11.256121 c 0,-0.381548 -0.136446,-0.710009 -0.406999,-0.980562 -0.270552,-0.270553 -0.598886,-0.4069989 -0.980435,-0.4069989 h -5.848137 z m 3.177195,5.9984089 c 0.44167,0 0.816385,0.154932 1.128561,0.467108 0.312176,0.312177 0.467108,0.689202 0.467108,1.128561 0,0.441672 -0.154932,0.816258 -0.467108,1.128435 -0.312176,0.312176 -0.68689,0.469381 -1.128561,0.469381 -0.441672,0 -0.816258,-0.157205 -1.128435,-0.469381 -0.312176,-0.312177 -0.467108,-0.686763 -0.467108,-1.128435 0,-0.439359 0.154932,-0.816384 0.467108,-1.128561 0.312177,-0.312176 0.686764,-0.467108 1.128435,-0.467108 z m 4.532429,0 c 0.05488,0 0.108776,0.0025 0.161638,0.0073 0.02645,0.0024 0.05272,0.0055 0.07867,0.0091 0.0519,0.0073 0.102782,0.01691 0.152673,0.02904 0.04993,0.01214 0.09881,0.02667 0.146736,0.04369 0.0479,0.017 0.09477,0.03646 0.140677,0.05834 0.04591,0.02188 0.09081,0.04622 0.13474,0.07299 0.04393,0.02677 0.08685,0.05598 0.128805,0.08764 0.06294,0.04749 0.123688,0.100453 0.182222,0.158986 0.05853,0.05853 0.111614,0.119404 0.159238,0.182474 0.04762,0.06308 0.08972,0.1284 0.126406,0.195986 0.01223,0.02253 0.02384,0.04529 0.03485,0.06832 0.03303,0.06908 0.06067,0.140369 0.08271,0.213917 0.0441,0.147078 0.06617,0.303107 0.06617,0.467866 0,0.02761 -6.66e-4,0.05487 -0.0019,0.08196 0,0 0,1.29e-4 0,1.29e-4 -0.0061,0.135405 -0.02751,0.26429 -0.06428,0.386795 -0.02205,0.0735 -0.04969,0.144599 -0.08271,0.213539 -0.01101,0.02298 -0.02262,0.04571 -0.03485,0.06819 -0.03668,0.06743 -0.07878,0.132655 -0.126407,0.195607 -0.04762,0.06295 -0.100705,0.123688 -0.159238,0.182221 -0.07804,0.07804 -0.159982,0.146437 -0.245867,0.205078 -0.04294,0.02932 -0.08692,0.05611 -0.131836,0.08057 -0.181081,0.0986 -0.378342,0.157623 -0.591872,0.176791 -0.05129,0.0046 -0.1034,0.0069 -0.156587,0.0069 -0.05521,0 -0.109462,-0.0024 -0.162648,-0.0073 -0.02655,-0.0025 -0.05288,-0.0055 -0.07893,-0.0092 0,0 -1.29e-4,0 -1.29e-4,0 -0.02609,-0.0037 -0.05183,-0.008 -0.07741,-0.01288 -0.153495,-0.02942 -0.297851,-0.08095 -0.433139,-0.154313 -0.0451,-0.02445 -0.08927,-0.05125 -0.132341,-0.08057 -0.08614,-0.05864 -0.168202,-0.127034 -0.246246,-0.205078 -0.01951,-0.01951 -0.03842,-0.03923 -0.0567,-0.05923 -0.03657,-0.04 -0.07062,-0.08103 -0.102286,-0.122996 -0.01585,-0.02101 -0.03109,-0.04226 -0.04571,-0.06377 -0.01461,-0.02148 -0.02854,-0.04318 -0.04192,-0.06516 -0.02677,-0.04396 -0.05111,-0.08891 -0.07299,-0.134866 -0.02188,-0.04596 -0.04134,-0.09282 -0.05834,-0.140802 0,0 0,-1.3e-4 0,-1.3e-4 -0.0085,-0.02395 -0.01634,-0.04815 -0.02361,-0.07261 0,0 0,-1.3e-4 0,-1.3e-4 -0.0073,-0.0245 -0.01401,-0.04924 -0.02008,-0.07425 -0.01213,-0.05003 -0.02177,-0.100966 -0.02904,-0.153051 0,0 0,-1.29e-4 0,-1.29e-4 -0.0036,-0.026 -0.0067,-0.05228 -0.0091,-0.0788 0,0 0,-1.29e-4 0,-1.29e-4 -0.0048,-0.05308 -0.0073,-0.10723 -0.0073,-0.162396 0,-0.05492 0.0025,-0.108923 0.0073,-0.16189 0.0024,-0.02648 0.0055,-0.05268 0.0091,-0.07867 0.0073,-0.05199 0.01691,-0.103032 0.02904,-0.153051 0.01213,-0.05002 0.02669,-0.09895 0.04369,-0.14699 0.017,-0.04804 0.03646,-0.09513 0.05834,-0.14118 0.02186,-0.04602 0.04625,-0.09109 0.07299,-0.13512 0,0 0,-1.29e-4 0,-1.29e-4 0.02676,-0.04406 0.05598,-0.08701 0.08764,-0.129058 0.03166,-0.04205 0.06572,-0.08309 0.102286,-0.123123 0.01828,-0.02002 0.03719,-0.03984 0.0567,-0.05935 0.05853,-0.05853 0.119386,-0.111494 0.182475,-0.158986 0.04206,-0.03166 0.0851,-0.06087 0.129184,-0.08764 0.04408,-0.02677 0.08914,-0.05111 0.135245,-0.07299 0.04611,-0.02188 0.0933,-0.04134 0.141433,-0.05834 0.04813,-0.017 0.09722,-0.03156 0.147369,-0.04369 0.0466,-0.01127 0.09422,-0.0202 0.14257,-0.02728 0.02966,-0.0043 0.05959,-0.0081 0.08991,-0.01086 0.05319,-0.0048 0.10744,-0.0073 0.162649,-0.0073 z m 4.530029,0 c 0.05516,0 0.109313,0.0025 0.162395,0.0073 0.0266,0.0024 0.05297,0.0054 0.07905,0.0091 0.05209,0.0073 0.103025,0.01691 0.15305,0.02904 0.05007,0.01214 0.0991,0.02667 0.147116,0.04369 0.04798,0.017 0.09484,0.03646 0.140802,0.05834 0.04596,0.02188 0.09091,0.04622 0.134867,0.07299 0.04395,0.02677 0.08696,0.05598 0.128931,0.08764 0.06295,0.04749 0.123688,0.100453 0.182222,0.158986 0.09753,0.09753 0.18004,0.201435 0.247255,0.311532 1.9e-5,3.1e-5 -1.9e-5,6.5e-5 0,1.29e-4 0.01345,0.02203 0.02616,0.04428 0.03839,0.0668 0.02446,0.04505 0.04659,0.09111 0.06617,0.138149 0.05874,0.141149 0.09552,0.29116 0.110243,0.450061 0.0049,0.05296 0.0073,0.10697 0.0073,0.161891 0,0.05335 -0.0024,0.105568 -0.0069,0.156965 -0.01513,0.169621 -0.05549,0.328555 -0.120345,0.477337 -0.01719,0.03942 -0.03578,0.07832 -0.05645,0.116304 -0.01223,0.02248 -0.02494,0.0447 -0.03839,0.06668 -0.06722,0.109891 -0.1497,0.213598 -0.247255,0.311153 -0.07804,0.07804 -0.159946,0.146437 -0.245867,0.205078 -0.04296,0.02932 -0.08701,0.05611 -0.131962,0.08057 -0.181344,0.09865 -0.379076,0.157656 -0.593641,0.176791 -0.0514,0.0046 -0.10362,0.0069 -0.156965,0.0069 -0.05492,0 -0.108926,-0.0024 -0.161891,-0.0073 -0.05292,-0.0049 -0.104868,-0.0123 -0.155829,-0.0221 -4e-5,-7e-6 -6.4e-5,8e-6 -1.29e-4,0 -0.02546,-0.0049 -0.05067,-0.01043 -0.07564,-0.01654 -3.9e-5,-1e-5 -6.5e-5,10e-6 -1.29e-4,0 -0.125035,-0.03064 -0.243859,-0.07663 -0.356488,-0.137771 -0.03624,-0.01967 -0.07163,-0.0412 -0.10658,-0.06402 -0.0085,-0.0055 -0.01709,-0.01081 -0.02551,-0.01654 -2.9e-5,-1.9e-5 -1.3e-4,1.9e-5 -1.3e-4,0 -0.02152,-0.01466 -0.04275,-0.02996 -0.06377,-0.04584 -0.02102,-0.01587 -0.04173,-0.03241 -0.06226,-0.0495 -0.0205,-0.01707 -0.04075,-0.03476 -0.06074,-0.05304 -2.2e-5,-2.1e-5 -1.29e-4,2e-5 -1.29e-4,0 -0.02002,-0.0183 -0.03971,-0.03719 -0.05923,-0.0567 -0.01951,-0.01951 -0.03842,-0.03923 -0.0567,-0.05923 -0.01828,-0.02 -0.03598,-0.04025 -0.05304,-0.06074 -0.02698,-0.03242 -0.05198,-0.06573 -0.07589,-0.09938 -0.0063,-0.0089 -0.01296,-0.01766 -0.01907,-0.02665 -0.0057,-0.0084 -0.01089,-0.01703 -0.01642,-0.02551 -0.02273,-0.03487 -0.04433,-0.07016 -0.0639,-0.106327 -0.02057,-0.03803 -0.03899,-0.07696 -0.05607,-0.11643 -0.0031,-0.0072 -0.0066,-0.01422 -0.0096,-0.02147 -0.0097,-0.02345 -0.01879,-0.04714 -0.02728,-0.07109 -1.3e-5,-3.8e-5 1.4e-5,-9.1e-5 0,-1.3e-4 -0.0028,-0.0078 -0.0051,-0.01577 -0.0077,-0.02361 -0.01358,-0.04047 -0.02583,-0.08147 -0.03599,-0.123375 -0.0061,-0.02501 -0.01157,-0.05024 -0.01642,-0.07577 -0.01422,-0.07482 -0.0231,-0.151949 -0.0269,-0.231218 -0.0014,-0.02887 -0.0021,-0.05804 -0.0021,-0.08751 0,-0.02746 5.82e-4,-0.05473 0.0018,-0.0817 0.0036,-0.08092 0.01272,-0.159643 0.02728,-0.236143 0.0048,-0.0255 0.01035,-0.05076 0.01642,-0.07577 0.01213,-0.05001 0.02669,-0.09895 0.04369,-0.14699 0.0085,-0.02402 0.01756,-0.04783 0.02728,-0.07135 0.01944,-0.04704 0.04134,-0.0931 0.06566,-0.13815 0.01219,-0.02258 0.02497,-0.04485 0.03839,-0.06693 0.01338,-0.02203 0.02732,-0.04376 0.04193,-0.06529 0.02921,-0.04305 0.06085,-0.08511 0.09496,-0.126153 0.03411,-0.04104 0.07072,-0.08107 0.109738,-0.120092 0.01947,-0.01947 0.03925,-0.03833 0.05923,-0.05657 4.3e-5,-4e-5 6.4e-5,-6.5e-5 1.29e-4,-1.29e-4 0.04003,-0.03657 0.08095,-0.07063 0.122997,-0.102287 0.02097,-0.01579 0.04229,-0.03101 0.06377,-0.04559 4.8e-5,-3.3e-5 6.5e-5,-6.5e-5 1.29e-4,-1.29e-4 0.02153,-0.01461 0.04326,-0.02854 0.06529,-0.04192 0.04405,-0.02677 0.08907,-0.05111 0.13512,-0.07299 0.04605,-0.02188 0.09315,-0.04134 0.14118,-0.05834 0.02402,-0.0085 0.04822,-0.01633 0.07274,-0.02361 0.02982,-0.0089 0.06011,-0.01655 0.09067,-0.02361 0.04482,-0.01036 0.09024,-0.01902 0.136634,-0.02551 0.02599,-0.0036 0.05219,-0.0067 0.07867,-0.0091 0.05296,-0.0048 0.106971,-0.0073 0.161891,-0.0073 z"
     id="path14" />
  <path
     style="fill:#cfd0c2;fill-opacity:1;stroke-width:0.04784153"
     d="m 2.3874343,1.4689445 c -0.3815488,0 -0.7098823,0.1364463 -0.980435,0.4069991 C 1.1364465,2.1464964 1,2.4748296 1,2.8563785 V 19.41328 c 0,0.381549 0.1364465,0.709883 0.4069993,0.980435 0.2705527,0.270552 0.5988862,0.406999 0.980435,0.406999 h 1.5053795 v 3.884866 c 0,0.307551 0.1086867,0.571124 0.3260539,0.78849 0.2173672,0.217368 0.4809387,0.326054 0.7884901,0.326054 0.3075513,0 0.571249,-0.108686 0.7886162,-0.326054 l 4.673356,-4.673356 h 1.466107 V 10.350948 c 0,-0.3815478 0.136447,-0.7100083 0.406999,-0.9805611 0.270553,-0.2705528 0.598886,-0.4069992 0.980435,-0.4069992 h 9.536385 V 2.8563785 c 0,-0.3815489 -0.136447,-0.7098821 -0.406999,-0.9804349 C 22.181704,1.6053908 21.85337,1.4689445 21.471822,1.4689445 Z"
     id="path18"
     inkscape:connector-curvature="0" />
</svg>
