<?xml version="1.0" encoding="UTF-8" standalone="no"?>
<!-- Generator: flash2svg, http://dissentgraphics.com/tools/flash2svg -->

<svg
   xmlns:dc="http://purl.org/dc/elements/1.1/"
   xmlns:cc="http://creativecommons.org/ns#"
   xmlns:rdf="http://www.w3.org/1999/02/22-rdf-syntax-ns#"
   xmlns:svg="http://www.w3.org/2000/svg"
   xmlns="http://www.w3.org/2000/svg"
   xmlns:sodipodi="http://sodipodi.sourceforge.net/DTD/sodipodi-0.dtd"
   xmlns:inkscape="http://www.inkscape.org/namespaces/inkscape"
   id="Messages"
   version="1.1"
   style="image-rendering:optimizeSpeed"
   x="0px"
   y="0px"
   width="32"
   height="32"
   viewBox="0 0 32 32"
   enable-background="new 0 0 1024 1024"
   inkscape:version="0.92.3 (2405546, 2018-03-11)"
   sodipodi:docname="forum.svg">
  <metadata
     id="metadata25">
    <rdf:RDF>
      <cc:Work
         rdf:about="">
        <dc:format>image/svg+xml</dc:format>
        <dc:type
           rdf:resource="http://purl.org/dc/dcmitype/StillImage" />
        <dc:title></dc:title>
      </cc:Work>
    </rdf:RDF>
  </metadata>
  <sodipodi:namedview
     pagecolor="#ffffff"
     bordercolor="#666666"
     borderopacity="1"
     objecttolerance="10"
     gridtolerance="10"
     guidetolerance="10"
     inkscape:pageopacity="0"
     inkscape:pageshadow="2"
     inkscape:window-width="1366"
     inkscape:window-height="705"
     id="namedview23"
     showgrid="false"
     inkscape:zoom="1.84375"
     inkscape:cx="-3.9307043"
     inkscape:cy="103.68927"
     inkscape:window-x="0"
     inkscape:window-y="30"
     inkscape:window-maximized="1"
     inkscape:current-layer="Messages" />
  <defs
     transform="matrix(1 0 0 1 0 0) "
     id="defs3" />
  <g
     id="g827"
     transform="matrix(0.06465517,0,0,0.06465517,0.28879313,24.163793)">
    <path
       id="path14"
       d="m 215.59375,-221.09961 c -5.90129,0 -10.97952,2.11037 -15.16406,6.29492 -4.18455,4.18455 -6.29492,9.26474 -6.29492,15.16602 v 161.623045 37.23242188 c 0,5.90129002 2.11037,10.97952212 6.29492,15.16406212 4.18454,4.18455 9.26277,6.294922 15.16406,6.294922 h 112.94727 l 72.28125,72.28125 C 404.18421,96.318981 408.26274,98 413.01953,98 c 4.75679,0 8.83337,-1.681019 12.19531,-5.042969 3.36195,-3.36194 5.04297,-7.438522 5.04297,-12.195312 V 20.675781 h 23.28321 c 5.90129,0 10.97952,-2.110372 15.16406,-6.294922 C 472.88963,10.196319 475,5.1180869 475,-0.78320312 V -199.63867 c 0,-5.90128 -2.11037,-10.98147 -6.29492,-15.16602 -4.18454,-4.18455 -9.26277,-6.29492 -15.16406,-6.29492 h -90.45118 z m 49.14063,92.77539 c 6.83116,0 12.62675,2.39629 17.45507,7.22461 4.82833,4.82833 7.22461,10.65966 7.22461,17.45508 0,6.831187 -2.39628,12.624794 -7.22461,17.453124 -4.82832,4.82832 -10.6239,7.259765 -17.45507,7.259765 -6.8312,0 -12.6248,-2.431445 -17.45313,-7.259765 -4.82833,-4.82833 -7.22461,-10.621937 -7.22461,-17.453124 0,-6.79542 2.39628,-12.62675 7.22461,-17.45508 4.82833,-4.82832 10.62194,-7.22461 17.45313,-7.22461 z m 70.10156,0 c 0.84876,0 1.6824,0.0384 2.5,0.11328 0.4091,0.0375 0.81547,0.0844 1.21679,0.14063 0.80266,0.11248 1.58969,0.26157 2.36133,0.44922 0.77223,0.18779 1.52823,0.41257 2.26953,0.67578 0.74077,0.26295 1.46575,0.56395 2.17579,0.90234 0.71001,0.33839 1.40455,0.71493 2.08398,1.12891 0.67943,0.41397 1.34321,0.86577 1.99219,1.35547 0.97346,0.73454 1.91304,1.55367 2.81836,2.45898 0.90531,0.90531 1.7263,1.84678 2.46289,2.82227 0.73655,0.97558 1.38774,1.98591 1.95508,3.03125 0.18913,0.34839 0.36876,0.70053 0.53906,1.05664 0.51083,1.06847 0.93828,2.17105 1.27929,3.30859 0.68213,2.2748 1.02344,4.68805 1.02344,7.23633 0,0.42695 -0.0103,0.84871 -0.0293,1.26758 0,0 0,0.002 0,0.002 -0.0951,2.09426 -0.42556,4.087686 -0.99415,5.982422 -0.34101,1.136844 -0.76846,2.236462 -1.27929,3.302734 -0.1703,0.355436 -0.34993,0.707023 -0.53906,1.054688 -0.56735,1.04296 -1.21853,2.051731 -1.95508,3.02539 -0.73659,0.973682 -1.55758,1.913048 -2.46289,2.81836 -1.20709,1.20708 -2.47439,2.264888 -3.80274,3.171875 -0.66418,0.453465 -1.34435,0.867868 -2.03906,1.246093 -2.80072,1.524981 -5.8517,2.437905 -9.1543,2.734376 -0.79333,0.07122 -1.59925,0.107421 -2.42187,0.107421 -0.8539,0 -1.69302,-0.03735 -2.51563,-0.113281 -0.41065,-0.03791 -0.81785,-0.08577 -1.2207,-0.142578 0,0 -0.002,0 -0.002,0 -0.40348,-0.05692 -0.80161,-0.123357 -1.19727,-0.199219 -2.37406,-0.455085 -4.60677,-1.252043 -6.69922,-2.386719 -0.69748,-0.378225 -1.3807,-0.792628 -2.04687,-1.246093 -1.33235,-0.906931 -2.60152,-1.964795 -3.8086,-3.171875 -0.30177,-0.301771 -0.59417,-0.606686 -0.87695,-0.916016 -0.56556,-0.618659 -1.09234,-1.253237 -1.58203,-1.902344 -0.24518,-0.324997 -0.48084,-0.653644 -0.70703,-0.986328 -0.22591,-0.332227 -0.44145,-0.667884 -0.64844,-1.007812 -0.41397,-0.679836 -0.79051,-1.375089 -1.12891,-2.085938 -0.33839,-0.710848 -0.63939,-1.435591 -0.90234,-2.177734 0,0 0,-0.002 0,-0.002 -0.13127,-0.370501 -0.25274,-0.744695 -0.36523,-1.123047 0,0 0,-0.002 0,-0.002 -0.11264,-0.37896 -0.21673,-0.761567 -0.31055,-1.148438 -0.18765,-0.77372 -0.33674,-1.561608 -0.44922,-2.367187 0,0 0,-0.002 0,-0.002 -0.0562,-0.40216 -0.10319,-0.8086 -0.14062,-1.21875 0,0 0,-0.002 0,-0.002 -0.0748,-0.821 -0.11329,-1.65849 -0.11329,-2.51172 0,-0.84943 0.0383,-1.68468 0.11329,-2.50391 0.0375,-0.40961 0.0844,-0.81476 0.14062,-1.21679 0.11248,-0.80407 0.26157,-1.59356 0.44922,-2.36719 0.18764,-0.77363 0.41283,-1.53039 0.67578,-2.27344 0.26295,-0.74305 0.56395,-1.47128 0.90234,-2.18359 0.33816,-0.71181 0.71528,-1.40888 1.12891,-2.08985 0,0 0,-0.002 0,-0.002 0.41397,-0.68143 0.86577,-1.34571 1.35547,-1.99609 0.48969,-0.65039 1.01647,-1.28511 1.58203,-1.9043 0.28278,-0.3096 0.57518,-0.6162 0.87695,-0.91797 0.90531,-0.90531 1.84649,-1.72444 2.82227,-2.45898 0.65052,-0.4897 1.31622,-0.9415 1.99805,-1.35547 0.68183,-0.41398 1.37866,-0.79052 2.09179,-1.12891 0.71313,-0.33839 1.44308,-0.63939 2.1875,-0.90234 0.74443,-0.26295 1.50359,-0.48814 2.2793,-0.67578 0.72077,-0.17436 1.4573,-0.31242 2.20508,-0.42188 0.45881,-0.0671 0.92164,-0.12523 1.39062,-0.16797 0.82263,-0.075 1.66173,-0.11328 2.51563,-0.11328 z m 70.06445,0 c 0.85323,0 1.69072,0.0384 2.51172,0.11328 0.41146,0.0375 0.81923,0.0843 1.22266,0.14063 0.80558,0.11248 1.59346,0.26157 2.36718,0.44922 0.77434,0.18779 1.53268,0.41257 2.27539,0.67578 0.74215,0.26295 1.46689,0.56395 2.17774,0.90234 0.71085,0.33839 1.4061,0.71493 2.08594,1.12891 0.67983,0.41397 1.34503,0.86577 1.99414,1.35547 0.97366,0.73454 1.91304,1.55367 2.81836,2.45898 1.50843,1.50844 2.78463,3.11552 3.82421,4.81836 3e-4,4.8e-4 -2.9e-4,0.001 0,0.002 0.20795,0.34067 0.40462,0.68481 0.59375,1.03321 0.37827,0.69679 0.72055,1.40911 1.02344,2.13671 0.90855,2.18311 1.47734,4.50327 1.70508,6.96094 0.0759,0.81918 0.11328,1.65448 0.11328,2.50391 0,0.82508 -0.0365,1.63279 -0.10742,2.42773 -0.23397,2.62347 -0.85818,5.081659 -1.86133,7.382816 -0.26581,0.609742 -0.55344,1.211312 -0.87305,1.798828 -0.18911,0.347653 -0.38581,0.691332 -0.59375,1.03125 -1.03973,1.699642 -2.31536,3.303647 -3.82421,4.8125 -1.20709,1.20708 -2.47383,2.264888 -3.80274,3.171875 -0.66444,0.453465 -1.34571,0.867868 -2.04101,1.246093 -2.80479,1.525811 -5.86304,2.438415 -9.18165,2.734376 -0.79494,0.07089 -1.60265,0.107421 -2.42773,0.107421 -0.84943,0 -1.68472,-0.03735 -2.50391,-0.113281 -0.81853,-0.07587 -1.62196,-0.190254 -2.41015,-0.341797 -6.3e-4,-1.2e-4 -0.001,1.21e-4 -0.002,0 -0.39377,-0.07574 -0.78376,-0.161256 -1.16993,-0.255859 -6.1e-4,-1.5e-4 -10e-4,1.5e-4 -0.002,0 -1.93387,-0.473918 -3.77168,-1.185208 -5.51367,-2.13086 -0.5605,-0.304252 -1.10795,-0.637286 -1.64844,-0.990234 -0.13135,-0.08577 -0.26436,-0.167219 -0.39453,-0.255859 -4.4e-4,-2.96e-4 -0.002,2.96e-4 -0.002,0 -0.33293,-0.226747 -0.66117,-0.463456 -0.98633,-0.708985 -0.32516,-0.245517 -0.64551,-0.50134 -0.96289,-0.765625 -0.31701,-0.263981 -0.63023,-0.537628 -0.93946,-0.820312 -3.4e-4,-3.15e-4 -0.002,3.15e-4 -0.002,0 -0.30958,-0.283041 -0.61424,-0.575183 -0.91601,-0.876953 -0.30177,-0.301771 -0.59418,-0.606686 -0.87696,-0.916016 -0.28278,-0.309332 -0.55651,-0.622524 -0.82031,-0.939453 -0.41734,-0.501389 -0.80392,-1.016595 -1.17383,-1.537109 -0.0978,-0.137594 -0.20046,-0.273174 -0.29492,-0.41211 -0.0884,-0.129952 -0.16844,-0.263402 -0.25391,-0.394531 -0.35154,-0.539342 -0.68568,-1.085192 -0.98828,-1.644531 -0.31817,-0.588131 -0.60304,-1.190377 -0.86718,-1.800782 -0.0482,-0.111363 -0.10206,-0.219923 -0.14844,-0.332031 -0.1501,-0.36268 -0.29058,-0.729112 -0.42188,-1.099609 -2e-4,-5.83e-4 2.1e-4,-0.0014 0,-0.002 -0.0427,-0.120467 -0.0784,-0.243939 -0.11914,-0.365235 -0.21002,-0.625977 -0.39945,-1.260054 -0.55664,-1.908203 -0.0938,-0.38687 -0.17888,-0.777058 -0.2539,-1.171875 -0.21989,-1.157176 -0.35733,-2.350149 -0.41602,-3.576179 -0.0213,-0.44655 -0.0332,-0.89774 -0.0332,-1.35351 0,-0.42471 0.009,-0.8465 0.0273,-1.26367 0.0562,-1.25149 0.1968,-2.46916 0.42188,-3.65235 0.075,-0.39439 0.16008,-0.7851 0.2539,-1.17187 0.18765,-0.77355 0.41283,-1.53049 0.67578,-2.27344 0.13148,-0.37148 0.27155,-0.73971 0.42188,-1.10352 0.30065,-0.7276 0.63946,-1.43992 1.01562,-2.13671 0.18851,-0.34918 0.38626,-0.69374 0.59375,-1.03516 0.20699,-0.34071 0.42253,-0.6768 0.64844,-1.00977 0.45182,-0.66585 0.94114,-1.3164 1.46875,-1.95117 0.52761,-0.63476 1.09373,-1.25388 1.69727,-1.85742 0.30111,-0.30111 0.60712,-0.59279 0.91601,-0.875 6.8e-4,-6.2e-4 10e-4,-0.001 0.002,-0.002 0.61917,-0.56556 1.25204,-1.09234 1.90235,-1.58203 0.32442,-0.2443 0.65417,-0.47964 0.98633,-0.70508 7.4e-4,-5.1e-4 0.001,-10e-4 0.002,-0.002 0.33292,-0.22591 0.66911,-0.44146 1.00976,-0.64844 0.68132,-0.41398 1.37766,-0.79052 2.08985,-1.12891 0.71219,-0.33839 1.44066,-0.63939 2.18359,-0.90234 0.37147,-0.13148 0.74588,-0.2526 1.125,-0.36524 0.46129,-0.13704 0.92975,-0.25604 1.40235,-0.36523 0.69329,-0.16026 1.39572,-0.29414 2.11328,-0.39453 0.40199,-0.0562 0.80721,-0.10315 1.21679,-0.14063 0.81918,-0.075 1.65448,-0.11328 2.50391,-0.11328 z"
       style="fill:#1a1a1a;fill-opacity:1;stroke-width:0.73994905"
       inkscape:connector-curvature="0" />
    <path
       inkscape:connector-curvature="0"
       id="path18"
       d="m 32.458984,-351.01367 c -5.901287,0 -10.979513,2.11037 -15.164062,6.29492 C 13.110373,-340.5342 11,-335.45598 11,-329.55469 v 256.080081 c 0,5.90129 2.110373,10.979522 6.294922,15.164062 4.184549,4.18455 9.262775,6.294922 15.164062,6.294922 H 55.742188 V 8.070312 c 0,4.75679 1.681021,8.833373 5.042968,12.195313 3.361945,3.36195 7.438518,5.042969 12.195313,5.042969 4.756795,0 8.835319,-1.681019 12.197265,-5.042969 l 72.281246,-72.28125 h 22.67579 V -213.63867 c 0,-5.90128 2.11037,-10.98147 6.29492,-15.16602 4.18454,-4.18455 9.26277,-6.29492 15.16406,-6.29492 h 147.49609 v -94.45508 c 0,-5.90129 -2.11038,-10.97951 -6.29492,-15.16406 -4.18456,-4.18455 -9.26278,-6.29492 -15.16406,-6.29492 z"
       style="fill:#1a1a1a;fill-opacity:1;stroke-width:0.73994905" />
  </g>
</svg>
