<?xml version="1.0" encoding="UTF-8" standalone="no"?>
<svg
   xmlns:dc="http://purl.org/dc/elements/1.1/"
   xmlns:cc="http://creativecommons.org/ns#"
   xmlns:rdf="http://www.w3.org/1999/02/22-rdf-syntax-ns#"
   xmlns:svg="http://www.w3.org/2000/svg"
   xmlns="http://www.w3.org/2000/svg"
   xmlns:sodipodi="http://sodipodi.sourceforge.net/DTD/sodipodi-0.dtd"
   xmlns:inkscape="http://www.inkscape.org/namespaces/inkscape"
   version="1.1"
   x="0px"
   y="0px"
   width="32"
   height="32"
   viewBox="0 0 32 32"
   enable-background="new 0 0 512 512"
   xml:space="preserve"
   id="svg2"
   inkscape:version="0.92.3 (2405546, 2018-03-11)"
   sodipodi:docname="git.svg"><metadata
     id="metadata12"><rdf:RDF><cc:Work
         rdf:about=""><dc:format>image/svg+xml</dc:format><dc:type
           rdf:resource="http://purl.org/dc/dcmitype/StillImage" /><dc:title></dc:title></cc:Work></rdf:RDF></metadata><defs
     id="defs10" /><sodipodi:namedview
     pagecolor="#ffffff"
     bordercolor="#666666"
     borderopacity="1"
     objecttolerance="10"
     gridtolerance="10"
     guidetolerance="10"
     inkscape:pageopacity="0"
     inkscape:pageshadow="2"
     inkscape:window-width="1366"
     inkscape:window-height="705"
     id="namedview8"
     showgrid="false"
     inkscape:zoom="2.6074563"
     inkscape:cx="-25.122392"
     inkscape:cy="49.358935"
     inkscape:window-x="0"
     inkscape:window-y="30"
     inkscape:window-maximized="1"
     inkscape:current-layer="5151e0c8492e5103c096af88a5006e1e" /><g
     id="5151e0c8492e5103c096af88a5006e1e"
     style="fill:#ba174e;fill-opacity:1;stroke:#000000;stroke-width:20;stroke-linejoin:round;stroke-miterlimit:6.80000019;stroke-dasharray:none;stroke-opacity:1"
     transform="matrix(0.96029956,0,0,0.96029956,10.163327,-469.84253)"><g
       id="g5"
       style="fill:#1a1a1a;fill-opacity:1;stroke:#000000;stroke-width:20;stroke-linejoin:round;stroke-miterlimit:6.80000019;stroke-dasharray:none;stroke-opacity:1"
       transform="translate(-21.868181,64.563614)" /><path
       style="fill:#000000;stroke-width:0.97038358"
       d="m 2.7272333,519.49419 c -2.88e-4,-0.0885 0.400238,-1.14743 1.1680865,-3.08816 1.1116055,-2.80957 1.202913,-3.07023 1.2041975,-3.43758 0.00165,-0.44258 0.136244,-0.90201 0.7173141,-2.44657 0.281092,-0.74719 0.572532,-1.53773 0.6476445,-1.75675 l 0.1365595,-0.39821 -0.2649025,-0.0991 c -0.29092,-0.10884 -0.358297,-0.11977 -0.358297,-0.0581 0,0.11283 -0.7248166,1.11657 -1.0684301,1.47957 -0.4405685,0.46543 -0.888456,0.77457 -1.7747255,1.22494 -2.0107756,1.0218 -3.26391318,0.83705 -3.95007165,-0.58234 -0.19661155,-0.40672 -0.36075505,-0.99776 -0.41811655,-1.50552 -0.01827,-0.16159 -0.073318,-0.34838 -0.122363,-0.4151 -0.049055,-0.0667 -0.135347,-0.2523 -0.1917835,-0.41241 -0.082875,-0.23513 -0.096805,-0.3547 -0.072421,-0.62179 0.03538,-0.38724 0.1531645,-0.64265 0.4190855,-0.90857 0.1056365,-0.10564 0.192066,-0.21444 0.192066,-0.2418 0,-0.18435 0.60369906,-1.17635 0.93389152,-1.53457 l 0.18677803,-0.20263 -0.47065499,-0.34913 c -0.66124306,-0.49052 -1.06387356,-0.76189 -1.33189856,-0.89772 l -0.230801,-0.11695 -0.6717295,0.44879 c -0.3694485,0.24683 -1.0974815,0.75251 -1.6178515,1.12373 -1.7358906,1.23836 -2.8587471,1.92171 -3.8200566,2.32482 l -0.427333,0.1792 -0.089095,1.2474 c -0.049,0.68607 -0.10616,1.5749 -0.127035,1.97518 -0.0414,0.79419 -0.08762,1.02777 -0.25437,1.28576 l -0.1097701,0.16982 -0.01565,-0.72779 c -0.02505,-1.16094 0.1549601,-4.56774 0.2643851,-5.00438 0.0201,-0.0801 0.127965,-0.14007 0.4708975,-0.26167 1.943681,-0.68914 3.4860716,-1.55172 5.6927891,-3.18366 0.2819776,-0.20853 0.3877526,-0.25948 0.5387191,-0.25948 0.4452854,0 1.0812474,0.28757 2.15595045,0.97491 l 0.685106,0.43816 0.10139,-0.10285 c 0.09041,-0.0917 0.093195,-0.1091 0.02569,-0.16069 -0.3528265,-0.26961 -1.52271249,-1.31157 -1.91357705,-1.70432 -0.524517,-0.52705 -1.975202,-1.64829 -2.7730595,-2.14331 -0.3956095,-0.24545 -0.5277675,-0.30214 -0.768845,-0.32979 -0.29706,-0.034 -2.1148896,-0.28232 -2.7021606,-0.36903 -0.178595,-0.0264 -0.407846,-0.048 -0.509452,-0.0481 -0.10815,-1e-4 -0.255124,-0.0453 -0.354543,-0.10884 l -0.169819,-0.10866 0.145557,-0.0129 c 0.080057,-0.007 0.9999785,0.0602 2.044273,0.14954 l 1.8987111,0.16236 0.2846525,0.1594 c 0.1565525,0.0877 0.666735,0.39371 1.1337305,0.6801 1.346842,0.82596 1.96709055,1.14871 2.44313856,1.27129 0.21515996,0.0554 0.27221646,0.10498 0.66002449,0.57353 0.233476,0.28209 0.5679645,0.63884 0.74329855,0.79278 0.20753,0.1822 0.348912,0.3527 0.4050885,0.48853 l 0.086296,0.20864 0.2511985,-0.11109 c 0.2485025,-0.1099 0.5637235,-0.17844 1.0943866,-0.23797 l 0.2735455,-0.0307 -0.07246,-0.32469 c -0.039865,-0.17858 -0.2644265,-1.0899 -0.499059,-2.02515 L 2.1547487,498.82411 1.8784402,498.439 c -0.4411275,-0.61484 -0.89151255,-1.44154 -1.33749605,-2.45499 -0.1031725,-0.23446 -0.304767,-0.5855 -0.4479875,-0.78009 -0.33688053,-0.45773 -0.70056499,-1.0609 -0.74398449,-1.2339 -0.029235,-0.11652 0.03488,-0.0736 0.44687446,0.29897 0.91079753,0.82373 1.08951953,1.02956 1.43293358,1.65027 0.4606005,0.83253 1.126943,2.05184 1.2452696,2.27867 0.055684,0.10675 0.2749905,0.71809 0.4873435,1.35854 0.2123525,0.64046 0.5576325,1.65466 0.7672945,2.25379 l 0.3811915,1.08934 0.433354,0.0623 c 0.2383425,0.0342 0.4376005,0.0571 0.4427995,0.0509 0.005,-0.006 0.144865,-1.07034 0.3103765,-2.36459 0.5209791,-4.07394 0.5605891,-4.32182 0.7510106,-4.69995 0.312851,-0.62124 0.6215885,-1.34321 1.101817,-2.57655 0.2646695,-0.67972 0.513809,-1.28561 0.553646,-1.34641 0.087831,-0.13404 0.2430655,-0.14379 0.309612,-0.0195 0.078795,0.14723 0.2390345,1.14233 0.297852,1.84967 0.052378,0.63013 0.025525,1.65965 -0.04856,1.85993 -0.01993,0.0539 -0.1202815,-0.48977 -0.241432,-1.30837 -0.114014,-0.77035 -0.2108355,-1.4167 -0.215149,-1.43632 -0.00445,-0.0196 -0.1127735,0.30788 -0.2410055,0.72779 -0.280483,0.91844 -0.567743,1.60339 -0.932031,2.22237 l -0.271048,0.46056 -0.2608,3.21291 c -0.1434415,1.76711 -0.266912,3.31822 -0.2743755,3.44692 -0.013345,0.22948 -0.00941,0.23662 0.202608,0.36896 0.2617185,0.16337 0.600172,0.52285 0.7109185,0.7551 0.04468,0.0937 0.093539,0.17028 0.10861,0.17027 0.01506,-2e-5 0.191158,-0.17855 0.391302,-0.39674 1.3560885,-1.4784 2.5380015,-2.93972 3.3663986,-4.16221 l 0.27823,-0.4106 0.481435,-0.10797 c 1.316783,-0.29532 2.661465,-0.78178 5.335173,-1.9301 l 1.867989,-0.80227 0.573408,0.56926 c 0.953522,0.94663 2.070887,2.23968 2.070887,2.39649 0,0.0524 -0.267448,-0.19422 -1.783747,-1.64454 l -0.924991,-0.88474 -0.186115,0.0771 c -0.340221,0.14098 -1.635669,0.78115 -2.054103,1.01506 -0.701703,0.39228 -2.084353,1.07242 -2.644295,1.30076 -0.579591,0.23635 -1.508139,0.51759 -2.020398,0.61195 l -0.322231,0.0593 -0.281075,0.39578 c -0.659316,0.9284 -3.6863371,4.88356 -3.9302381,5.13532 -0.04352,0.045 -0.071391,0.10101 -0.061907,0.12461 0.00947,0.0236 0.4975805,-0.10302 1.0846635,-0.28139 0.587083,-0.17835 1.4361295,-0.43638 1.8867745,-0.5734 0.7677921,-0.23344 0.8521231,-0.24912 1.3400751,-0.24912 h 0.520713 l 0.479398,0.2381 c 0.975932,0.48472 1.999608,0.79852 3.744248,1.14774 0.85845,0.17183 1.121644,0.24305 1.276212,0.34534 0.303525,0.20086 1.041666,1.28436 1.363209,2.00102 0.118579,0.26429 0.333996,0.9332 0.329027,1.0217 -8e-4,0.0139 -0.09357,-0.14943 -0.206206,-0.36292 -0.296625,-0.56221 -0.670489,-1.08117 -1.132343,-1.57179 l -0.405134,-0.43037 -0.740713,-0.24618 c -0.76728,-0.255 -1.837174,-0.54566 -2.80278,-0.76141 -1.505394,-0.33636 -2.899452,-0.60827 -3.009342,-0.58696 -0.06736,0.0131 -1.0061951,0.35623 -2.0863251,0.7626 -1.7545885,0.66012 -2.1401765,0.83025 -2.06105,0.90938 0.012735,0.0127 0.367289,0.0629 0.787936,0.1116 1.0987325,0.12712 1.0059635,0.0764 1.2008755,0.6573 0.270932,0.80754 0.6593275,1.52259 1.5765696,2.90253 0.503954,0.75817 0.651958,1.04837 0.606966,1.19011 -0.01766,0.0557 0.02464,0.2328 0.101207,0.42323 0.29159,0.72538 0.518875,1.71824 0.580328,2.53504 0.02697,0.3581 0.02425,0.35203 -0.168607,-0.38118 -0.306433,-1.165 -0.690809,-2.04326 -0.927069,-2.11824 -0.155606,-0.0494 -0.4195901,-0.49462 -1.1187101,-1.8868 -0.589254,-1.1734 -1.038155,-1.98447 -1.244362,-2.24833 -0.060639,-0.0776 -0.311738,-0.18109 -0.8767405,-0.36137 -0.665473,-0.21234 -0.79886,-0.24143 -0.8362165,-0.18239 -0.070871,0.11203 -0.062893,0.11847 0.285931,0.23082 l 0.3318645,0.10688 -0.107652,0.54554 c -0.05921,0.30005 -0.188705,1.01498 -0.2877635,1.58872 -0.326289,1.88983 -0.5744315,2.81557 -0.7753565,2.89268 -0.04136,0.0159 -0.075184,0.0516 -0.075184,0.0795 0,0.0279 -0.243342,0.62046 -0.540762,1.31695 -1.1291795,2.64427 -2.369383,5.28515 -2.370208,5.0471 z m 0.1584295,-9.90174 c -0.032835,-0.0133 -0.09835,-0.0141 -0.1455565,-0.002 -0.04723,0.0123 -0.02032,0.0232 0.059726,0.0242 0.080056,0.001 0.118681,-0.009 0.085831,-0.0224 z m 0.8086215,-0.2334 c 0.2254195,-0.11657 0.4905265,-0.36644 0.6424065,-0.60549 0.196606,-0.30943 0.1921325,-0.7019 -0.01362,-1.19617 -0.205825,-0.49441 -0.513842,-0.72182 -1.054178,-0.77829 -0.414346,-0.0433 -0.7169985,0.0708 -1.0805886,0.40742 -0.38762,0.35886 -0.431621,0.45531 -0.431621,0.94599 0,0.33539 0.020985,0.4474 0.121671,0.64946 0.1226955,0.24621 0.386258,0.47793 0.7130231,0.62688 0.2024805,0.0923 0.887991,0.0614 1.1029185,-0.0498 z m -0.1688725,-1.2124 c -0.2334365,-0.23344 -0.131355,-0.62969 0.1940925,-0.75342 0.16369,-0.0622 0.4480705,0.0281 0.5426115,0.17241 0.108139,0.16504 0.063008,0.47706 -0.087094,0.60213 -0.169924,0.1416 -0.497542,0.13094 -0.64961,-0.0211 z m 0.6329555,-0.26906 c 0.0165,-0.0267 0.01711,-0.0694 0.0011,-0.0949 -0.03992,-0.0646 -0.171126,-0.006 -0.171126,0.0759 0,0.0776 0.124982,0.0916 0.1698135,0.019 z m -4.52348964,1.08411 c -0.032835,-0.0133 -0.09835,-0.0141 -0.145557,-0.001 -0.04723,0.0123 -0.02032,0.0231 0.0597255,0.0241 0.0800565,10e-4 0.11868151,-0.009 0.0858315,-0.0224 z m 0.80862099,-0.2334 c 0.2254195,-0.11657 0.490527,-0.36644 0.64240705,-0.60549 0.196606,-0.30943 0.192132,-0.7019 -0.01362,-1.19616 -0.20582505,-0.49442 -0.51384255,-0.72183 -1.05417855,-0.7783 -0.41434599,-0.0433 -0.716998,0.0708 -1.08058855,0.40742 -0.3876145,0.35886 -0.4316205,0.45531 -0.4316205,0.94598 0,0.3354 0.020985,0.44742 0.121671,0.64947 0.122695,0.24621 0.38625805,0.47794 0.71302306,0.62688 0.2024805,0.0923 0.88799099,0.0613 1.10291849,-0.0498 z m -0.168872,-1.21241 c -0.233437,-0.23343 -0.131355,-0.62968 0.1940925,-0.75341 0.1636895,-0.0622 0.4480705,0.0281 0.54261105,0.17241 0.1081395,0.16504 0.063009,0.47706 -0.087094,0.60213 -0.1699245,0.1416 -0.497542,0.13094 -0.64961,-0.0212 z m 0.6329555,-0.26906 c 0.0165,-0.0267 0.01711,-0.0694 0.0011,-0.0949 -0.03992,-0.0646 -0.1711255,-0.006 -0.1711255,0.0759 0,0.0776 0.124982,0.0916 0.1698135,0.019 z m 3.69634215,0.62166 c -0.015505,-0.0387 -0.026965,-0.0272 -0.02929,0.0293 -0.0022,0.0512 0.00936,0.0798 0.02547,0.0637 0.01611,-0.0161 0.01783,-0.058 0.0039,-0.093 z m -2.9606796,-0.10007 c -0.013455,-0.0333 -0.02447,-0.006 -0.02447,0.0607 0,0.0667 0.01102,0.094 0.02447,0.0607 0.013455,-0.0333 0.013455,-0.0879 0,-0.1213 z m -0.290106,-0.53068 c -0.015505,-0.0387 -0.026965,-0.0272 -0.02929,0.0293 -0.0022,0.0512 0.00936,0.0798 0.02547,0.0637 0.01611,-0.0161 0.01783,-0.058 0.0039,-0.093 z"
       id="path825"
       inkscape:connector-curvature="0" /></g></svg>