<?xml version="1.0" encoding="UTF-8" standalone="no"?>
<svg
   xmlns:dc="http://purl.org/dc/elements/1.1/"
   xmlns:cc="http://creativecommons.org/ns#"
   xmlns:rdf="http://www.w3.org/1999/02/22-rdf-syntax-ns#"
   xmlns:svg="http://www.w3.org/2000/svg"
   xmlns="http://www.w3.org/2000/svg"
   xmlns:sodipodi="http://sodipodi.sourceforge.net/DTD/sodipodi-0.dtd"
   xmlns:inkscape="http://www.inkscape.org/namespaces/inkscape"
   version="1.1"
   x="0px"
   y="0px"
   width="32"
   height="32"
   viewBox="0 0 32 32"
   enable-background="new 0 0 512 512"
   xml:space="preserve"
   id="svg2"
   inkscape:version="0.92.4 (5da689c313, 2019-01-14)"
   sodipodi:docname="git.svg"><metadata
     id="metadata12"><rdf:RDF><cc:Work
         rdf:about=""><dc:format>image/svg+xml</dc:format><dc:type
           rdf:resource="http://purl.org/dc/dcmitype/StillImage" /><dc:title /></cc:Work></rdf:RDF></metadata><defs
     id="defs10" /><sodipodi:namedview
     pagecolor="#ffffff"
     bordercolor="#666666"
     borderopacity="1"
     objecttolerance="10"
     gridtolerance="10"
     guidetolerance="10"
     inkscape:pageopacity="0"
     inkscape:pageshadow="2"
     inkscape:window-width="1920"
     inkscape:window-height="1025"
     id="namedview8"
     showgrid="false"
     inkscape:zoom="7.375"
     inkscape:cx="16.115328"
     inkscape:cy="3.3369914"
     inkscape:window-x="0"
     inkscape:window-y="0"
     inkscape:window-maximized="1"
     inkscape:current-layer="5151e0c8492e5103c096af88a5006e1e" /><g
     id="5151e0c8492e5103c096af88a5006e1e"
     style="fill:#ba174e;fill-opacity:1;stroke:#000000;stroke-width:20;stroke-linejoin:round;stroke-miterlimit:6.80000019;stroke-dasharray:none;stroke-opacity:1"
     transform="matrix(0.96029956,0,0,0.96029956,10.163327,-469.84253)"><g
       id="g5"
       style="fill:#1a1a1a;fill-opacity:1;stroke:#000000;stroke-width:20;stroke-linejoin:round;stroke-miterlimit:6.80000019;stroke-dasharray:none;stroke-opacity:1"
       transform="translate(-21.868181,64.563614)" /><path
       style="fill:#cfd0c2;fill-opacity:1;stroke:none;stroke-width:1.74891436"
       d="m 4.0127949,516.07795 c -1.3525534,-0.67588 -3.30002143,-2.9492 -4.15447773,-4.84962 l -0.29852431,-0.66395 -0.46972889,-8e-5 c -1.42573217,-3.4e-4 -3.59533987,-0.5629 -4.82073757,-1.25007 -0.9449423,-0.5299 -2.0407981,-1.64528 -2.5115718,-2.55632 -0.9078499,-1.75686 -1.1279867,-4.14505 -0.5420205,-5.8802 0.361679,-1.07098 1.2037566,-2.1085 2.1718054,-2.67586 1.2972214,-0.76028 2.0518842,-0.86941 4.8852882,-0.70644 2.67633507,0.15393 7.1337741,0.36589 9.222664,0.43853 l 1.6396068,0.057 v 2.64019 2.64019 l 0.393506,0.19118 0.393506,0.19118 v -2.84086 c 0,-1.56246 0.0098,-2.84159 0.02186,-2.8425 0.01202,-7.2e-4 1.1236765,-0.0388 2.4703415,-0.0842 1.346663,-0.0454 3.780043,-0.14812 5.40751,-0.22825 2.930275,-0.14429 2.961293,-0.14402 3.191769,0.0277 0.452747,0.33739 0.572936,0.86185 0.576644,2.51625 0.0038,1.68112 -0.128831,2.7196 -0.619686,4.85324 -1.22802,5.33792 -3.590268,9.79294 -5.801698,10.94155 l -0.568397,0.29523 -5.0306495,0.0245 -5.0306498,0.0246 z m 6.6621751,-2.4946 c 0.14955,-0.03 0.37396,-0.16102 0.49869,-0.29122 0.268827,-0.28059 2.942529,-5.70898 3.007947,-6.107 0.06066,-0.36911 -0.110454,-0.85416 -0.396321,-1.1234 -0.206919,-0.19488 -3.474838,-1.86124 -3.9390435,-2.00857 -0.154017,-0.0489 -0.224853,0.0332 -0.499707,0.57897 -0.285779,0.56749 -0.309688,0.66515 -0.222121,0.90731 0.05397,0.14926 0.09813,0.36835 0.09813,0.48688 0,0.17782 0.09778,0.26371 0.559335,0.49131 0.6784645,0.33457 1.1514895,0.73485 1.2278275,1.039 0.07536,0.30028 -0.142531,1.02296 -0.610141,2.02361 -0.377124,0.80703 -0.379777,0.81929 -0.213276,0.98579 0.235128,0.23513 0.299708,0.56683 0.170902,0.8778 -0.144121,0.34794 -0.4033065,0.51949 -0.7848645,0.51949 -0.381558,0 -0.640744,-0.17155 -0.7848654,-0.51949 -0.223739,-0.54016 0.1890054,-1.14198 0.7831944,-1.14198 h 0.322573 l 0.3979835,-0.89632 c 0.824179,-1.85617 0.796032,-2.00827 -0.4924885,-2.66136 l -0.604339,-0.30631 -0.3257478,0.18308 c -0.1791613,0.1007 -0.3800919,0.18308 -0.446512,0.18308 -0.067723,0 -0.3801385,0.52044 -0.7113412,1.185 -0.5535336,1.11067 -0.5822365,1.19691 -0.4575888,1.37487 0.2060369,0.29416 0.1625269,0.63981 -0.1203999,0.95646 -0.2053146,0.22978 -0.3193513,0.28359 -0.6010743,0.28359 -0.4054154,0 -0.6119396,-0.14529 -0.7808146,-0.5493 -0.1079724,-0.2583 -0.1040019,-0.32694 0.035406,-0.61212 0.097936,-0.20033 0.2674596,-0.36976 0.4505441,-0.45028 0.2525665,-0.11108 0.3766496,-0.29503 0.889164,-1.31811 0.4162593,-0.83093 0.5718591,-1.22657 0.5166834,-1.31375 -0.1234582,-0.19508 -0.095201,-0.72231 0.049809,-0.92934 0.072292,-0.10321 0.2605369,-0.23026 0.4183209,-0.28233 0.2381112,-0.0786 0.3424477,-0.20698 0.6137453,-0.75527 0.1797769,-0.36332 0.3089189,-0.68961 0.2869839,-0.72511 -0.02193,-0.0355 -0.2312191,-0.15414 -0.4650768,-0.26368 l -0.4251963,-0.19915 -0.9140898,0.31607 -0.9140897,0.31608 -1.3335471,2.75814 c -1.1378969,2.35347 -1.3335472,2.81828 -1.3335472,3.16807 0,0.6716 0.2765128,0.98002 1.3355485,1.48964 0.4918744,0.2367 1.7600297,0.85193 2.8181231,1.3672 2.0212623,0.98429 2.2794198,1.09264 2.4922018,1.04593 0.07214,-0.0158 0.253528,-0.0533 0.403078,-0.0833 z m -11.8584658,-5.49278 c 0,-0.0138 -0.1980178,-0.61392 -0.4400393,-1.33355 -0.7481951,-2.22467 -1.2588429,-4.49337 -1.4410102,-6.40212 l -0.060507,-0.63398 -0.3627689,0.001 c -0.4882178,0.002 -1.4625107,0.21456 -1.8118311,0.3952 -1.6160196,0.83568 -2.0143374,2.99289 -0.9542075,5.16779 0.6864899,1.40837 1.9878953,2.25426 4.195906,2.72726 0.3890213,0.0833 0.8744573,0.12657 0.8744573,0.0779 z"
       id="path838"
       inkscape:connector-curvature="0" /></g></svg>