<?xml version="1.0" encoding="UTF-8" standalone="no"?>
<!-- Created with Inkscape (http://www.inkscape.org/) -->

<svg
   xmlns:dc="http://purl.org/dc/elements/1.1/"
   xmlns:cc="http://creativecommons.org/ns#"
   xmlns:rdf="http://www.w3.org/1999/02/22-rdf-syntax-ns#"
   xmlns:svg="http://www.w3.org/2000/svg"
   xmlns="http://www.w3.org/2000/svg"
   xmlns:xlink="http://www.w3.org/1999/xlink"
   xmlns:sodipodi="http://sodipodi.sourceforge.net/DTD/sodipodi-0.dtd"
   xmlns:inkscape="http://www.inkscape.org/namespaces/inkscape"
   id="svg2"
   version="1.1"
   inkscape:version="0.92.4 (5da689c313, 2019-01-14)"
   width="32"
   height="32"
   sodipodi:docname="iletisim.svg"
   viewBox="0 0 32 32">
  <metadata
     id="metadata8">
    <rdf:RDF>
      <cc:Work
         rdf:about="">
        <dc:format>image/svg+xml</dc:format>
        <dc:type
           rdf:resource="http://purl.org/dc/dcmitype/StillImage" />
        <dc:title />
      </cc:Work>
    </rdf:RDF>
  </metadata>
  <defs
     id="defs6">
    <linearGradient
       x1="50.630707"
       y1="61.373192"
       x2="50.630707"
       y2="26.422728"
       id="linearGradient3699"
       xlink:href="#linearGradient3697"
       gradientUnits="userSpaceOnUse"
       gradientTransform="matrix(5.2274314,0,0,5.2274314,0.626775,4.3662953)" />
    <linearGradient
       id="linearGradient3697">
      <stop
         id="stop3699"
         style="stop-color:#e6e6e6;stop-opacity:1"
         offset="0" />
      <stop
         id="stop3701"
         style="stop-color:#f5f5f5;stop-opacity:1"
         offset="1" />
    </linearGradient>
  </defs>
  <sodipodi:namedview
     pagecolor="#ffffff"
     bordercolor="#666666"
     borderopacity="1"
     objecttolerance="10"
     gridtolerance="10"
     guidetolerance="10"
     inkscape:pageopacity="0"
     inkscape:pageshadow="2"
     inkscape:window-width="1920"
     inkscape:window-height="1025"
     id="namedview4"
     showgrid="false"
     inkscape:zoom="9.1923881"
     inkscape:cx="54.132096"
     inkscape:cy="22.029584"
     inkscape:window-x="0"
     inkscape:window-y="0"
     inkscape:window-maximized="1"
     inkscape:current-layer="svg2"
     showguides="true"
     inkscape:guide-bbox="true"
     inkscape:document-units="px" />
  <path
     style="fill:#cccccc;fill-opacity:1;fill-rule:evenodd;stroke:none;stroke-width:1.02230215"
     d=""
     id="path3783"
     inkscape:connector-curvature="0" />
  <g
     style="font-style:normal;font-variant:normal;font-weight:normal;font-stretch:normal;font-size:48px;line-height:125%;font-family:'American Participants';-inkscape-font-specification:'American Participants';text-align:start;writing-mode:tb-rl;text-anchor:start;fill:#ff00ff;fill-opacity:1;stroke:none"
     id="g3709"
     transform="matrix(4.919725,0,0,4.9253437,24.621099,-462.06654)" />
  <path
     style="fill:#cfd0c2;stroke-width:0.01200407;fill-opacity:1"
     d="m 15.518012,30.995184 c -1.02261,-0.043 -1.90696,-0.1579 -2.85697,-0.3703 -2.9822003,-0.667 -5.7063003,-2.252 -7.7677203,-4.5195 -2.21938,-2.4413 -3.57166,-5.5417 -3.84552,-8.817 -0.0396,-0.4741 -0.0478,-0.6899 -0.0478,-1.2724 -1.2e-4,-0.6193 0.006,-0.7693 0.0599,-1.3985 0.20829,-2.4494 1.03354,-4.8273996 2.3912,-6.8902996 1.10391,-1.6774 2.54061,-3.1168 4.24032,-4.2484 1.26746,-0.8438 2.6837803,-1.5021 4.1114003,-1.9108 0.88333,-0.2529 1.73623,-0.4126 2.61689,-0.4899 0.41537,-0.036 0.50161,-0.04 0.49051,-0.023 -0.0287,0.047 -0.91167,1.3261 -1.2135,1.7586 -0.29618,0.4245 -0.36377,0.5141 -0.41543,0.5513 -0.0368,0.026 -0.13201,0.07 -0.23591,0.1088 -0.96744,0.3581 -1.62859,0.6599 -2.33699,1.067 -1.3412903,0.7706 -2.4598103,1.749 -3.3327503,2.9152 -0.89238,1.1921 -1.52394,2.5480996 -1.92823,4.1401996 -0.21261,0.8373 -0.3391,1.717 -0.35877,2.4951 -0.0342,1.3519 0.14699,2.5642 0.57364,3.8388 0.16047,0.4795 0.34704,0.9279 0.58929,1.4166 0.55685,1.1232 1.24475,2.0889 2.12376,2.9814 0.91243,0.9265 1.8962803,1.6399 3.0421003,2.2058 0.95823,0.4733 1.91023,0.778 3.0683,0.9821 0.86502,0.1525 1.86915,0.2033 2.74293,0.1388 2.01025,-0.1484 3.8668,-0.7815 5.50987,-1.879 1.60888,-1.0746 2.91045,-2.5456 3.7865,-4.2791 0.72172,-1.4282 1.12917,-2.953 1.23812,-4.6336 0.0281,-0.4336 0.0141,-1.1636 -0.0314,-1.6386 -0.17136,-1.7884 -0.75981,-3.4436996 -1.79438,-5.0476996 -0.13278,-0.2058 -0.36712,-0.5454 -0.46841,-0.6787 l -0.0688,-0.09 -0.0734,-1.506 c -0.0404,-0.8283 -0.0768,-1.5513 -0.081,-1.6065 -0.007,-0.089 -0.005,-0.099 0.0111,-0.09 0.0103,0.01 0.12303,0.097 0.25062,0.2025 1.24983,1.0347 2.2836,2.2014 3.12707,3.5293 0.66108,1.0407 1.22798,2.2503996 1.6341,3.4870996 0.75181,2.2895 0.92704,4.7036 0.51143,7.046 -0.42443,2.3921 -1.33499,4.5401 -2.73476,6.451 -0.21705,0.2964 -0.52873,0.6833 -0.80856,1.004 -0.25612,0.2934 -0.97158,1.0184 -1.2392,1.2557 -0.58951,0.5226 -1.12782,0.9379 -1.74059,1.3427 -1.76246,1.1644 -3.70217,1.9273 -5.78227,2.2743 -0.62874,0.1049 -1.18927,0.1622 -1.88834,0.1928 -0.2408,0.011 -0.86059,0.013 -1.06836,0 z m 0.81628,-11.6192 c -0.90913,-0.049 -1.73186,-0.2822 -2.48485,-0.7043 -0.92543,-0.5187 -1.68597,-1.3182 -2.16684,-2.2778 -0.53045,-1.0586 -0.71965,-2.3904 -0.50303,-3.541 0.0891,-0.4731 0.24266,-0.9322 0.45149,-1.3494 0.21729,-0.4341 0.52108,-0.8784 0.84486,-1.2355 0.0589,-0.065 0.1152,-0.1285 0.1251,-0.1411 0.01,-0.013 0.48787,-0.4834996 1.06215,-1.0462996 0.57427,-0.5628 1.49266,-1.4636 2.04085,-2.0016 0.54819,-0.5381 1.39365,-1.3673 1.87881,-1.8427 0.48516,-0.4753 1.19009,-1.1668 1.5665,-1.5365 0.37642,-0.3697 0.70712,-0.6901 0.73489,-0.7119 l 0.0505,-0.04 0.007,0.028 c 0.004,0.015 0.0495,0.2384 0.10196,0.4958 0.23852,1.1701 0.67559,3.3065 0.97743,4.7777 0.47116,2.2963996 0.64451,3.1571996 0.87636,4.3513996 0.14813,0.763 0.15647,0.8349 0.15675,1.3505 2.3e-4,0.4248 -0.0125,0.5851 -0.073,0.9183 -0.24069,1.3269 -0.97287,2.5295 -2.05726,3.3791 -0.80482,0.6305 -1.76298,1.0113 -2.77895,1.1044 -0.18332,0.017 -0.66877,0.031 -0.81027,0.023 z"
     id="path829"
     inkscape:connector-curvature="0" />
</svg>
