<?xml version="1.0" encoding="UTF-8" standalone="no"?>
<!-- Created with Inkscape (http://www.inkscape.org/) -->

<svg
   xmlns:dc="http://purl.org/dc/elements/1.1/"
   xmlns:cc="http://creativecommons.org/ns#"
   xmlns:rdf="http://www.w3.org/1999/02/22-rdf-syntax-ns#"
   xmlns:svg="http://www.w3.org/2000/svg"
   xmlns="http://www.w3.org/2000/svg"
   xmlns:sodipodi="http://sodipodi.sourceforge.net/DTD/sodipodi-0.dtd"
   xmlns:inkscape="http://www.inkscape.org/namespaces/inkscape"
   version="1.1"
   id="svg2"
   width="500"
   height="359.47699"
   viewBox="0 0 499.99999 359.47699"
   sodipodi:docname="milis-logo.svg"
   inkscape:version="0.92.2 (5c3e80d, 2017-08-06)">
  <metadata
     id="metadata8">
    <rdf:RDF>
      <cc:Work
         rdf:about="">
        <dc:format>image/svg+xml</dc:format>
        <dc:type
           rdf:resource="http://purl.org/dc/dcmitype/StillImage" />
        <dc:title></dc:title>
      </cc:Work>
    </rdf:RDF>
  </metadata>
  <defs
     id="defs6" />
  <sodipodi:namedview
     pagecolor="#ffffff"
     bordercolor="#666666"
     borderopacity="1"
     objecttolerance="10"
     gridtolerance="10"
     guidetolerance="10"
     inkscape:pageopacity="0"
     inkscape:pageshadow="2"
     inkscape:window-width="1366"
     inkscape:window-height="715"
     id="namedview4"
     showgrid="false"
     inkscape:zoom="0.70238094"
     inkscape:cx="374.76628"
     inkscape:cy="289.28644"
     inkscape:window-x="0"
     inkscape:window-y="24"
     inkscape:window-maximized="1"
     inkscape:current-layer="svg2" />
  <path
     style="fill:#363e4c;fill-opacity:1;stroke-width:0.71696073"
     d="m 313.52236,358.73962 c -0.2994,-0.48441 -0.56194,-3.9527 -0.58343,-7.70732 -0.0345,-6.01496 -0.27309,-7.27123 -2.00733,-10.56678 -1.08254,-2.05711 -1.96825,-4.06937 -1.96825,-4.47167 0,-0.40233 1.37119,-0.0992 3.04708,0.6734 7.16465,3.30335 16.97396,7.12895 20.89644,8.14955 6.26772,1.63078 13.27612,7.7619 7.50848,6.5686 -2.27992,-0.47169 -3.39645,-1.11714 -10.24635,-5.92325 -2.19802,-1.54221 -3.63055,-1.97338 -6.55661,-1.97338 -6.06479,0 -9.15417,3.92431 -9.17191,11.65062 -0.0115,4.76161 -0.0663,4.97856 -0.91812,3.60023 z m -92.74522,-5.31036 c 0,-5.8191 1.28174,-10.04658 5.73114,-18.90249 3.39099,-6.7493 10.01709,-14.16209 20.61716,-23.06497 3.25323,-2.73234 5.91384,-5.35511 5.91249,-5.8284 -10e-4,-0.6353 -3.23864,-0.86536 -12.36757,-0.87905 -8.56654,-0.0129 -13.23648,-0.32027 -15.20156,-1.00062 l -2.83643,-0.98202 7.85517,-3.73119 c 14.679,-6.97254 30.29757,-20.50699 31.58518,-27.37051 1.06261,-5.66423 -2.62128,-4.58239 -9.92467,2.9146 -5.46291,5.60768 -7.98098,6.87477 -13.67895,6.88305 -3.92079,0.007 -11.95284,2.90665 -19.84284,7.16657 -10.23608,5.52663 -20.15226,10.13316 -22.7292,10.55877 -2.62995,0.43436 -7.15639,-1.88394 -10.45473,-5.35456 l -1.99612,-2.10038 2.9048,-2.01303 c 3.53538,-2.45001 8.08544,-7.37096 7.57662,-8.1942 -0.90485,-1.46411 -7.28661,-2.2656 -14.34734,-1.80193 l -7.29886,0.47931 -2.58584,-3.02096 c -1.42222,-1.66153 -3.49667,-4.77299 -4.60985,-6.91432 -1.63476,-3.14462 -1.83587,-4.01117 -1.04582,-4.50606 0.53796,-0.33702 4.49802,-1.01817 8.80008,-1.51369 7.44431,-0.85745 7.80016,-0.97412 7.37146,-2.4164 -1.31199,-4.4142 -3.00109,-5.58893 -12.48946,-8.68622 -10.59939,-3.45995 -14.99877,-6.17646 -18.68895,-11.53995 l -2.23815,-3.25304 7.03923,0.51673 7.03925,0.51671 -1.12548,-1.72318 c -1.10462,-1.69118 -4.24412,-4.19369 -16.38366,-13.05941 -7.09442,-5.18118 -10.37041,-9.15745 -11.05092,-13.41311 -0.26781,-1.67479 -0.34661,-3.18537 -0.17521,-3.35687 0.1714,-0.17139 1.82007,0.83949 3.66352,2.24661 1.84341,1.40712 3.75264,2.55841 4.24272,2.55841 0.49007,0 2.63602,1.30193 4.76882,2.89318 4.68208,3.4933 6.6861,4.45249 34.04076,16.29294 25.56218,11.06458 37.95602,15.73493 51.96059,19.58026 24.46524,6.71761 32.64807,7.3124 48.39484,3.51768 9.78249,-2.35741 10.42905,-2.41919 25.45212,-2.43216 13.12523,-0.0115 16.63925,0.22712 23.65972,1.60542 9.21174,1.80851 16.09551,3.62783 15.60031,4.12301 -0.31909,0.3191 -15.79198,2.05598 -26.17549,2.93826 -2.85888,0.24294 -5.19797,0.66151 -5.19797,0.93019 0,1.39526 7.4296,6.59171 15.87973,11.10672 l 5.78911,3.09316 -6.71189,3.35955 c -3.69155,1.84771 -7.8411,4.03169 -9.22125,4.85324 -2.83137,1.6854 -7.16961,5.56368 -7.16961,6.40949 0,0.30684 1.04855,1.11602 2.33011,1.79816 1.93856,1.03181 4.88395,1.28922 17.5263,1.53171 13.77322,0.26419 15.31093,0.4183 16.42196,1.64602 1.56859,1.73326 3.97903,1.71216 9.07635,-0.0794 2.24388,-0.78867 4.97508,-1.43213 6.06934,-1.42992 2.78614,0.007 7.36675,1.36147 7.36675,2.18058 0,0.3758 -0.25139,0.68326 -0.55863,0.68326 -0.30724,0 -1.80314,1.2088 -3.32419,2.68621 l -2.76558,2.68619 0.46042,10.39833 c 0.25322,5.7191 0.66235,12.89873 0.90914,15.95478 l 0.44868,5.55645 h -4.49237 -4.49241 l 0.35909,5.01872 c 0.19738,2.7603 0.22158,5.01874 0.0535,5.01874 -0.16805,0 -3.59327,-2.36144 -7.61159,-5.24761 -4.01835,-2.88616 -10.73592,-7.56341 -14.928,-10.39386 l -7.62195,-5.14626 -4.33455,0.45303 -4.33454,0.45306 -5.76373,-11.51052 c -5.39727,-10.77866 -7.25877,-13.73326 -7.23818,-11.48857 0.004,0.51618 0.97265,5.76373 2.15088,11.66119 3.04698,15.251 3.04978,15.23613 -2.34688,12.48295 -1.64897,-0.84125 -3.89454,-1.7866 -4.99017,-2.10083 -1.97784,-0.56723 -1.99207,-0.54711 -1.99207,2.81947 v 3.39079 l -2.33013,-0.26837 c -3.17064,-0.3652 -14.54226,2.03559 -28.23679,5.96139 -22.74954,6.52153 -35.0014,12.18951 -43.10081,19.93936 l -3.0471,2.91556 z m 143.70185,-3.92046 c -0.0525,-8.39578 -0.009,-8.47999 3.73646,-7.05637 1.09373,0.41581 7.19783,1.05413 13.56472,1.41847 16.06881,0.91953 17.35146,1.68237 4.54349,2.70221 -5.67846,0.45216 -11.54314,1.17063 -13.03264,1.59658 -3.15924,0.90351 -7.68285,4.62111 -7.69874,6.32702 -0.007,0.64922 -0.24799,1.55033 -0.53772,2.00245 -0.28969,0.45212 -0.54871,-2.69354 -0.57557,-6.99036 z m 33.65864,-29.77697 c 1.31134,-7.4863 1.35393,-9.54175 0.23314,-11.25229 -1.29689,-1.97928 -4.99886,-2.96217 -7.04081,-1.86934 -1.14762,0.61419 -1.3142,1.20918 -0.92278,3.29567 0.45415,2.42074 0.40321,2.5063 -1.0338,1.73723 -2.98027,-1.59499 -3.61955,-4.30592 -1.9549,-8.28995 l 1.0233,-2.44913 2.99956,1.17825 c 2.80815,1.10307 3.22786,1.09718 6.57772,-0.0926 3.55574,-1.26288 3.58501,-1.26104 4.67434,0.2942 1.62783,2.32405 5.30432,3.56447 10.56476,3.56447 5.37619,0 5.60223,0.37246 3.17209,5.22652 -3.18857,6.36888 -8.12818,9.98139 -14.90682,10.9019 l -3.87114,0.5257 z m 10.03417,-22.59966 c -0.83851,-0.92387 -2.4239,-3.13161 -3.5231,-4.90608 -2.58719,-4.1766 -3.6931,-4.96825 -6.97917,-4.99593 -2.91736,-0.0246 -3.76068,1.10971 -4.61238,6.20373 l -0.38177,2.28325 -2.87995,-1.90588 -2.87997,-1.90585 -2.38808,2.76259 -2.38812,2.76264 -3.94077,-3.60166 c -6.17773,-5.64609 -12.17249,-7.05953 -20.48179,-4.82923 -5.96826,1.60196 -6.91499,1.45243 -7.44048,-1.17507 l -0.45009,-2.2505 -3.76204,0.45666 c -2.06914,0.25119 -6.50444,0.62057 -9.85623,0.8209 l -6.09417,0.36421 5.7357,-2.83327 c 3.15462,-1.55832 8.15543,-3.70676 11.11289,-4.77435 2.95746,-1.06755 5.50384,-2.04513 5.65861,-2.1724 0.8464,-0.69593 -2.21097,-2.63143 -8.38337,-5.3072 -3.82482,-1.65806 -7.42662,-3.46053 -8.00405,-4.00548 -0.90099,-0.85034 -0.49441,-0.99172 2.86785,-0.99728 7.43058,-0.0129 30.78787,-6.32784 34.65608,-9.37057 3.34991,-2.63506 2.56732,-4.50266 -3.31464,-7.91018 -6.87868,-3.98492 -24.61624,-15.80142 -27.78224,-18.5081 l -2.50937,-2.14531 3.99085,-0.0292 c 8.38922,-0.0611 19.4383,2.90038 33.10276,8.87296 16.39675,7.16682 25.85934,13.3537 35.63491,23.29906 5.78696,5.8875 6.07219,6.078 6.53368,4.36383 0.44196,-1.64159 0.6489,-1.43932 2.45968,2.40426 1.49354,3.17028 2.15587,6.06357 2.70807,11.82986 0.85034,8.87938 0.17252,12.49993 -3.00607,16.05739 -1.84147,2.06097 -2.49264,2.29952 -6.95517,2.54788 -4.43734,0.24699 -5.07404,0.10827 -6.44806,-1.40575 z m -11.02225,-2.39674 c 0,-3.64719 1.15335,-4.22387 3.5848,-1.79238 1.45886,1.45885 2.00159,3.30328 0.74311,2.5255 -0.37993,-0.23479 -1.34783,0.23011 -2.15087,1.03315 -0.80304,0.80303 -1.62139,1.46007 -1.81855,1.46007 -0.19717,0 -0.35849,-1.45186 -0.35849,-3.22634 z m -45.52703,-44.53577 c -1.97164,-0.56732 -6.22736,-1.51391 -9.45716,-2.10357 -3.22978,-0.58964 -7.23138,-1.55161 -8.89244,-2.13765 -1.66106,-0.58605 -7.24565,-1.53356 -12.41016,-2.10559 -10.48568,-1.16137 -26.10033,-0.57196 -35.20066,1.32871 -2.76029,0.5765 -7.5127,1.39163 -10.56088,1.81138 l -5.54218,0.76318 -11.30641,-5.4302 c -20.88508,-10.03055 -35.18855,-15.26326 -52.89015,-19.34906 -15.3558,-3.54435 -14.62096,-3.18461 -20.81668,-10.19117 -7.91669,-8.95277 -30.65743,-43.48971 -35.97176,-54.63125 C 131.62389,122.61848 109.73863,107.82708 50.498866,91.869198 20.325443,83.741137 12.699107,81.439934 7.4812203,78.888896 -2.0085669,74.249308 -2.5075718,72.71121 6.1980839,74.933962 c 8.1132891,2.071507 25.9836561,4.882317 38.7180961,6.08993 8.621278,0.817563 11.626736,0.856823 14.339225,0.187328 1.887487,-0.465866 3.341082,-1.169664 3.230199,-1.563992 C 62.374698,79.2529 58.019205,77.146511 52.806629,74.966364 43.50612,71.07644 33.222566,65.443308 26.124494,60.350403 c -1.970387,-1.41376 -3.201814,-2.570474 -2.736529,-2.570474 0.465308,0 6.43298,1.9512 13.261497,4.336 16.426453,5.736805 32.407605,10.543123 48.622018,14.623048 15.17525,3.818437 17.20214,4.424069 29.20467,8.726278 8.76407,3.1414 11.1442,3.744915 9.83387,2.493502 -0.37462,-0.357764 -7.94035,-3.978714 -16.81274,-8.046565 C 79.591444,67.117835 46.227546,45.546756 39.173814,35.738395 c -1.203261,-1.673141 -2.050038,-3.179768 -1.881732,-3.34806 0.168263,-0.168284 3.20865,1.93473 6.756374,4.673384 3.547725,2.738651 8.966271,6.25077 12.041227,7.804707 3.074936,1.553936 6.527283,3.49217 7.671864,4.307189 9.632284,6.858786 45.845103,19.937206 53.232463,19.225134 2.32037,-0.223669 2.26454,-0.295443 -10.2137,-13.132238 C 94.82761,42.972342 85.27148,31.502108 85.27148,29.45142 c 0,-0.52252 -1.129213,-3.306307 -2.509364,-6.186198 -2.680001,-5.592244 -3.380292,-8.650103 -1.286004,-5.615382 6.148792,8.909835 25.146248,28.895339 35.498858,37.34514 16.56032,13.516556 50.03008,32.574769 50.03008,28.487929 0,-1.209815 -3.30101,-6.931262 -12.65716,-21.938017 -9.77146,-15.672833 -15.14745,-26.186808 -18.6966,-36.565571 -2.40509,-7.033201 -2.63864,-8.410076 -2.66882,-15.734521 -0.0394,-9.56501 1.14227,-12.24622 2.42084,-5.49282 2.73151,14.427769 6.60706,23.72358 15.65012,37.537853 17.99563,27.490311 53.53416,60.187307 85.20881,78.395807 5.73166,3.2949 11.04243,4.50251 11.04243,2.51091 0,-0.45475 -0.52043,-5.36728 -1.15656,-10.91675 -1.21758,-10.62185 -1.13706,-26.327732 0.14652,-28.59099 0.54032,-0.952712 0.75655,-0.127054 0.8862,3.383975 0.47028,12.737518 8.8212,31.885255 18.64894,42.759945 2.80871,3.10793 5.23735,4.9133 9.12498,6.78316 5.7628,2.77181 5.54024,2.4313 7.46852,11.42565 2.58095,12.03865 6.39687,23.94173 10.91764,34.05564 8.13029,18.18912 15.58532,28.87383 30.22286,43.31601 10.18392,10.04799 14.63489,13.67197 26.80405,21.82367 3.64754,2.44338 6.63189,4.59546 6.63189,4.78246 0,0.52754 -1.47802,0.30225 -5.37722,-0.81966 z m 43.95373,-13.82776 c -6.3522,-4.32221 -8.45464,-5.26994 -22.7044,-10.23458 -11.15083,-3.88495 -18.54203,-5.35927 -32.00374,-6.38376 -13.08952,-0.99617 -13.73956,-1.24713 -18.83066,-7.27018 -3.60709,-4.26743 -9.74629,-14.11091 -10.58172,-16.96656 -0.46466,-1.58828 -0.35263,-1.67647 1.55046,-1.22065 1.12823,0.27023 6.28838,0.67812 11.46699,0.90644 11.63537,0.51301 17.67961,-0.65667 26.6563,-5.15851 9.89946,-4.9646 14.47379,-10.80244 14.47379,-18.47163 0,-5.07675 -1.17377,-7.50265 -5.24395,-10.83785 -4.57672,-3.75028 -9.37566,-5.62913 -15.36868,-6.01708 -8.95852,-0.57991 -5.67124,-1.32643 5.37719,-1.22113 11.27024,0.10741 10.32899,-0.0742 29.57465,5.70779 5.09093,1.52947 11.24176,2.85626 14.23986,3.07166 l 5.27783,0.37916 -0.52916,-1.71256 c -2.49275,-8.06724 -11.9351,-15.12552 -31.60103,-23.6221 -10.64209,-4.59788 -10.67464,-4.61906 -7.46239,-4.85519 5.02078,-0.36907 16.30905,1.2515 22.07761,3.16951 7.80698,2.59577 12.88308,5.38749 26.13584,14.37402 12.47568,8.45962 14.86322,9.42083 16.37651,6.5932 1.31247,-2.45235 0.44103,-15.15841 -1.38995,-20.26613 -3.31261,-9.24091 -10.68685,-18.43293 -20.45781,-25.50074 -3.51789,-2.54469 -5.04238,-4.03112 -4.29818,-4.19093 1.55854,-0.33467 10.53729,4.1819 15.0141,7.55253 4.75093,3.57704 22.42567,18.94893 31.10454,27.05194 13.04278,12.17734 17.23795,13.3023 19.47753,5.22298 1.08822,-3.92582 -0.0735,-13.62247 -2.63732,-22.01427 -2.48196,-8.12366 -9.52733,-22.45317 -13.18039,-26.807534 -1.61789,-1.928475 -2.81215,-3.635773 -2.65392,-3.794007 0.15819,-0.158224 2.21908,0.844264 4.57969,2.227762 13.59672,7.968829 25.66125,30.083439 28.99654,53.151579 0.86319,5.97011 0.90245,6.05151 2.91783,6.05151 7.64385,0 15.43665,-12.26968 15.67874,-24.68603 0.0466,-2.39299 0.31694,-5.31877 0.60065,-6.50176 l 0.51581,-2.15088 0.65024,2.15088 c 0.35762,1.18299 0.63807,7.95826 0.62322,15.05618 -0.025,11.96861 -0.16827,13.36262 -1.97267,19.20617 -2.41844,7.83203 -6.21038,15.45533 -9.49749,19.09377 -4.25982,4.71511 -9.15631,8.04307 -35.46178,24.10202 -13.99559,8.54401 -27.54363,17.02725 -30.10677,18.85168 -6.33775,4.51118 -15.49584,13.37359 -17.69168,17.1205 -0.99139,1.6917 -2.17797,3.07579 -2.63683,3.07579 -0.45887,0 -3.63381,-1.90486 -7.0554,-4.23301 z"
     id="path4487"
     inkscape:connector-curvature="0" />
</svg>
