<?xml version="1.0" encoding="UTF-8" standalone="no"?>
<!-- Created with Inkscape (http://www.inkscape.org/) -->

<svg
   xmlns:dc="http://purl.org/dc/elements/1.1/"
   xmlns:cc="http://creativecommons.org/ns#"
   xmlns:rdf="http://www.w3.org/1999/02/22-rdf-syntax-ns#"
   xmlns:svg="http://www.w3.org/2000/svg"
   xmlns="http://www.w3.org/2000/svg"
   xmlns:sodipodi="http://sodipodi.sourceforge.net/DTD/sodipodi-0.dtd"
   xmlns:inkscape="http://www.inkscape.org/namespaces/inkscape"
   version="1.1"
   id="svg2"
   xml:space="preserve"
   width="630"
   height="200"
   viewBox="0 0 629.99998 200"
   sodipodi:docname="milis_son.svg"
   inkscape:version="0.92.4 (5da689c313, 2019-01-14)"
   inkscape:export-filename="/home/trlinux/d_4.png"
   inkscape:export-xdpi="96"
   inkscape:export-ydpi="96"><metadata
     id="metadata8"><rdf:RDF><cc:Work
         rdf:about=""><dc:format>image/svg+xml</dc:format><dc:type
           rdf:resource="http://purl.org/dc/dcmitype/StillImage" /><dc:title></dc:title></cc:Work></rdf:RDF></metadata><defs
     id="defs6"><clipPath
       clipPathUnits="userSpaceOnUse"
       id="clipPath18"><path
         d="M 0,800 H 800 V 0 H 0 Z"
         id="path16"
         inkscape:connector-curvature="0" /></clipPath><clipPath
       clipPathUnits="userSpaceOnUse"
       id="clipPath3426"><path
         d="M 0,800 H 800 V 0 H 0 Z"
         id="path3424"
         inkscape:connector-curvature="0" /></clipPath></defs><sodipodi:namedview
     pagecolor="#ffffff"
     bordercolor="#666666"
     borderopacity="1"
     objecttolerance="10"
     gridtolerance="10"
     guidetolerance="10"
     inkscape:pageopacity="0"
     inkscape:pageshadow="2"
     inkscape:window-width="1908"
     inkscape:window-height="1044"
     id="namedview4"
     showgrid="false"
     inkscape:zoom="1"
     inkscape:cx="110.8048"
     inkscape:cy="121.41497"
     inkscape:window-x="4"
     inkscape:window-y="28"
     inkscape:window-maximized="1"
     inkscape:current-layer="g10"
     showguides="false" /><g
     id="g10"
     inkscape:groupmode="layer"
     inkscape:label="14669-NPP3OF"
     transform="matrix(1.3333333,0,0,-1.3333333,0,200)"><path
       style="fill:#cfd0c2;fill-opacity:1;stroke-width:0.29916832"
       d="m 259.07439,0.3076898 c -0.12477,0.2021322 -0.23449,1.6493572 -0.2434,3.2160557 -0.0138,2.5098799 -0.114,3.0340859 -0.83762,4.4092346 -0.4517,0.8583742 -0.8213,1.6980322 -0.8213,1.8659042 0,0.16788 0.57216,0.0414 1.27146,-0.28099 2.98963,-1.3783982 7.08278,-2.9747175 8.71952,-3.4005859 2.61537,-0.6804833 5.53977,-3.2388337 3.13311,-2.7408992 -0.95134,0.19682 -1.41725,0.4661495 -4.27554,2.4716076 -0.91717,0.643524 -1.51492,0.8234411 -2.73589,0.8234411 -2.53068,0 -3.8198,-1.637507 -3.8272,-4.8614912 -0.006,-1.98688655 -0.0279,-2.07741837 -0.38313,-1.5022769 z M 220.37433,2.523559 c 0,2.4281556 0.53484,4.1921686 2.39146,7.887499 1.41495,2.816297 4.17986,5.909456 8.60298,9.62439 1.35748,1.140127 2.46768,2.23454 2.46713,2.432033 -4.4e-4,0.26508 -1.3514,0.361091 -5.16067,0.3668 -3.57458,0.0055 -5.52323,0.133646 -6.3432,0.417534 l -1.18357,0.409766 3.27774,1.556929 c 6.12517,2.909449 12.64237,8.557013 13.17965,11.420973 0.4434,2.363529 -1.09379,1.912106 -4.14128,-1.216185 -2.27954,-2.339932 -3.33026,-2.868657 -5.70786,-2.872111 -1.63605,-0.0028 -4.9876,-1.212866 -8.27988,-2.990417 -4.27124,-2.306111 -8.409,-4.228294 -9.48429,-4.405886 -1.0974,-0.18124 -2.98615,0.786114 -4.36248,2.234315 l -0.83292,0.876428 1.21211,0.839982 c 1.47521,1.022324 3.37381,3.075703 3.16152,3.419217 -0.37758,0.610937 -3.04052,0.945374 -5.98677,0.751897 l -3.04561,-0.200011 -1.079,1.260565 c -0.59347,0.693312 -1.45908,1.991638 -1.92356,2.885158 -0.68215,1.312163 -0.76606,1.673754 -0.4364,1.880254 0.22445,0.140615 1.87689,0.424857 3.67203,0.631623 3.10631,0.357792 3.25479,0.406474 3.07591,1.008299 -0.54745,1.841926 -1.25226,2.332109 -5.21151,3.624527 -4.42283,1.443742 -6.25858,2.577267 -7.7984,4.815307 l -0.93392,1.357406 2.93729,-0.215619 2.93728,-0.215616 -0.46963,0.719035 c -0.46094,0.705685 -1.77096,1.749912 -6.83646,5.449339 -2.9603,2.161967 -4.32728,3.821154 -4.61123,5.596931 -0.11185,0.698841 -0.14462,1.329166 -0.0732,1.400729 0.0715,0.07152 0.75946,-0.3503 1.52867,-0.937453 0.7692,-0.58715 1.56588,-1.067555 1.77039,-1.067555 0.20447,0 1.09992,-0.543254 1.98989,-1.207245 1.95371,-1.45766 2.78992,-1.857903 14.20429,-6.798604 10.6664,-4.616944 15.838,-6.565761 21.68174,-8.170308 10.20868,-2.803079 13.62316,-3.051267 20.19386,-1.467833 4.08194,0.983679 4.35176,1.00946 10.62047,1.014874 5.47681,0.0049 6.94312,-0.09479 9.87255,-0.6699 3.8438,-0.754645 6.71621,-1.513795 6.50958,-1.720422 -0.13323,-0.133138 -6.58957,-0.857903 -10.92232,-1.226052 -1.19292,-0.101354 -2.16895,-0.27604 -2.16895,-0.388145 0,-0.582207 3.10017,-2.750546 6.62617,-4.634532 l 2.41564,-1.290692 -2.80071,-1.401854 c -1.54036,-0.770997 -3.27187,-1.682309 -3.84776,-2.025123 -1.18145,-0.703276 -2.9917,-2.321573 -2.9917,-2.674505 0,-0.128046 0.43753,-0.465688 0.97231,-0.750325 0.80889,-0.430546 2.03794,-0.537957 7.31325,-0.639143 5.7472,-0.110246 6.38886,-0.17452 6.85243,-0.686837 0.65454,-0.723246 1.66037,-0.71444 3.78734,0.03315 0.9363,0.329088 2.07594,0.597591 2.53257,0.596666 1.16257,-0.0028 3.07393,-0.568101 3.07393,-0.909901 0,-0.15682 -0.10476,-0.285103 -0.23312,-0.285103 -0.12815,0 -0.7524,-0.5044 -1.38709,-1.120883 l -1.154,-1.120874 0.1922,-4.338942 c 0.10585,-2.386422 0.27649,-5.382294 0.37934,-6.657495 l 0.1872,-2.318558 h -1.87454 -1.87457 l 0.15,-2.094176 c 0.0825,-1.1518013 0.0925,-2.0941872 0.0222,-2.0941872 -0.0702,0 -1.49938,0.985365 -3.17612,2.1896873 -1.67674,1.2043161 -4.4798,3.1560059 -6.22903,4.3370779 l -3.18046,2.147395 -1.80868,-0.18902 -1.80869,-0.18906 -2.40503,4.803028 c -2.25214,4.497645 -3.02891,5.730522 -3.02031,4.793871 0.002,-0.215395 0.40586,-2.405051 0.89751,-4.865897 1.27141,-6.363831 1.2726,-6.357627 -0.97928,-5.208798 -0.68809,0.35103 -1.62509,0.745502 -2.08229,0.87662 -0.82528,0.236676 -0.83123,0.228304 -0.83123,-1.176488 v -1.414887 l -0.97231,0.112 c -1.32312,0.15238 -6.06817,-0.8494 -11.78254,-2.4875278 -9.49278,-2.7212597 -14.60514,-5.0863514 -17.9848,-8.3201554 l -1.27138,-1.21658435 z m 59.96291,1.6359045 c -0.0222,3.5033286 -0.002,3.5384686 1.55912,2.9444281 0.45637,-0.173502 3.00343,-0.4398557 5.6602,-0.5918878 6.70506,-0.3836962 7.24028,-0.7020088 1.89586,-1.1275602 -2.36949,-0.188674 -4.81665,-0.488471 -5.43818,-0.666207 -1.31825,-0.3770089 -3.20585,-1.9282627 -3.21247,-2.6400968 -0.002,-0.2708988 -0.10338,-0.6469067 -0.2245,-0.8355643 -0.12077,-0.188658 -0.22894,1.1239387 -0.24005,2.916888 z m 14.04484,12.4251175 c 0.54717,3.123837 0.56496,3.981521 0.0974,4.69528 -0.54117,0.825901 -2.08591,1.236035 -2.93796,0.780029 -0.47887,-0.256289 -0.54837,-0.504562 -0.38504,-1.3752 0.1894,-1.010106 0.1682,-1.045809 -0.43139,-0.724897 -1.24358,0.665545 -1.51032,1.796745 -0.81574,3.459169 l 0.42702,1.021959 1.25161,-0.491653 c 1.17179,-0.460281 1.34691,-0.457824 2.74471,0.03866 1.48372,0.526963 1.49592,0.526195 1.95049,-0.122754 0.67925,-0.969758 2.21333,-1.487354 4.40839,-1.487354 2.24334,0 2.33766,-0.15542 1.32365,-2.180886 -1.33053,-2.657562 -3.3917,-4.164963 -6.22024,-4.549065 l -1.6153,-0.219375 z m 4.18697,9.430229 c -0.34988,0.385508 -1.01143,1.30674 -1.47009,2.047177 -1.07957,1.742782 -1.54105,2.073119 -2.91223,2.084668 -1.21731,0.01015 -1.56922,-0.463056 -1.9246,-2.588651 l -0.1594,-0.952737 -1.20171,0.795269 -1.20174,0.79526 -0.99649,-1.152749 -0.99649,-1.152778 -1.64439,1.502873 c -2.5778,2.355964 -5.07924,2.945753 -8.54649,2.015107 -2.4904,-0.668454 -2.88545,-0.606059 -3.10471,0.490327 l -0.1878,0.939071 -1.56978,-0.19056 c -0.86337,-0.104815 -2.71411,-0.258958 -4.11274,-0.34254 l -2.54294,-0.151984 2.39337,1.182252 c 1.31631,0.650243 3.40305,1.546729 4.63711,1.992203 1.23409,0.44546 2.29658,0.85338 2.36118,0.906486 0.35319,0.290394 -0.92258,1.098023 -3.49815,2.214551 -1.59599,0.69186 -3.09893,1.443986 -3.33989,1.671375 -0.37594,0.354825 -0.2064,0.413821 1.19669,0.416141 3.10057,0.0055 12.84695,2.640437 14.46106,3.910086 1.39782,1.099537 1.07125,1.878835 -1.38312,3.300703 -2.87028,1.662795 -10.27171,6.593505 -11.59279,7.722931 l -1.04708,0.895177 1.66528,0.01215 c 3.50059,0.0256 8.11106,-1.210249 13.81286,-3.702443 6.84194,-2.990527 10.79042,-5.572144 14.86951,-9.722071 2.41471,-2.456691 2.53376,-2.536185 2.72631,-1.820907 0.1844,0.684988 0.27069,0.600588 1.02637,-1.003232 0.6232,-1.322871 0.89957,-2.530165 1.13,-4.936283 0.35483,-3.70512 0.072,-5.215884 -1.25437,-6.70031 -0.76837,-0.859991 -1.04008,-0.959531 -2.90217,-1.063164 -1.8516,-0.103062 -2.11726,-0.04519 -2.6906,0.58658 z m -4.59928,1.000094 c 0,1.521877 0.48127,1.762512 1.49585,0.747915 0.60874,-0.60874 0.8352,-1.378369 0.31006,-1.053824 -0.1586,0.09798 -0.5624,-0.09602 -0.89751,-0.431106 -0.33506,-0.335082 -0.67655,-0.609247 -0.75881,-0.609247 -0.0825,0 -0.14954,0.605819 -0.14954,1.346262 z m -18.99721,18.58357 c -0.82271,0.236734 -2.59851,0.631717 -3.9462,0.877766 -1.34771,0.246052 -3.01746,0.647446 -3.71059,0.891985 -0.69312,0.244549 -3.02341,0.639912 -5.1784,0.878606 -4.37541,0.484609 -10.89098,0.238652 -14.68831,-0.554434 -1.1518,-0.240572 -3.13483,-0.580694 -4.40676,-0.755843 l -2.3126,-0.318451 -4.71787,2.265876 c -8.71477,4.185472 -14.68323,6.36894 -22.06963,8.073835 -6.40755,1.478965 -6.10092,1.328854 -8.68623,4.2525 -3.30343,3.735748 -12.79251,18.147076 -15.01005,22.796143 -7.07284,14.828192 -16.20495,21.000243 -40.9241,27.659033 -12.59056,3.39162 -15.77282,4.35185 -17.9501,5.41633 -3.95984,1.93598 -4.16806,2.57778 -0.53543,1.65029 3.38546,-0.86438 10.84229,-2.03726 16.15603,-2.54116 3.59742,-0.34115 4.85153,-0.35754 5.98336,-0.0782 0.7876,0.1944 1.39414,0.48807 1.34787,0.65261 -0.0462,0.16454 -1.86369,1.04348 -4.03877,1.9532 -3.88084,1.62316 -8.1719,3.97371 -11.13372,6.09884 -0.8222,0.58993 -1.33604,1.07259 -1.14188,1.07259 0.1942,0 2.6843,-0.81418 5.53367,-1.80929 6.8543,-2.39382 13.52281,-4.39936 20.28863,-6.1018 6.33223,-1.59333 7.178,-1.84605 12.18632,-3.64124 3.65702,-1.31083 4.65019,-1.56266 4.10342,-1.04048 -0.1564,0.14931 -3.3133,1.66022 -7.0155,3.35762 -11.64437,5.33874 -25.5662,14.33976 -28.50954,18.43253 -0.50207,0.69816 -0.85543,1.32683 -0.7852,1.39705 0.0702,0.0702 1.33888,-0.80731 2.81927,-1.95008 1.48035,-1.14276 3.74137,-2.60827 5.02447,-3.25669 1.28308,-0.64841 2.72366,-1.45719 3.20126,-1.79727 4.01928,-2.86198 19.12993,-8.31925 22.21247,-8.02213 0.96821,0.0933 0.94494,0.12328 -4.26191,5.47973 -4.98754,5.13086 -8.97506,9.91708 -8.97506,10.77277 0,0.21804 -0.47117,1.37964 -1.04708,2.58134 -1.11829,2.33349 -1.41049,3.60945 -0.53661,2.34314 2.56572,-3.71783 10.49286,-12.05724 14.81272,-15.58311 6.91015,-5.6401 20.87617,-13.59257 20.87617,-11.88724 0,0.50482 -1.37742,2.89222 -5.28148,9.15414 -4.07735,6.53985 -6.32061,10.92704 -7.80158,15.25782 -1.00357,2.93476 -1.10103,3.5093 -1.11362,6.56559 -0.016,3.99122 0.47662,5.11002 1.01014,2.292 1.13978,-6.02032 2.75694,-9.8992 6.53038,-15.66353 7.50908,-11.47096 22.33834,-25.11453 35.55533,-32.71245 2.39166,-1.374864 4.60769,-1.878769 4.60769,-1.047729 0,0.18974 -0.21717,2.239619 -0.4826,4.555259 -0.50804,4.43222 -0.47444,10.98586 0.0612,11.93025 0.22549,0.39754 0.31571,0.053 0.3698,-1.41204 0.1962,-5.31502 3.68085,-13.30486 7.78169,-17.842569 1.17202,-1.296857 2.18542,-2.050185 3.80762,-2.830428 2.40466,-1.156603 2.31178,-1.014512 3.1164,-4.767617 1.07695,-5.023399 2.66926,-9.990231 4.55565,-14.210497 3.39255,-7.589827 6.5033,-12.048265 12.61117,-18.074592 4.24949,-4.192758 6.10675,-5.704945 11.1846,-9.106431 1.52203,-1.019554 2.7673,-1.91756 2.7673,-1.995591 0,-0.220123 -0.61672,-0.126123 -2.24375,0.34202 z m 18.34072,5.769952 c -2.6506,1.80354 -3.52791,2.199007 -9.47392,4.270616 -4.65297,1.621083 -7.73711,2.236275 -13.35433,2.663772 -5.4619,0.415676 -5.73313,0.520394 -7.8575,3.033646 -1.50516,1.780687 -4.06688,5.888102 -4.41548,7.079684 -0.1938,0.662746 -0.14723,0.699551 0.64698,0.509346 0.47076,-0.112738 2.62394,-0.282962 4.78487,-0.378231 4.85512,-0.214063 7.3772,0.274008 11.12294,2.152503 4.13078,2.071594 6.03952,4.507567 6.03952,7.707716 0,2.118389 -0.48979,3.130648 -2.18814,4.522339 -1.90975,1.564887 -3.91225,2.348883 -6.41297,2.510763 -3.73814,0.241991 -2.36646,0.553486 2.24377,0.509546 4.70277,-0.04485 4.31002,0.03099 12.34069,-2.381706 2.12431,-0.638203 4.69091,-1.191843 5.94191,-1.281723 l 2.20229,-0.1582 -0.22086,0.714604 c -1.04015,3.366242 -4.98017,6.31147 -13.18623,9.856868 -4.44066,1.91857 -4.45425,1.927406 -3.11385,2.025939 2.095,0.154 6.80533,-0.522219 9.21236,-1.322553 3.25766,-1.083144 5.37578,-2.248054 10.90578,-5.997891 5.20579,-3.529967 6.20205,-3.931057 6.83348,-2.751166 0.54766,1.023306 0.1838,6.325197 -0.57997,8.456511 -1.38226,3.85598 -4.45934,7.691561 -8.53651,10.640771 -1.46792,1.06183 -2.10406,1.68208 -1.79352,1.74876 0.65037,0.13965 4.39694,-1.74499 6.26498,-3.15146 1.98245,-1.49261 9.35765,-7.906883 12.97908,-11.288049 5.4424,-5.081273 7.19297,-5.550687 8.12745,-2.179407 0.45409,1.638136 -0.0306,5.684288 -1.10048,9.185959 -1.03565,3.389787 -3.97551,9.369097 -5.49983,11.186057 -0.67508,0.8047 -1.17342,1.51711 -1.10742,1.58314 0.066,0.066 0.926,-0.35229 1.911,-0.92958 5.67354,-3.32519 10.70774,-12.553009 12.09947,-22.178722 0.36018,-2.491164 0.37658,-2.525131 1.21754,-2.525131 3.18958,0 6.4413,5.119805 6.5423,10.300812 0.02,0.998526 0.13246,2.21938 0.25063,2.713006 l 0.21533,0.897504 0.27121,-0.897504 c 0.14923,-0.493626 0.26623,-3.320766 0.26011,-6.282539 -0.0123,-4.994172 -0.0702,-5.575855 -0.82314,-8.014209 -1.00912,-3.268097 -2.59143,-6.449093 -3.96303,-7.967314 -1.77751,-1.967488 -3.82068,-3.356156 -14.79725,-10.057122 -5.83998,-3.565184 -11.49323,-7.105007 -12.56275,-7.866299 -2.64455,-1.882389 -6.466,-5.580436 -7.38223,-7.143916 -0.41368,-0.705906 -0.90883,-1.283449 -1.10031,-1.283449 -0.1914,0 -1.51628,0.794848 -2.94401,1.766322 z"
       id="path4487"
       inkscape:connector-curvature="0" /></g></svg>