<?xml version="1.0" encoding="UTF-8" standalone="no"?>
<!-- Created with Inkscape (http://www.inkscape.org/) -->

<svg
   xmlns:dc="http://purl.org/dc/elements/1.1/"
   xmlns:cc="http://creativecommons.org/ns#"
   xmlns:rdf="http://www.w3.org/1999/02/22-rdf-syntax-ns#"
   xmlns:svg="http://www.w3.org/2000/svg"
   xmlns="http://www.w3.org/2000/svg"
   xmlns:sodipodi="http://sodipodi.sourceforge.net/DTD/sodipodi-0.dtd"
   xmlns:inkscape="http://www.inkscape.org/namespaces/inkscape"
   version="1.1"
   id="svg2"
   xml:space="preserve"
   width="630"
   height="100"
   viewBox="0 0 629.99998 100"
   sodipodi:docname="milis_yuvarlak.svg"
   inkscape:version="0.92.3 (2405546, 2018-03-11)"
   inkscape:export-filename="/home/trlinux/d_4.png"
   inkscape:export-xdpi="96"
   inkscape:export-ydpi="96"><metadata
     id="metadata8"><rdf:RDF><cc:Work
         rdf:about=""><dc:format>image/svg+xml</dc:format><dc:type
           rdf:resource="http://purl.org/dc/dcmitype/StillImage" /><dc:title /></cc:Work></rdf:RDF></metadata><defs
     id="defs6"><clipPath
       clipPathUnits="userSpaceOnUse"
       id="clipPath18"><path
         d="M 0,800 H 800 V 0 H 0 Z"
         id="path16"
         inkscape:connector-curvature="0" /></clipPath><clipPath
       clipPathUnits="userSpaceOnUse"
       id="clipPath3426"><path
         d="M 0,800 H 800 V 0 H 0 Z"
         id="path3424"
         inkscape:connector-curvature="0" /></clipPath></defs><sodipodi:namedview
     pagecolor="#ffffff"
     bordercolor="#666666"
     borderopacity="1"
     objecttolerance="10"
     gridtolerance="10"
     guidetolerance="10"
     inkscape:pageopacity="0"
     inkscape:pageshadow="2"
     inkscape:window-width="1366"
     inkscape:window-height="705"
     id="namedview4"
     showgrid="false"
     inkscape:zoom="1"
     inkscape:cx="313.3048"
     inkscape:cy="121.41497"
     inkscape:window-x="0"
     inkscape:window-y="30"
     inkscape:window-maximized="1"
     inkscape:current-layer="g10"
     showguides="false" /><g
     id="g10"
     inkscape:groupmode="layer"
     inkscape:label="14669-NPP3OF"
     transform="matrix(1.3333333,0,0,-1.3333333,0,100)"><path
       style="fill:#1a1a1a;fill-opacity:1;stroke-width:0.14958414"
       d="m 249.16219,0.15384488 c -0.0624,0.1010661 -0.11725,0.8246785 -0.1217,1.60802772 -0.007,1.2549398 -0.057,1.5170428 -0.41881,2.2046171 -0.22585,0.429187 -0.41065,0.849016 -0.41065,0.932952 0,0.08394 0.28608,0.0207 0.63573,-0.140495 1.49481,-0.689199 3.54139,-1.4873586 4.35976,-1.7002928 1.30768,-0.3402416 2.76988,-1.6194167 1.56655,-1.3704495 -0.47567,0.09841 -0.70862,0.2330748 -2.13777,1.2358037 -0.45858,0.321762 -0.75746,0.4117205 -1.36794,0.4117205 -1.26534,0 -1.9099,-0.8187534 -1.9136,-2.43074532 -0.003,-0.9934432 -0.0139,-1.0387091 -0.19156,-0.7511384 z M 229.81216,1.2617794 c 0,1.2140777 0.26742,2.0960841 1.19573,3.9437493 0.70748,1.408148 2.08993,2.954728 4.30149,4.8121943 0.67874,0.570063 1.23384,1.11727 1.23356,1.216016 -2.1e-4,0.13254 -0.6757,0.180546 -2.58033,0.1834 -1.78729,0.0028 -2.76161,0.06682 -3.1716,0.208767 l -0.59178,0.204883 1.63887,0.778465 c 3.06258,1.454724 6.32118,4.278506 6.58982,5.710486 0.2217,1.181764 -0.54689,0.956053 -2.07064,-0.608093 -1.13977,-1.169966 -1.66513,-1.434328 -2.85393,-1.436055 -0.81802,-0.0014 -2.4938,-0.606433 -4.13994,-1.495208 -2.13562,-1.153056 -4.2045,-2.114147 -4.74214,-2.202943 -0.5487,-0.09062 -1.49308,0.393057 -2.18124,1.117157 l -0.41646,0.438214 0.60605,0.419991 c 0.73761,0.511162 1.68691,1.537851 1.58076,1.709608 -0.18879,0.305469 -1.52026,0.472687 -2.99338,0.375949 l -1.52281,-0.100006 -0.5395,0.630283 c -0.29673,0.346656 -0.72954,0.995819 -0.96178,1.442579 -0.34107,0.656081 -0.38303,0.836877 -0.2182,0.940127 0.11223,0.07031 0.93845,0.212428 1.83602,0.315811 1.55315,0.178896 1.62739,0.203237 1.53795,0.504149 -0.27372,0.920963 -0.62613,1.166055 -2.60575,1.812264 -2.21142,0.721871 -3.12929,1.288633 -3.8992,2.407653 l -0.46696,0.678703 1.46864,-0.107809 1.46864,-0.107809 -0.23481,0.359518 c -0.23047,0.352842 -0.88548,0.874956 -3.41823,2.724669 -1.48015,1.080984 -2.16364,1.910577 -2.30562,2.798465 -0.0559,0.349421 -0.0723,0.664583 -0.0366,0.700365 0.0358,0.03576 0.37973,-0.17515 0.76434,-0.468726 0.3846,-0.293576 0.78294,-0.533778 0.88519,-0.533778 0.10224,0 0.54996,-0.271627 0.99495,-0.603622 0.97685,-0.72883 1.39496,-0.928952 7.10214,-3.399302 5.3332,-2.308472 7.919,-3.28288 10.84087,-4.085154 5.10434,-1.401539 6.81158,-1.525633 10.09693,-0.733916 2.04097,0.491839 2.17588,0.50473 5.31023,0.507437 2.73841,0.0025 3.47156,-0.04739 4.93628,-0.33495 1.9219,-0.377322 3.35811,-0.756898 3.25479,-0.860211 -0.0666,-0.06657 -3.29478,-0.428951 -5.46116,-0.613026 -0.59646,-0.05068 -1.08448,-0.13802 -1.08448,-0.194072 0,-0.291104 1.55009,-1.375273 3.31309,-2.317266 l 1.20782,-0.645346 -1.40035,-0.700927 c -0.77019,-0.385499 -1.63594,-0.841155 -1.92389,-1.012562 -0.59072,-0.351637 -1.49584,-1.160786 -1.49584,-1.337252 0,-0.06402 0.21876,-0.232844 0.48615,-0.375162 0.40445,-0.215273 1.01897,-0.268979 3.65662,-0.319572 2.8736,-0.05512 3.19443,-0.08726 3.42622,-0.343418 0.32727,-0.361623 0.83018,-0.35722 1.89367,0.01658 0.46815,0.164544 1.03797,0.298795 1.26628,0.298333 0.58129,-0.0014 1.53697,-0.284051 1.53697,-0.454951 0,-0.07841 -0.0524,-0.142551 -0.11656,-0.142551 -0.0641,0 -0.3762,-0.2522 -0.69355,-0.560442 l -0.577,-0.560437 0.0961,-2.1694703 c 0.0529,-1.193211 0.13825,-2.691147 0.18967,-3.328747 l 0.0936,-1.159279 h -0.93727 -0.93728 l 0.075,-1.047088 c 0.0412,-0.5759006 0.0462,-1.0470935 0.0111,-1.0470935 -0.0351,0 -0.74969,0.4926824 -1.58806,1.0948435 -0.83837,0.602158 -2.2399,1.578003 -3.11452,2.168539 l -1.59023,1.073697 -0.90434,-0.09451 -0.90434,-0.09453 -1.20252,2.401514 c -1.12607,2.2488223 -1.51445,2.8652603 -1.51015,2.3969353 8.3e-4,-0.107698 0.20293,-1.202525 0.44875,-2.4329483 0.63571,-3.181915 0.6363,-3.178813 -0.48964,-2.604399 -0.34404,0.175515 -0.81254,0.372751 -1.04114,0.43831 -0.41264,0.118338 -0.41562,0.114152 -0.41562,-0.588244 v -0.707443 l -0.48615,0.056 c -0.66156,0.07619 -3.03409,-0.4247 -5.89127,-1.243764 -4.74639,-1.3606297 -7.30257,-2.5431755 -8.9924,-4.16007732 l -0.63569,-0.6082921 z m 29.98145,0.8179522 c -0.0111,1.7516641 -10e-4,1.7692341 0.77956,1.4722139 0.22819,-0.086751 1.50172,-0.2199279 2.8301,-0.2959439 3.35253,-0.1918481 3.62014,-0.3510044 0.94793,-0.5637801 -1.18474,-0.094337 -2.40832,-0.2442354 -2.71909,-0.3331034 -0.65912,-0.1885045 -1.60292,-0.9641313 -1.60623,-1.3200483 -10e-4,-0.13544942 -0.0517,-0.32345332 -0.11225,-0.41778212 -0.0604,-0.094329 -0.11447,0.56196932 -0.12003,1.45844392 z m 7.02242,6.2125581 c 0.27359,1.561918 0.28248,1.9907603 0.0487,2.3476393 -0.27058,0.412951 -1.04295,0.618018 -1.46897,0.390015 -0.23944,-0.128145 -0.27419,-0.252281 -0.19253,-0.6876 0.0947,-0.5050533 0.0841,-0.5229043 -0.21569,-0.3624483 -0.62179,0.3327723 -0.75516,0.8983723 -0.40787,1.7295843 l 0.21351,0.510979 0.62581,-0.245826 c 0.58589,-0.230141 0.67345,-0.228912 1.37235,0.01933 0.74186,0.263482 0.74796,0.263098 0.97525,-0.06138 0.33962,-0.484879 1.10666,-0.743677 2.20419,-0.743677 1.12167,0 1.16883,-0.07771 0.66182,-1.090443 -0.66526,-1.3287803 -1.69584,-2.0824813 -3.11011,-2.2745323 l -0.80766,-0.109687 z m 2.09349,4.7151143 c -0.17494,0.192754 -0.50572,0.65337 -0.73505,1.023588 -0.53978,0.871391 -0.77052,1.036559 -1.45611,1.042334 -0.60866,0.0051 -0.78461,-0.231528 -0.9623,-1.294325 l -0.0797,-0.476369 -0.60086,0.397635 -0.60087,0.39763 -0.49824,-0.576375 -0.49825,-0.576389 -0.82219,0.751437 c -1.2889,1.177981 -2.53962,1.472876 -4.27325,1.007553 -1.2452,-0.334227 -1.44272,-0.303029 -1.55235,0.245164 l -0.0939,0.469535 -0.78489,-0.09528 c -0.43169,-0.05241 -1.35706,-0.129479 -2.05637,-0.17127 l -1.27147,-0.07599 1.19668,0.591126 c 0.65816,0.325122 1.70153,0.773365 2.31856,0.996102 0.61704,0.22273 1.14829,0.42669 1.18059,0.453243 0.17659,0.145197 -0.46129,0.549011 -1.74908,1.107275 -0.79799,0.34593 -1.54946,0.721993 -1.66994,0.835688 -0.18797,0.177412 -0.1032,0.20691 0.59834,0.20807 1.55029,0.0028 6.42348,1.320218 7.23053,1.955043 0.69891,0.549768 0.53563,0.939417 -0.69156,1.650351 -1.43514,0.831398 -5.13585,3.296752 -5.79639,3.861465 l -0.52354,0.447589 0.83264,0.0061 c 1.75029,0.0128 4.05553,-0.605125 6.90643,-1.851222 3.42097,-1.495263 5.39521,-2.786071 7.43475,-4.861035 1.20736,-1.228345 1.26688,-1.268092 1.36316,-0.910453 0.0922,0.342494 0.13534,0.300294 0.51318,-0.501616 0.3116,-0.661435 0.44979,-1.265082 0.565,-2.468141 0.17742,-1.85256 0.036,-2.607942 -0.62718,-3.350155 -0.38419,-0.429995 -0.52004,-0.479765 -1.45109,-0.531582 -0.9258,-0.05153 -1.05863,-0.02259 -1.3453,0.29329 z m -2.29964,0.500047 c 0,0.760938 0.24063,0.881256 0.74792,0.373957 0.30437,-0.30437 0.4176,-0.689184 0.15503,-0.526912 -0.0793,0.04899 -0.2812,-0.04801 -0.44875,-0.215553 -0.16753,-0.167541 -0.33828,-0.304623 -0.37941,-0.304623 -0.0412,0 -0.0748,0.302909 -0.0748,0.673131 z m -9.49861,9.291784 c -0.41135,0.118367 -1.29925,0.315858 -1.9731,0.438883 -0.67385,0.123026 -1.50873,0.323723 -1.85529,0.445992 -0.34656,0.122275 -1.51171,0.319956 -2.5892,0.439303 -2.18771,0.242305 -5.44549,0.119326 -7.34415,-0.277217 -0.5759,-0.120286 -1.56742,-0.290347 -2.20339,-0.377921 l -1.1563,-0.159226 -2.35893,1.132938 c -4.35738,2.092736 -7.34161,3.18447 -11.03481,4.036917 -3.20378,0.739483 -3.05046,0.664427 -4.34312,2.12625 -1.65171,1.867874 -6.39625,9.073537 -7.50502,11.39807 -3.53642,7.414096 -8.10248,10.500122 -20.46205,13.829518 -6.29528,1.69581 -7.88641,2.175923 -8.97505,2.708164 -1.97992,0.967987 -2.08403,1.288889 -0.26771,0.825144 1.69273,-0.432193 5.42114,-1.01863 8.07801,-1.270583 1.79871,-0.170573 2.42576,-0.178766 2.99168,-0.03909 0.3938,0.0972 0.69707,0.244033 0.67394,0.326306 -0.0231,0.08227 -0.93185,0.52174 -2.01939,0.976598 -1.94042,0.811579 -4.08595,1.986856 -5.56686,3.049422 -0.4111,0.294962 -0.66802,0.536293 -0.57094,0.536293 0.0971,0 1.34215,-0.407091 2.76683,-0.904647 3.42716,-1.196905 6.76141,-2.199679 10.14432,-3.050899 3.16611,-0.796665 3.589,-0.923022 6.09316,-1.82062 1.82851,-0.655411 2.32509,-0.781327 2.05171,-0.520237 -0.0782,0.07465 -1.65665,0.830107 -3.50775,1.678809 -5.82218,2.669367 -12.7831,7.169881 -14.25477,9.216264 -0.25104,0.349078 -0.42771,0.663414 -0.3926,0.698526 0.0351,0.03511 0.66944,-0.403655 1.40963,-0.975039 0.74018,-0.571382 1.87069,-1.304139 2.51224,-1.628345 0.64154,-0.324208 1.36183,-0.728595 1.60063,-0.898637 2.00964,-1.430992 9.56496,-4.159626 11.10623,-4.011063 0.48411,0.04667 0.47247,0.06164 -2.13095,2.739864 -2.49377,2.565429 -4.48753,4.958537 -4.48753,5.386386 0,0.109019 -0.23559,0.689816 -0.52354,1.290666 -0.55915,1.166745 -0.70525,1.804726 -0.26831,1.171572 1.28286,-1.858914 5.24643,-6.02862 7.40636,-7.791555 3.45508,-2.820047 10.43809,-6.796286 10.43809,-5.943621 0,0.25241 -0.68871,1.446114 -2.64074,4.577069 -2.03868,3.269926 -3.16031,5.463523 -3.90079,7.628911 -0.50179,1.467381 -0.55052,1.754649 -0.55681,3.282794 -0.008,1.99561 0.23831,2.555009 0.50507,1.146004 0.56989,-3.01016 1.37847,-4.949605 3.26519,-7.831765 3.75454,-5.735481 11.16917,-12.557265 17.77766,-16.356223 1.19583,-0.687435 2.30385,-0.939387 2.30385,-0.523867 0,0.09487 -0.10859,1.11981 -0.2413,2.277631 -0.25403,2.216106 -0.23723,5.492926 0.0306,5.965122 0.11274,0.198772 0.15785,0.02651 0.1849,-0.706019 0.0981,-2.657512 1.84042,-6.652427 3.89084,-8.921284 0.58601,-0.648428 1.09271,-1.025092 1.90381,-1.415214 1.20233,-0.578301 1.15589,-0.507256 1.5582,-2.383808 0.53848,-2.511699 1.33463,-4.995115 2.27782,-7.105248 1.69628,-3.794913 3.25166,-6.024132 6.30559,-9.037295 2.12474,-2.096379 3.05337,-2.852472 5.5923,-4.553215 0.76101,-0.509777 1.38365,-0.95878 1.38365,-0.997795 0,-0.110062 -0.30836,-0.06306 -1.12188,0.17101 z m 9.17036,2.884976 c -1.3253,0.90177 -1.76395,1.099503 -4.73696,2.135307 -2.32648,0.810542 -3.86855,1.118138 -6.67716,1.331886 -2.73095,0.207838 -2.86657,0.260197 -3.92875,1.516823 -0.75258,0.890343 -2.03344,2.944051 -2.20774,3.539842 -0.0969,0.331373 -0.0736,0.349775 0.32349,0.254673 0.23538,-0.05637 1.31197,-0.141481 2.39243,-0.189116 2.42756,-0.107031 3.6886,0.137004 5.56147,1.076252 2.06539,1.035797 3.01976,2.253783 3.01976,3.853857 0,1.059195 -0.24489,1.565324 -1.09407,2.261169 -0.95487,0.782444 -1.95612,1.174442 -3.20648,1.255382 -1.86907,0.120995 -1.18323,0.276743 1.12188,0.254773 2.35139,-0.02242 2.15501,0.01549 6.17035,-1.190853 1.06215,-0.319102 2.34545,-0.595922 2.97095,-0.640862 l 1.10115,-0.0791 -0.11043,0.357303 c -0.52008,1.68312 -2.49009,3.155734 -6.59312,4.928433 -2.22033,0.959285 -2.22712,0.963703 -1.55692,1.012969 1.0475,0.077 3.40266,-0.261109 4.60618,-0.661276 1.62883,-0.541572 2.68789,-1.124027 5.45289,-2.998945 2.60289,-1.764984 3.10102,-1.965528 3.41674,-1.375583 0.27383,0.511653 0.0919,3.162598 -0.28999,4.228255 -0.69113,1.92799 -2.22967,3.845781 -4.26825,5.320384 -0.73396,0.530917 -1.05203,0.841039 -0.89676,0.874382 0.32518,0.06982 2.19847,-0.872498 3.13249,-1.575733 0.99122,-0.746301 4.67882,-3.953439 6.48954,-5.644022 2.7212,-2.540636 3.59648,-2.775343 4.06372,-1.089703 0.22705,0.819068 -0.0153,2.842144 -0.55024,4.592979 -0.51782,1.694892 -1.98775,4.68455 -2.74991,5.593028 -0.33754,0.402351 -0.58671,0.758554 -0.55371,0.791569 0.033,0.03301 0.463,-0.176145 0.9555,-0.464791 2.83677,-1.662592 5.35387,-6.276502 6.04973,-11.089358 0.18009,-1.245582 0.18829,-1.262565 0.60877,-1.262565 1.59479,0 3.22065,2.559902 3.27115,5.150405 0.01,0.499263 0.0662,1.10969 0.12532,1.356503 l 0.10766,0.448752 0.13561,-0.448752 c 0.0746,-0.246813 0.13311,-1.660383 0.13005,-3.141269 -0.006,-2.497086 -0.0351,-2.787928 -0.41157,-4.007105 -0.50456,-1.634048 -1.29571,-3.224546 -1.98151,-3.983656 -0.88876,-0.983744 -1.91034,-1.678078 -7.39863,-5.028561 -2.91999,-1.782591 -5.74661,-3.552503 -6.28137,-3.933149 -1.32228,-0.941194 -3.233,-2.790217 -3.69112,-3.571957 -0.20684,-0.352953 -0.45441,-0.641725 -0.55015,-0.641725 -0.0957,0 -0.75814,0.397424 -1.47201,0.883161 z"
       id="path4487"
       inkscape:connector-curvature="0" /></g></svg>