<?xml version="1.0" encoding="UTF-8" standalone="no"?>
<!-- Created with Inkscape (http://www.inkscape.org/) -->

<svg
   xmlns:dc="http://purl.org/dc/elements/1.1/"
   xmlns:cc="http://creativecommons.org/ns#"
   xmlns:rdf="http://www.w3.org/1999/02/22-rdf-syntax-ns#"
   xmlns:svg="http://www.w3.org/2000/svg"
   xmlns="http://www.w3.org/2000/svg"
   xmlns:sodipodi="http://sodipodi.sourceforge.net/DTD/sodipodi-0.dtd"
   xmlns:inkscape="http://www.inkscape.org/namespaces/inkscape"
   version="1.1"
   id="svg2"
   xml:space="preserve"
   width="630"
   height="130"
   viewBox="0 0 629.99998 130"
   sodipodi:docname="milis_yuvarlak.svg"
   inkscape:version="0.92.4 (5da689c313, 2019-01-14)"
   inkscape:export-filename="/home/trlinux/d_4.png"
   inkscape:export-xdpi="96"
   inkscape:export-ydpi="96"><metadata
     id="metadata8"><rdf:RDF><cc:Work
         rdf:about=""><dc:format>image/svg+xml</dc:format><dc:type
           rdf:resource="http://purl.org/dc/dcmitype/StillImage" /><dc:title /></cc:Work></rdf:RDF></metadata><defs
     id="defs6"><clipPath
       clipPathUnits="userSpaceOnUse"
       id="clipPath18"><path
         d="M 0,800 H 800 V 0 H 0 Z"
         id="path16"
         inkscape:connector-curvature="0" /></clipPath><clipPath
       clipPathUnits="userSpaceOnUse"
       id="clipPath3426"><path
         d="M 0,800 H 800 V 0 H 0 Z"
         id="path3424"
         inkscape:connector-curvature="0" /></clipPath></defs><sodipodi:namedview
     pagecolor="#ffffff"
     bordercolor="#666666"
     borderopacity="1"
     objecttolerance="10"
     gridtolerance="10"
     guidetolerance="10"
     inkscape:pageopacity="0"
     inkscape:pageshadow="2"
     inkscape:window-width="1920"
     inkscape:window-height="1025"
     id="namedview4"
     showgrid="false"
     inkscape:zoom="1"
     inkscape:cx="133.8048"
     inkscape:cy="121.41497"
     inkscape:window-x="0"
     inkscape:window-y="0"
     inkscape:window-maximized="1"
     inkscape:current-layer="g10"
     showguides="false" /><g
     id="g10"
     inkscape:groupmode="layer"
     inkscape:label="14669-NPP3OF"
     transform="matrix(1.3333333,0,0,-1.3333333,0,130)"><path
       style="fill:#cfd0c2;fill-opacity:1;stroke-width:0.19445939"
       d="m 253.78585,0.19999836 c -0.0811,0.13138593 -0.15242,1.07208214 -0.15821,2.09043614 -0.009,1.6314219 -0.0741,1.9721558 -0.54445,2.8660024 -0.29361,0.5579432 -0.53385,1.1037209 -0.53385,1.2128377 0,0.109122 0.37191,0.02691 0.82645,-0.1826435 1.94326,-0.8959588 4.60381,-1.9335663 5.66769,-2.2103808 1.69999,-0.4423141 3.60085,-2.1052418 2.03652,-1.7815844 -0.61837,0.127933 -0.92121,0.3029972 -2.7791,1.6065449 -0.59616,0.4182906 -0.9847,0.5352367 -1.77833,0.5352367 -1.64494,0 -2.48287,-1.0643795 -2.48768,-3.1599692 -0.004,-1.2914762 -0.0181,-1.35032188 -0.24903,-0.97647994 z M 228.63081,1.6403133 c 0,1.5783011 0.34765,2.7249095 1.55445,5.1268744 0.91972,1.8305925 2.71691,3.8411463 5.59194,6.2558533 0.88236,0.741082 1.60399,1.452451 1.60363,1.580821 -2.8e-4,0.172302 -0.87841,0.234709 -3.35443,0.23842 -2.32348,0.0036 -3.5901,0.08687 -4.12308,0.271397 l -0.76932,0.266348 2.13053,1.012004 c 3.98136,1.891142 8.21754,5.562058 8.56677,7.423632 0.28821,1.536294 -0.71096,1.242869 -2.69183,-0.79052 -1.4817,-1.520956 -2.16467,-1.864627 -3.71011,-1.866872 -1.06343,-0.0018 -3.24194,-0.788363 -5.38192,-1.943771 -2.77631,-1.498972 -5.46585,-2.748391 -6.16479,-2.863826 -0.71331,-0.117806 -1.941,0.510974 -2.83561,1.452305 l -0.5414,0.569678 0.78787,0.545988 c 0.95889,0.664511 2.19298,1.999207 2.05499,2.222491 -0.24543,0.397109 -1.97634,0.614493 -3.8914,0.488733 l -1.97965,-0.130007 -0.70135,0.819367 c -0.38575,0.450653 -0.9484,1.294565 -1.25031,1.875353 -0.4434,0.852906 -0.49794,1.08794 -0.28366,1.222165 0.14589,0.0914 1.21998,0.276157 2.38682,0.410555 2.0191,0.232565 2.11561,0.264208 1.99934,0.655394 -0.35584,1.197252 -0.81397,1.515871 -3.38748,2.355943 -2.87484,0.938432 -4.06808,1.675223 -5.06896,3.129949 l -0.60705,0.882314 1.90924,-0.140152 1.90923,-0.140151 -0.30526,0.467373 c -0.29961,0.458695 -1.15112,1.137443 -4.4437,3.54207 -1.92419,1.405279 -2.81273,2.48375 -2.9973,3.638005 -0.0727,0.454247 -0.094,0.863958 -0.0476,0.910474 0.0465,0.04649 0.49365,-0.227695 0.99364,-0.609344 0.49998,-0.381648 1.01782,-0.693911 1.15075,-0.693911 0.13291,0 0.71495,-0.353115 1.29343,-0.784709 1.26991,-0.947479 1.81345,-1.207637 9.23279,-4.419093 6.93316,-3.001013 10.2947,-4.267744 14.09313,-5.3107 6.63564,-1.822001 8.85505,-1.983323 13.12601,-0.954091 2.65326,0.639391 2.82864,0.656149 6.9033,0.659668 3.55993,0.0032 4.51303,-0.06161 6.41716,-0.435435 2.49847,-0.490519 4.36554,-0.983967 4.23123,-1.118274 -0.0866,-0.08654 -4.28322,-0.557637 -7.09951,-0.796934 -0.7754,-0.06588 -1.40982,-0.179426 -1.40982,-0.252294 0,-0.378435 2.01511,-1.787855 4.30701,-3.012446 l 1.57017,-0.83895 -1.82046,-0.911205 c -1.00124,-0.501148 -2.12672,-1.093501 -2.50105,-1.31633 -0.76794,-0.457129 -1.9446,-1.509022 -1.9446,-1.738428 0,-0.08323 0.28439,-0.302697 0.632,-0.487711 0.52578,-0.279855 1.32466,-0.349672 4.75361,-0.415443 3.73568,-0.07166 4.15276,-0.113438 4.45408,-0.446444 0.42545,-0.47011 1.07924,-0.464386 2.46177,0.02155 0.6086,0.213907 1.34936,0.388434 1.64617,0.387833 0.75567,-0.0018 1.99806,-0.369266 1.99806,-0.591436 0,-0.101933 -0.0681,-0.185317 -0.15153,-0.185317 -0.0833,0 -0.48906,-0.32786 -0.90161,-0.728574 l -0.7501,-0.728568 0.12493,-2.820312 c 0.0688,-1.551174 0.17972,-3.4984912 0.24657,-4.3273713 l 0.12168,-1.5070628 h -1.21845 -1.21847 l 0.0975,-1.3612145 c 0.0536,-0.7486708 0.0601,-1.3612216 0.0144,-1.3612216 -0.0456,0 -0.9746,0.6404872 -2.06448,1.4232967 -1.08988,0.7828054 -2.91187,2.051404 -4.04887,2.8191008 l -2.0673,1.3958062 -1.17564,-0.122863 -1.17565,-0.122889 -1.56327,3.1219685 c -1.46389,2.923469 -1.96879,3.724839 -1.9632,3.116016 10e-4,-0.140007 0.26381,-1.563283 0.58338,-3.162833 0.82642,-4.1364898 0.82719,-4.1324572 -0.63653,-3.3857189 -0.44726,0.2281695 -1.05631,0.4845763 -1.35349,0.569803 -0.53643,0.1538394 -0.5403,0.1483976 -0.5403,-0.7647172 v -0.919676 l -0.632,0.0728 c -0.86003,0.099047 -3.94431,-0.55211 -7.65865,-1.6168933 -6.17031,-1.7688187 -9.49334,-3.3061283 -11.69012,-5.4081008 l -0.8264,-0.79077982 z m 38.97589,1.0633379 c -0.0144,2.2771635 -10e-4,2.3000045 1.01343,1.9138782 0.29664,-0.1127763 1.95223,-0.2859062 3.67913,-0.3847271 4.35829,-0.2494025 4.70618,-0.4563057 1.23231,-0.7329141 -1.54017,-0.1226381 -3.13082,-0.3175061 -3.53482,-0.4330345 -0.85686,-0.2450558 -2.0838,-1.2533707 -2.0881,-1.7160629 -0.001,-0.1760842 -0.0672,-0.42048932 -0.14593,-0.54311677 -0.0785,-0.1226277 -0.14881,0.73056017 -0.15603,1.89597717 z m 9.12915,8.0763258 c 0.35566,2.030494 0.36722,2.587989 0.0633,3.051932 -0.35176,0.536836 -1.35584,0.803423 -1.90967,0.507019 -0.31127,-0.166588 -0.35644,-0.327965 -0.25028,-0.89388 0.12311,-0.656569 0.10933,-0.679776 -0.2804,-0.471183 -0.80833,0.432604 -0.98171,1.167884 -0.53023,2.24846 l 0.27756,0.664273 0.81355,-0.319574 c 0.76166,-0.299183 0.87549,-0.297586 1.78406,0.02513 0.96442,0.342526 0.97235,0.342027 1.26782,-0.07979 0.44151,-0.630343 1.43866,-0.96678 2.86545,-0.96678 1.45817,0 1.51948,-0.101023 0.86037,-1.417576 -0.86484,-1.727415 -2.2046,-2.707226 -4.04315,-2.956892 l -1.04995,-0.142594 z m 2.72153,6.129649 c -0.22742,0.25058 -0.65743,0.849381 -0.95556,1.330665 -0.70172,1.132808 -1.00168,1.347527 -1.89295,1.355034 -0.79125,0.0066 -1.01999,-0.300986 -1.25099,-1.682623 l -0.10361,-0.619279 -0.78111,0.516925 -0.78113,0.516919 -0.64772,-0.749287 -0.64772,-0.749306 -1.06885,0.976868 c -1.67557,1.531376 -3.30151,1.914739 -5.55522,1.309819 -1.61876,-0.434495 -1.87554,-0.393938 -2.01806,0.318713 l -0.12207,0.610396 -1.02036,-0.123864 c -0.56119,-0.06813 -1.76417,-0.168323 -2.67328,-0.222651 l -1.65291,-0.09879 1.55569,0.768464 c 0.8556,0.422658 2.21198,1.005374 3.01412,1.294932 0.80216,0.289549 1.49278,0.554697 1.53477,0.589216 0.22957,0.188756 -0.59968,0.713715 -2.2738,1.439458 -1.03739,0.449709 -2.0143,0.938591 -2.17093,1.086394 -0.24436,0.230636 -0.13416,0.268983 0.77785,0.270491 2.01537,0.0036 8.35052,1.716284 9.39969,2.541556 0.90858,0.714699 0.69631,1.221243 -0.89903,2.145457 -1.86568,1.080817 -6.67661,4.285778 -7.53531,5.019905 l -0.6806,0.581865 1.08243,0.0079 c 2.27538,0.01664 5.27219,-0.786662 8.97836,-2.406588 4.44726,-1.943842 7.01377,-3.621893 9.66518,-6.319346 1.56956,-1.596849 1.64694,-1.64852 1.7721,-1.183589 0.11986,0.445242 0.17595,0.390382 0.66714,-0.652101 0.40508,-0.859866 0.58472,-1.644607 0.7345,-3.208584 0.23064,-2.408328 0.0468,-3.390324 -0.81534,-4.355201 -0.49944,-0.558994 -0.67605,-0.623695 -1.88641,-0.691057 -1.20354,-0.06699 -1.37622,-0.02937 -1.74889,0.381277 z m -2.98953,0.650061 c 0,0.98922 0.31282,1.145633 0.9723,0.486145 0.39568,-0.395681 0.54288,-0.89594 0.20154,-0.684986 -0.10309,0.06369 -0.36556,-0.06241 -0.58338,-0.280219 -0.21779,-0.217803 -0.43976,-0.39601 -0.49323,-0.39601 -0.0536,0 -0.0972,0.393782 -0.0972,0.87507 z m -12.34819,12.07932 c -0.53476,0.153877 -1.68903,0.410616 -2.56503,0.570548 -0.87601,0.159934 -1.96135,0.42084 -2.41188,0.57979 -0.45053,0.158957 -1.96522,0.415943 -3.36596,0.571094 -2.84402,0.314996 -7.07914,0.155124 -9.5474,-0.360382 -0.74867,-0.156372 -2.03764,-0.377451 -2.8644,-0.491298 l -1.50319,-0.206993 -3.06661,1.472819 c -5.6646,2.720557 -9.5441,4.139811 -14.34526,5.247993 -4.16491,0.961327 -3.9656,0.863755 -5.64605,2.764125 -2.14723,2.428236 -8.31513,11.795599 -9.75653,14.817492 -4.59735,9.638325 -10.53322,13.650159 -26.60067,17.978374 -8.18386,2.204553 -10.25233,2.8287 -11.66756,3.520614 -2.5739,1.258383 -2.70924,1.675555 -0.34803,1.072687 2.20055,-0.561851 7.04749,-1.324219 10.50142,-1.651758 2.33832,-0.221745 3.15349,-0.232396 3.88918,-0.05082 0.51194,0.12636 0.90619,0.317243 0.87612,0.424198 -0.03,0.106951 -1.2114,0.678262 -2.6252,1.269577 -2.52255,1.055053 -5.31174,2.582913 -7.23692,3.964249 -0.53443,0.383451 -0.86843,0.697181 -0.74222,0.697181 0.12623,0 1.74479,-0.529218 3.59688,-1.176041 4.4553,-1.555977 8.78983,-2.859583 13.18761,-3.966169 4.11595,-1.035665 4.6657,-1.199929 7.92111,-2.366806 2.37706,-0.852035 3.02262,-1.015726 2.66722,-0.676308 -0.10166,0.09705 -2.15364,1.079139 -4.56007,2.182451 -7.56884,3.470178 -16.61803,9.320846 -18.5312,11.981144 -0.32635,0.453802 -0.55603,0.862439 -0.51038,0.908084 0.0456,0.04564 0.87027,-0.524751 1.83252,-1.267551 0.96223,-0.742796 2.43189,-1.69538 3.26591,-2.116848 0.834,-0.421471 1.77038,-0.947174 2.08082,-1.168228 2.61253,-1.86029 12.43445,-5.407515 14.4381,-5.214383 0.62934,0.06067 0.61421,0.08013 -2.77024,3.561824 -3.2419,3.335058 -5.83379,6.446098 -5.83379,7.002302 0,0.141725 -0.30626,0.896761 -0.6806,1.677866 -0.72689,1.516769 -0.91682,2.346144 -0.3488,1.523044 1.66772,-2.416589 6.82036,-7.837207 9.62827,-10.129023 4.4916,-3.666061 13.56951,-8.835172 13.56951,-7.726707 0,0.328133 -0.89532,1.879948 -3.43296,5.95019 -2.65028,4.250904 -4.1084,7.10258 -5.07103,9.917585 -0.65232,1.907595 -0.71567,2.281044 -0.72385,4.267632 -0.0104,2.594293 0.3098,3.321512 0.65659,1.489805 0.74086,-3.913208 1.79201,-6.434486 4.24475,-10.181295 4.8809,-7.456125 14.51992,-16.324445 23.11096,-21.263091 1.55458,-0.893665 2.995,-1.221203 2.995,-0.681027 0,0.123331 -0.14116,1.455753 -0.31369,2.96092 -0.33023,2.880938 -0.30839,7.140805 0.0398,7.75466 0.14657,0.258403 0.20521,0.03446 0.24037,-0.917825 0.12753,-3.454766 2.39255,-8.648156 5.0581,-11.59767 0.76181,-0.842957 1.42052,-1.33262 2.47495,-1.839778 1.56303,-0.751792 1.50266,-0.659433 2.02566,-3.098951 0.70002,-3.265209 1.73502,-6.49365 2.96117,-9.236823 2.20516,-4.933387 4.22715,-7.831372 8.19726,-11.748484 2.76217,-2.725293 3.96939,-3.708214 7.26999,-5.91918 0.98932,-0.66271 1.79875,-1.246414 1.79875,-1.297134 0,-0.14308 -0.40087,-0.08198 -1.45844,0.222313 z m 11.92147,3.750469 c -1.72289,1.172301 -2.29314,1.429354 -6.15805,2.7759 -3.02443,1.053704 -5.02912,1.453579 -8.68031,1.731452 -3.55024,0.270189 -3.72654,0.338256 -5.10738,1.97187 -0.97835,1.157446 -2.64347,3.827266 -2.87006,4.601794 -0.12597,0.430785 -0.0957,0.454708 0.42054,0.331075 0.30599,-0.07328 1.70556,-0.183925 3.11016,-0.24585 3.15583,-0.139141 4.79518,0.178105 7.22991,1.399127 2.68501,1.346536 3.92569,2.929918 3.92569,5.010015 0,1.376953 -0.31836,2.034921 -1.42229,2.93952 -1.24134,1.017177 -2.54296,1.526774 -4.16843,1.631996 -2.42979,0.157294 -1.5382,0.359766 1.45845,0.331205 3.0568,-0.02915 2.80151,0.02014 8.02145,-1.548109 1.3808,-0.414832 3.04909,-0.774698 3.86224,-0.83312 l 1.43149,-0.10283 -0.14356,0.464493 c -0.6761,2.188057 -3.23711,4.102455 -8.57105,6.406964 -2.88643,1.24707 -2.89526,1.252814 -2.024,1.31686 1.36175,0.1001 4.42346,-0.339442 5.98803,-0.859659 2.11748,-0.704044 3.49426,-1.461235 7.08876,-3.898629 3.38376,-2.294479 4.03133,-2.555187 4.44176,-1.788258 0.35598,0.665149 0.11947,4.111378 -0.37698,5.496732 -0.89847,2.506387 -2.89857,4.999515 -5.54873,6.916499 -0.95415,0.690193 -1.36764,1.093351 -1.16579,1.136697 0.42274,0.09077 2.85801,-1.134247 4.07224,-2.048453 1.28859,-0.970191 6.08247,-5.139471 8.4364,-7.337229 3.53756,-3.302827 4.67543,-3.607946 5.28284,-1.416614 0.29516,1.064788 -0.0199,3.694787 -0.71531,5.970873 -0.67317,2.20336 -2.58408,6.089915 -3.57489,7.270937 -0.4388,0.523056 -0.76272,0.98612 -0.71982,1.02904 0.0429,0.04291 0.6019,-0.228989 1.24215,-0.604229 3.6878,-2.161369 6.96003,-8.159453 7.86465,-14.416166 0.23412,-1.619257 0.24478,-1.641335 0.7914,-1.641335 2.07323,0 4.18685,3.327873 4.2525,6.695527 0.013,0.649042 0.0861,1.442597 0.16291,1.763454 l 0.13996,0.583378 0.17629,-0.583378 c 0.097,-0.320857 0.17305,-2.158498 0.16907,-4.08365 -0.008,-3.246212 -0.0456,-3.624306 -0.53504,-5.209236 -0.65593,-2.124263 -1.68443,-4.19191 -2.57597,-5.178754 -1.15538,-1.278867 -2.48344,-2.181501 -9.61821,-6.537129 -3.79599,-2.317369 -7.4706,-4.618254 -8.16579,-5.113094 -1.71896,-1.223553 -4.2029,-3.627283 -4.79845,-4.643545 -0.26889,-0.458839 -0.59074,-0.834242 -0.7152,-0.834242 -0.12441,0 -0.98558,0.516651 -1.91361,1.148109 z"
       id="path4487"
       inkscape:connector-curvature="0" /></g></svg>