<?xml version="1.0" encoding="UTF-8" standalone="no"?>
<!-- Created with Inkscape (http://www.inkscape.org/) -->

<svg
   xmlns:dc="http://purl.org/dc/elements/1.1/"
   xmlns:cc="http://creativecommons.org/ns#"
   xmlns:rdf="http://www.w3.org/1999/02/22-rdf-syntax-ns#"
   xmlns:svg="http://www.w3.org/2000/svg"
   xmlns="http://www.w3.org/2000/svg"
   xmlns:sodipodi="http://sodipodi.sourceforge.net/DTD/sodipodi-0.dtd"
   xmlns:inkscape="http://www.inkscape.org/namespaces/inkscape"
   version="1.1"
   id="svg2"
   width="24"
   height="24"
   viewBox="0 0 23.999999 24"
   sodipodi:docname="milis-logo-32.svg"
   inkscape:version="0.92.4 (5da689c313, 2019-01-14)">
  <metadata
     id="metadata8">
    <rdf:RDF>
      <cc:Work
         rdf:about="">
        <dc:format>image/svg+xml</dc:format>
        <dc:type
           rdf:resource="http://purl.org/dc/dcmitype/StillImage" />
        <dc:title></dc:title>
      </cc:Work>
    </rdf:RDF>
  </metadata>
  <defs
     id="defs6" />
  <sodipodi:namedview
     pagecolor="#ffffff"
     bordercolor="#666666"
     borderopacity="1"
     objecttolerance="10"
     gridtolerance="10"
     guidetolerance="10"
     inkscape:pageopacity="0"
     inkscape:pageshadow="2"
     inkscape:window-width="1920"
     inkscape:window-height="1025"
     id="namedview4"
     showgrid="false"
     inkscape:zoom="11.238095"
     inkscape:cx="41.496961"
     inkscape:cy="10.066317"
     inkscape:window-x="0"
     inkscape:window-y="0"
     inkscape:window-maximized="1"
     inkscape:current-layer="svg2" />
  <path
     style="fill:#cfd0c2;fill-opacity:1;stroke-width:0.03441416"
     d="m 15.049091,20.231568 c -0.01437,-0.02325 -0.02697,-0.189728 -0.02801,-0.369953 -0.0016,-0.28872 -0.01311,-0.34902 -0.09635,-0.507202 -0.05196,-0.09875 -0.09448,-0.19533 -0.09448,-0.214643 0,-0.01935 0.06582,-0.0045 0.146259,0.03233 0.343904,0.158558 0.814752,0.342188 1.003031,0.391178 0.300851,0.07828 0.637254,0.37257 0.360407,0.315292 -0.109436,-0.02265 -0.163029,-0.05363 -0.491825,-0.284317 -0.105505,-0.07402 -0.174267,-0.09473 -0.314718,-0.09473 -0.29111,0 -0.4394,0.18837 -0.440252,0.55923 -5.52e-4,0.228562 -0.0031,0.238972 -0.04407,0.172815 z m -4.451776,-0.254895 c 0,-0.279323 0.06152,-0.482243 0.275095,-0.90732 0.162768,-0.32397 0.480821,-0.679785 0.989625,-1.10712 0.156156,-0.131153 0.283865,-0.257048 0.2838,-0.279765 -4.8e-5,-0.03052 -0.155455,-0.04155 -0.593644,-0.04222 -0.411195,-6.23e-4 -0.635352,-0.01537 -0.729675,-0.048 l -0.136149,-0.0471 0.377048,-0.1791 c 0.704593,-0.33468 1.454285,-0.984338 1.516091,-1.313783 0.05101,-0.271882 -0.125822,-0.21996 -0.476385,0.139898 -0.26222,0.269167 -0.383088,0.329992 -0.65659,0.33039 -0.188199,3.37e-4 -0.573738,0.139515 -0.952458,0.343995 -0.491332,0.265275 -0.9673099,0.48639 -1.0910029,0.50682 -0.1262378,0.02085 -0.3435068,-0.09043 -0.5018273,-0.257018 l -0.095814,-0.100822 0.1394303,-0.09662 c 0.1696987,-0.1176 0.3881017,-0.353805 0.363678,-0.393322 -0.043432,-0.07028 -0.3497573,-0.10875 -0.6886726,-0.08649 l -0.350346,0.02303 -0.1241205,-0.145005 c -0.068265,-0.07975 -0.1678402,-0.229103 -0.2212733,-0.331883 -0.078468,-0.150945 -0.088121,-0.19254 -0.050198,-0.216292 0.025823,-0.0162 0.2159048,-0.0489 0.4224046,-0.07268 0.357327,-0.04117 0.3744075,-0.04672 0.3538305,-0.115988 C 8.5871848,15.368388 8.5061098,15.312003 8.050667,15.16333 7.5418955,14.997257 7.3307253,14.866862 7.1535964,14.60941 l -0.1074312,-0.156143 0.3378834,0.02482 0.3378844,0.02482 -0.054023,-0.08271 C 7.614885,14.339027 7.4641926,14.218907 6.881494,13.79335 6.5409615,13.544657 6.3837138,13.353797 6.3510492,13.14952 c -0.012855,-0.08038 -0.016637,-0.152895 -0.00841,-0.16113 0.00823,-0.0083 0.087364,0.04027 0.1758492,0.107842 0.088484,0.06758 0.1801269,0.122798 0.2036508,0.122798 0.023524,0 0.1265291,0.06248 0.2289036,0.138877 0.2247402,0.167678 0.3209332,0.21372 1.6339584,0.782063 1.2269859,0.531097 1.8218918,0.755272 2.4941108,0.939855 1.174333,0.32244 1.56711,0.350993 2.322955,0.168848 0.46956,-0.113161 0.500595,-0.116123 1.221704,-0.116746 0.630012,-5.55e-4 0.798685,0.01087 1.135668,0.07706 0.442164,0.08681 0.772585,0.174135 0.748816,0.197903 -0.01531,0.0153 -0.758016,0.09868 -1.256426,0.141037 -0.137226,0.0117 -0.249502,0.03173 -0.249502,0.04462 0,0.06697 0.356621,0.316403 0.762228,0.533123 l 0.277877,0.14847 -0.322171,0.161265 c -0.177195,0.08869 -0.376372,0.193515 -0.44262,0.23295 -0.135907,0.0809 -0.344141,0.26706 -0.344141,0.307657 0,0.0147 0.05033,0.05355 0.111845,0.08631 0.09305,0.0495 0.23443,0.06187 0.841262,0.0735 0.661116,0.01267 0.734927,0.0201 0.788256,0.07901 0.07529,0.0832 0.190993,0.08218 0.435665,-0.0038 0.107706,-0.03787 0.238804,-0.06877 0.291329,-0.06863 0.133734,3.37e-4 0.353604,0.06533 0.353604,0.10467 0,0.01808 -0.01207,0.03278 -0.02681,0.03278 -0.01475,0 -0.08655,0.05805 -0.159561,0.128932 l -0.132748,0.12894 0.0221,0.499125 c 0.01216,0.274515 0.03179,0.619133 0.04364,0.765825 l 0.02154,0.266715 h -0.215634 -0.215637 l 0.01723,0.240893 c 0.0095,0.132495 0.01064,0.2409 0.0025,0.2409 -0.0081,0 -0.172476,-0.113348 -0.365355,-0.25188 -0.192882,-0.13854 -0.515326,-0.363045 -0.716546,-0.498908 l -0.365854,-0.24702 -0.208059,0.02175 -0.208058,0.02175 -0.276659,-0.55251 c -0.25907,-0.517372 -0.348422,-0.659197 -0.347433,-0.551452 1.92e-4,0.02475 0.04669,0.27666 0.103242,0.55974 0.146255,0.732052 0.14639,0.731332 -0.11265,0.599182 -0.07915,-0.04035 -0.186939,-0.08575 -0.239529,-0.100837 -0.09494,-0.02723 -0.09562,-0.02625 -0.09562,0.13533 v 0.162757 l -0.111846,-0.0129 c -0.152192,-0.01755 -0.69803,0.09771 -1.355368,0.286148 -1.091979,0.313035 -1.680069,0.585097 -2.068842,0.95709 l -0.146261,0.139942 z m 6.897698,-0.188183 c -0.0025,-0.402997 -4.32e-4,-0.40704 0.17935,-0.338707 0.0525,0.01995 0.345496,0.05063 0.651107,0.0681 0.771304,0.04417 0.832871,0.08075 0.218088,0.129705 -0.272567,0.02167 -0.554072,0.05617 -0.625568,0.07663 -0.151643,0.04335 -0.368777,0.221812 -0.36954,0.303697 -3.36e-4,0.0312 -0.0119,0.0744 -0.02581,0.09612 -0.0139,0.02168 -0.02634,-0.129292 -0.02763,-0.335535 z m 1.615616,-1.429297 c 0.06295,-0.359348 0.06499,-0.458003 0.01119,-0.540113 -0.06225,-0.095 -0.239945,-0.142185 -0.337959,-0.08973 -0.05509,0.02948 -0.06308,0.05805 -0.0443,0.158198 0.0218,0.11619 0.01936,0.1203 -0.04962,0.08338 -0.143054,-0.07656 -0.173739,-0.206685 -0.09384,-0.39792 l 0.04912,-0.117555 0.143979,0.05655 c 0.134791,0.05295 0.154937,0.05265 0.315731,-0.0045 0.170675,-0.0606 0.172081,-0.06052 0.224369,0.0141 0.07813,0.111555 0.254607,0.17109 0.507108,0.17109 0.258058,0 0.268908,0.01785 0.152261,0.250875 -0.153051,0.305707 -0.390153,0.479107 -0.715528,0.52329 l -0.185815,0.02528 z m 0.481641,-1.084785 c -0.04024,-0.04433 -0.116348,-0.150315 -0.169109,-0.235493 -0.124185,-0.200475 -0.17727,-0.238477 -0.335001,-0.239805 -0.140033,-0.0015 -0.180513,0.05325 -0.221394,0.29778 l -0.01832,0.109598 -0.138238,-0.09148 -0.138238,-0.09148 -0.114629,0.1326 -0.11463,0.132608 -0.189156,-0.172883 c -0.296532,-0.271012 -0.58428,-0.338857 -0.983127,-0.231802 -0.286477,0.0769 -0.33192,0.06975 -0.357144,-0.0564 l -0.0216,-0.108023 -0.180579,0.0219 c -0.09932,0.01207 -0.312213,0.02977 -0.4731,0.03937 l -0.29252,0.01747 0.275314,-0.135997 c 0.151422,-0.07477 0.391461,-0.177923 0.533419,-0.22917 0.141959,-0.05122 0.264185,-0.09817 0.271614,-0.104273 0.04063,-0.03337 -0.106127,-0.126307 -0.402402,-0.254745 -0.183591,-0.07959 -0.356478,-0.16611 -0.384195,-0.192262 -0.04324,-0.0408 -0.02373,-0.04763 0.137657,-0.04785 0.356668,-6.23e-4 1.477819,-0.303735 1.663494,-0.44979 0.160795,-0.12648 0.123231,-0.216128 -0.159103,-0.379688 -0.330178,-0.19128 -1.181581,-0.758468 -1.333549,-0.88839 l -0.12045,-0.102975 0.191561,-0.0015 c 0.402683,-0.003 0.93304,0.139222 1.588934,0.425902 0.787045,0.34401 1.24125,0.64098 1.710478,1.118356 0.277775,0.2826 0.291465,0.29175 0.313617,0.209467 0.02122,-0.07879 0.03115,-0.06907 0.118065,0.115403 0.07169,0.152175 0.103481,0.291052 0.129987,0.567832 0.04081,0.42621 0.0083,0.6 -0.144291,0.77076 -0.08839,0.09893 -0.119647,0.110378 -0.333849,0.122295 -0.212993,0.01185 -0.243554,0.0053 -0.309507,-0.0675 z m -0.529069,-0.115043 c 0,-0.175065 0.05536,-0.202747 0.17207,-0.08604 0.07003,0.07005 0.09608,0.158558 0.03567,0.12123 -0.01824,-0.01125 -0.0647,0.01103 -0.103242,0.04958 -0.03854,0.03855 -0.07783,0.07005 -0.08729,0.07005 -0.0095,0 -0.0172,-0.06968 -0.0172,-0.15486 z m -2.1853,-2.137725 c -0.09464,-0.02723 -0.298914,-0.07268 -0.453944,-0.100965 -0.155029,-0.02828 -0.347107,-0.07448 -0.426838,-0.102608 -0.07973,-0.02813 -0.347791,-0.07365 -0.595688,-0.10107 -0.503313,-0.05573 -1.252817,-0.02745 -1.689634,0.06375 -0.132494,0.02767 -0.36061,0.06683 -0.506923,0.08694 l -0.266025,0.03668 -0.542708,-0.260655 C 11.393656,14.162245 10.707088,13.91107 9.8574111,13.714952 9.1203313,13.544822 9.1556038,13.562095 8.8582093,13.22578 8.4782075,12.796045 7.3866506,11.138267 7.1315625,10.603472 6.3179543,8.8977461 5.2674606,8.1877591 2.4239485,7.4217761 0.97562242,7.0316331 0.60955789,6.9211731 0.35909902,6.7987211 c -0.45551033,-0.222698 -0.47946259,-0.296528 -0.0615906,-0.189833 0.38943834,0.09943 1.24721698,0.234353 1.85847078,0.292313 0.4138219,0.03923 0.558084,0.0411 0.6882836,0.009 0.090599,-0.02235 0.1603722,-0.05617 0.1550498,-0.07507 -0.00533,-0.0189 -0.2143874,-0.120037 -0.4645914,-0.224685 -0.4464249,-0.186712 -0.9400361,-0.45711 -1.280744,-0.701565 -0.094579,-0.06787 -0.1536872,-0.123382 -0.1313535,-0.123382 0.022335,0 0.3087834,0.09365 0.6365526,0.208125 0.7884707,0.27537 1.5555669,0.50607 2.3338596,0.70191 0.7284129,0.183285 0.8257037,0.212355 1.4018259,0.41886 0.4206758,0.150788 0.5349222,0.17976 0.4720263,0.119685 -0.017982,-0.01717 -0.3811373,-0.190973 -0.8070125,-0.386235 -1.3394817,-0.61413 -2.9409507,-1.649543 -3.2795302,-2.12034 -0.057757,-0.08031 -0.098402,-0.152633 -0.090323,-0.16071 0.00808,-0.0081 0.1540154,0.09286 0.3243063,0.224325 0.1702911,0.131452 0.4303816,0.300037 0.5779796,0.374625 0.1475971,0.07455 0.31331,0.167625 0.36825,0.206745 0.4623501,0.32922 2.2005675,0.956985 2.5551612,0.922807 0.1113779,-0.01073 0.1086981,-0.01417 -0.4902582,-0.630345 -0.5737303,-0.59022 -1.0324251,-1.140787 -1.0324251,-1.239225 0,-0.02505 -0.054203,-0.1587 -0.1204496,-0.29694 -0.1286402,-0.268425 -0.1622542,-0.4152 -0.061728,-0.269535 0.2951423,0.427673 1.2070213,1.386975 1.7039472,1.792568 0.7948964,0.648795 2.4014463,1.563593 2.4014463,1.367422 0,-0.05805 -0.1584488,-0.3327 -0.607544,-1.053022 -0.4690306,-0.752303 -0.7270784,-1.25697 -0.8974379,-1.75515 -0.1154444,-0.337598 -0.1266548,-0.403688 -0.1281035,-0.755258 -0.00189,-0.459127 0.054829,-0.58782 0.1162005,-0.263662 0.1311126,0.692535 0.3171393,1.13874 0.7512067,1.801822 0.8637909,1.319535 2.5696428,2.888993 4.0900271,3.763006 0.27512,0.158152 0.530037,0.21612 0.530037,0.120525 0,-0.02182 -0.02498,-0.257633 -0.05551,-0.52401 -0.05844,-0.50985 -0.05458,-1.263728 0.007,-1.372366 0.02594,-0.04575 0.03632,-0.006 0.04254,0.162428 0.02257,0.6114 0.423419,1.530495 0.895151,2.05248 0.134818,0.149183 0.251393,0.2358385 0.437999,0.3255905 0.276615,0.13305 0.265932,0.116708 0.35849,0.5484384 0.123886,0.577852 0.30705,1.149202 0.524047,1.63467 0.390255,0.873082 0.748096,1.385947 1.450699,2.079172 0.488828,0.482303 0.702476,0.656258 1.286596,1.047533 0.175082,0.117285 0.318331,0.220582 0.318331,0.22956 0,0.02535 -0.07094,0.01448 -0.258107,-0.03937 z m 2.109782,-0.663728 c -0.304907,-0.207472 -0.405824,-0.25296 -1.089813,-0.491265 -0.53524,-0.186472 -0.890018,-0.257242 -1.536181,-0.30642 -0.628298,-0.04785 -0.6595,-0.05985 -0.903873,-0.348967 -0.173141,-0.20484 -0.467822,-0.677325 -0.507923,-0.814395 -0.0223,-0.07624 -0.01693,-0.08047 0.07442,-0.05858 0.05416,0.01298 0.301843,0.03255 0.550416,0.0435 0.558499,0.0246 0.848622,-0.0315 1.279504,-0.247613 0.475175,-0.238297 0.694743,-0.518512 0.694743,-0.886635 0,-0.243682 -0.05634,-0.360127 -0.25171,-0.520215 -0.219683,-0.180015 -0.450032,-0.270202 -0.737697,-0.288825 -0.43001,-0.02782 -0.27222,-0.06367 0.258105,-0.05857 0.540972,0.0053 0.495792,-0.0038 1.419585,0.273975 0.244365,0.07343 0.539605,0.1371 0.683514,0.147435 l 0.253336,0.01823 -0.0254,-0.0822 c -0.119653,-0.387232 -0.572886,-0.72603 -1.516852,-1.1338654 -0.510821,-0.220695 -0.512383,-0.221715 -0.358195,-0.2330475 0.240998,-0.0177 0.782835,0.06008 1.059727,0.1521375 0.374735,0.124598 0.618388,0.2586 1.254521,0.6899554 0.598834,0.406058 0.713436,0.452198 0.786074,0.31647 0.063,-0.117712 0.02117,-0.7276054 -0.06672,-0.9727724 -0.159005,-0.4435655 -0.51297,-0.8847835 -0.981976,-1.2240385 -0.168859,-0.122145 -0.242035,-0.193492 -0.206313,-0.201165 0.07481,-0.01605 0.50579,0.20073 0.720677,0.36252 0.228045,0.171698 1.076434,0.9095485 1.49302,1.2984985 0.626054,0.5845124 0.827423,0.6385054 0.934923,0.2507024 0.05224,-0.1884374 -0.0035,-0.6538804 -0.126592,-1.0566909 -0.119134,-0.389932 -0.457312,-1.07775 -0.632659,-1.28676 -0.07766,-0.09257 -0.134984,-0.174517 -0.127388,-0.182115 0.0076,-0.0076 0.106515,0.0405 0.219825,0.106935 0.652643,0.3825 1.231741,1.444005 1.391835,2.5512759 0.04143,0.286568 0.04332,0.290475 0.140056,0.290475 0.366905,0 0.74096,-0.5889454 0.752581,-1.1849329 0.0023,-0.114863 0.01521,-0.2553 0.02883,-0.312083 l 0.02476,-0.103245 0.03121,0.103245 c 0.01717,0.05677 0.03063,0.381998 0.02992,0.7227005 -0.0012,0.5744934 -0.0081,0.6414084 -0.09469,0.9218934 -0.116085,0.375937 -0.298099,0.741862 -0.45588,0.916507 -0.204472,0.22632 -0.439504,0.386063 -1.702168,1.156898 -0.671789,0.410107 -1.322096,0.817305 -1.445126,0.904882 -0.304213,0.216533 -0.743802,0.641933 -0.849202,0.821783 -0.04759,0.0812 -0.104543,0.147637 -0.126568,0.147637 -0.02203,0 -0.174423,-0.09143 -0.33866,-0.203182 z"
     id="path4487"
     inkscape:connector-curvature="0" />
</svg>
