<?xml version="1.0" encoding="UTF-8" standalone="no"?>
<!-- Created with Inkscape (http://www.inkscape.org/) -->

<svg
   xmlns:dc="http://purl.org/dc/elements/1.1/"
   xmlns:cc="http://creativecommons.org/ns#"
   xmlns:rdf="http://www.w3.org/1999/02/22-rdf-syntax-ns#"
   xmlns:svg="http://www.w3.org/2000/svg"
   xmlns="http://www.w3.org/2000/svg"
   xmlns:sodipodi="http://sodipodi.sourceforge.net/DTD/sodipodi-0.dtd"
   xmlns:inkscape="http://www.inkscape.org/namespaces/inkscape"
   version="1.1"
   id="svg2"
   width="24"
   height="24"
   viewBox="0 0 23.999999 24"
   sodipodi:docname="takas-32.svg"
   inkscape:version="0.92.4 (5da689c313, 2019-01-14)">
  <metadata
     id="metadata8">
    <rdf:RDF>
      <cc:Work
         rdf:about="">
        <dc:format>image/svg+xml</dc:format>
        <dc:type
           rdf:resource="http://purl.org/dc/dcmitype/StillImage" />
        <dc:title></dc:title>
      </cc:Work>
    </rdf:RDF>
  </metadata>
  <defs
     id="defs6" />
  <sodipodi:namedview
     pagecolor="#ffffff"
     bordercolor="#666666"
     borderopacity="1"
     objecttolerance="10"
     gridtolerance="10"
     guidetolerance="10"
     inkscape:pageopacity="0"
     inkscape:pageshadow="2"
     inkscape:window-width="1920"
     inkscape:window-height="1025"
     id="namedview4"
     showgrid="false"
     inkscape:zoom="3.9732666"
     inkscape:cx="-11.633213"
     inkscape:cy="-21.485785"
     inkscape:window-x="0"
     inkscape:window-y="0"
     inkscape:window-maximized="1"
     inkscape:current-layer="svg2" />
  <path
     style="fill:#cfd0c2;fill-opacity:1;stroke-width:0.024541"
     d="m 9.832426,23.970562 c -0.01117,-0.02438 -0.0264,-0.822735 -0.03383,-1.774178 l -0.0135,-1.729889 -0.368115,-0.04117 C 8.7628361,20.35212 8.3430611,20.26746 7.8651836,20.112285 6.7545991,19.751677 5.8990817,19.230697 5.082789,18.417907 4.454169,17.791987 4.1001466,17.302582 3.7239541,16.53945 c -0.33159,-0.672668 -0.51267,-1.225328 -0.6427425,-1.961692 -0.1151324,-0.651788 -0.1069949,-1.673205 0.018975,-2.3808 0.121275,-0.68127 0.4063425,-1.5297 0.52989,-1.577108 0.0591,-0.02265 0.14382,0.0857 0.349755,0.4473 1.1029799,1.93674 2.701995,3.13791 4.7868295,3.595845 0.2432849,0.0534 0.8480999,0.145267 0.9611249,0.145927 l 0.0654,3.83e-4 0.0083,-1.736272 c 0.0052,-1.166783 0.0168,-1.75068 0.03427,-1.7802 0.0228,-0.0384 0.10566,0.03232 0.66276,0.566077 0.35019,0.335498 1.801717,1.7709 3.225622,3.189787 l 2.588917,2.579798 -2.368207,2.364157 c -2.654407,2.64987 -3.663765,3.643575 -4.028107,3.965647 -0.05992,0.05295 -0.06525,0.0537 -0.08428,0.0123 z M 21.00705,13.281623 c -0.03322,-0.04387 -0.135187,-0.21228 -0.226515,-0.37425 -0.38043,-0.674715 -0.753172,-1.17042 -1.26438,-1.681478 C 18.922478,10.63239 18.382433,10.243178 17.66277,9.890153 16.911218,9.521483 16.001191,9.26412 15.144676,9.178013 l -0.162158,-0.01628 -0.0141,1.713315 c -0.0077,0.942322 -0.0237,1.745692 -0.03547,1.785262 l -0.02137,0.07193 -0.415875,-0.3903 C 14.266968,12.127275 12.815351,10.689915 11.269886,9.14781 L 8.4599361,6.343973 11.046731,3.760373 c 3.372157,-3.3680018 3.834577,-3.8180843 3.857902,-3.7550243 0.0219,0.05925 0.04155,0.8144175 0.06045,2.3242043 0.0079,0.634028 0.01972,1.161353 0.02618,1.17183 0.0068,0.0105 0.04845,0.01905 0.09336,0.01905 0.125213,0 0.80622,0.09423 1.081215,0.149603 1.319355,0.26568 2.553292,0.928245 3.527235,1.89396 0.946605,0.938617 1.566652,2.045505 1.89783,3.387929 0.136057,0.55152 0.16524,0.887798 0.151597,1.74675 -0.0132,0.83151 -0.03802,1.023443 -0.215482,1.668788 -0.17385,0.6321 -0.32502,0.993915 -0.41526,0.993915 -0.0243,0 -0.0714,-0.03592 -0.10464,-0.07976 z"
     id="path50"
     inkscape:connector-curvature="0" />
</svg>
