<?xml version="1.0" encoding="UTF-8" standalone="no"?>
<!-- Created with Inkscape (http://www.inkscape.org/) -->

<svg
   xmlns:dc="http://purl.org/dc/elements/1.1/"
   xmlns:cc="http://creativecommons.org/ns#"
   xmlns:rdf="http://www.w3.org/1999/02/22-rdf-syntax-ns#"
   xmlns:svg="http://www.w3.org/2000/svg"
   xmlns="http://www.w3.org/2000/svg"
   xmlns:sodipodi="http://sodipodi.sourceforge.net/DTD/sodipodi-0.dtd"
   xmlns:inkscape="http://www.inkscape.org/namespaces/inkscape"
   width="50"
   height="50"
   id="svg2"
   version="1.1"
   inkscape:version="0.92.2 (5c3e80d, 2017-08-06)"
   sodipodi:docname="tehlike.svg">
  <defs
     id="defs4" />
  <sodipodi:namedview
     id="base"
     pagecolor="#ffffff"
     bordercolor="#666666"
     borderopacity="1.0"
     inkscape:pageopacity="0.0"
     inkscape:pageshadow="2"
     inkscape:zoom="2.8"
     inkscape:cx="29.931462"
     inkscape:cy="-12.006306"
     inkscape:document-units="px"
     inkscape:current-layer="layer1"
     showgrid="false"
     inkscape:window-width="1366"
     inkscape:window-height="715"
     inkscape:window-x="0"
     inkscape:window-y="24"
     inkscape:window-maximized="1" />
  <metadata
     id="metadata7">
    <rdf:RDF>
      <cc:Work
         rdf:about="">
        <dc:format>image/svg+xml</dc:format>
        <dc:type
           rdf:resource="http://purl.org/dc/dcmitype/StillImage" />
        <dc:title></dc:title>
      </cc:Work>
    </rdf:RDF>
  </metadata>
  <g
     inkscape:label="Layer 1"
     inkscape:groupmode="layer"
     id="layer1"
     transform="translate(0,-1002.3622)">
    <g
       id="g818"
       transform="matrix(0.11102905,0,0,0.11102905,-2.7533443,936.28775)">
      <path
         sodipodi:nodetypes="cczcczcczc"
         inkscape:connector-curvature="0"
         id="path3778-5"
         d="m 55.585427,979.69466 386.856913,-1.87621 c 0,0 14.80466,1.96309 18.85717,-7.50522 4.05253,-9.46817 -5.12653,-22.5154 -5.12653,-22.5154 L 268.54405,643.83914 c 0,0 -6.81699,-17.26356 -17.82468,-17.87185 -11.00767,-0.60835 -19.5305,17.32232 -19.5305,17.32232 L 49.018467,943.10712 c 0,0 -14.26375,19.97083 -10.81228,27.14921 3.45146,7.17853 17.37924,9.43833 17.37924,9.43833 z"
         style="fill:#faec6d;fill-opacity:1;stroke:#394050;stroke-width:25.33503342;stroke-miterlimit:4;stroke-dasharray:none;stroke-opacity:1" />
      <path
         sodipodi:open="true"
         sodipodi:end="6.2784904"
         sodipodi:start="0"
         transform="matrix(1.6873372,0,0,1.6873372,-780.67804,471.48988)"
         d="m 624.27428,263.50247 a 12.879445,13.131983 0 0 1 -12.86433,13.13198 12.879445,13.131983 0 0 1 -12.89452,-13.10115 12.879445,13.131983 0 0 1 12.83406,-13.16273 12.879445,13.131983 0 0 1 12.92465,13.07025"
         sodipodi:ry="13.131983"
         sodipodi:rx="12.879445"
         sodipodi:cy="263.50247"
         sodipodi:cx="611.39484"
         id="path2997-3"
         style="fill:#394050;fill-opacity:1;stroke:none"
         sodipodi:type="arc" />
      <path
         sodipodi:nodetypes="ccczcc"
         inkscape:connector-curvature="0"
         id="path2999-5"
         d="m 244.13337,879.46135 h 12.35733 c 0,0 16.94909,-116.31275 17.47077,-116.75606 0,0 -2.33613,-22.12649 -22.58418,-21.73195 -20.248,0.39455 -22.58414,21.73195 -22.58414,21.73195 z"
         style="fill:#394050;fill-opacity:1;stroke:none" />
    </g>
  </g>
</svg>
