<?xml version="1.0" encoding="UTF-8" standalone="no"?>
<!-- Created with Inkscape (http://www.inkscape.org/) -->

<svg
   xmlns:dc="http://purl.org/dc/elements/1.1/"
   xmlns:cc="http://creativecommons.org/ns#"
   xmlns:rdf="http://www.w3.org/1999/02/22-rdf-syntax-ns#"
   xmlns:svg="http://www.w3.org/2000/svg"
   xmlns="http://www.w3.org/2000/svg"
   xmlns:sodipodi="http://sodipodi.sourceforge.net/DTD/sodipodi-0.dtd"
   xmlns:inkscape="http://www.inkscape.org/namespaces/inkscape"
   version="1.1"
   id="svg2"
   width="24"
   height="24"
   viewBox="0 0 23.999999 24"
   sodipodi:docname="uefi-32.svg"
   inkscape:version="0.92.4 (5da689c313, 2019-01-14)">
  <metadata
     id="metadata8">
    <rdf:RDF>
      <cc:Work
         rdf:about="">
        <dc:format>image/svg+xml</dc:format>
        <dc:type
           rdf:resource="http://purl.org/dc/dcmitype/StillImage" />
        <dc:title></dc:title>
      </cc:Work>
    </rdf:RDF>
  </metadata>
  <defs
     id="defs6" />
  <sodipodi:namedview
     pagecolor="#ffffff"
     bordercolor="#666666"
     borderopacity="1"
     objecttolerance="10"
     gridtolerance="10"
     guidetolerance="10"
     inkscape:pageopacity="0"
     inkscape:pageshadow="2"
     inkscape:window-width="1920"
     inkscape:window-height="1025"
     id="namedview4"
     showgrid="false"
     inkscape:zoom="5.6190475"
     inkscape:cx="129.71314"
     inkscape:cy="15.157955"
     inkscape:window-x="0"
     inkscape:window-y="0"
     inkscape:window-maximized="1"
     inkscape:current-layer="svg2" />
  <path
     style="fill:#cfd0c2;fill-opacity:1;stroke-width:0.05653704"
     d="M 6.6872738,21.002205 1.5,18.004409 V 11.997592 5.9907743 L 6.6590056,2.9953875 11.81801,0 12.140194,0.175536 C 12.317393,0.2720798 12.466401,0.374808 12.47132,0.40382101 12.47972,0.45315601 8.8994041,2.5718333 7.5211951,3.3331208 6.6802958,3.7976108 5.9801213,4.2737573 5.7286118,4.5521491 5.3726535,4.9461526 5.316636,5.0977013 5.3170635,5.6655526 c 3.39e-4,0.466956 0.016058,0.5390782 0.1908503,0.8763237 0.3335048,0.6434685 1.2943253,1.4657715 2.299692,1.9681553 0.4929885,0.2463472 1.4153655,0.5566942 2.0797912,0.6997762 0.453224,0.097601 0.769655,0.1242608 1.506586,0.126936 1.416102,0.00517 2.081255,-0.1653112 3.436354,-0.8805975 0.983418,-0.5190945 3.606492,-2.028455 5.667071,-3.2609262 l 0.198841,-0.1189305 0.804691,0.4562017 0.804692,0.4562018 v 6.0105399 6.01054 l -0.494699,0.284038 -0.494699,0.284038 -0.01457,-3.417282 c -0.008,-1.879506 -0.03346,-3.416812 -0.05654,-3.416238 -0.02308,5.77e-4 -0.74161,0.404699 -1.596733,0.898053 l -1.554769,0.897008 -0.01456,3.450004 -0.01457,3.450004 -0.837754,0.483848 c -0.460765,0.266117 -0.880695,0.500326 -0.933179,0.520465 -0.08857,0.03399 -0.09436,-0.102683 -0.08054,-1.903832 l 0.01489,-1.94045 0.579504,-0.36199 0.579505,-0.361989 v -1.465063 -1.465062 l -0.155476,0.08101 c -0.08551,0.04456 -0.333165,0.185139 -0.550339,0.312405 -0.217175,0.127266 -0.417091,0.231393 -0.444259,0.231393 -0.02719,0 -0.03963,-0.476642 -0.02768,-1.06007 0.02038,-0.995218 0.03058,-1.079092 0.166671,-1.371023 0.255595,-0.548294 0.660378,-0.904166 1.124889,-0.988964 0.164076,-0.02996 0.220866,-0.01257 0.326608,0.09999 0.134475,0.143142 0.237101,0.596683 0.237705,1.0505 2.26e-4,0.174799 0.02085,0.237882 0.07099,0.217237 0.03887,-0.016 0.757597,-0.42399 1.597172,-0.90664 l 1.5265,-0.877544 0.01602,-0.594842 C 21.317564,8.5849776 20.702625,7.697915 19.488376,7.560497 18.2415,7.4193868 16.94107,8.0478171 15.521192,9.4776298 c -1.220756,1.2292982 -2.0316,2.5372342 -2.375787,3.8322762 -0.212971,0.801324 -0.238371,1.559396 -0.198736,5.931264 l 0.03748,4.133933 -0.328648,0.18421 c -0.180757,0.101315 -0.430415,0.241916 -0.554797,0.312448 L 11.874553,24 Z m 3.2568932,0.261592 c 0.31765,-0.108234 0.764759,-0.498238 0.967189,-0.843658 0.162915,-0.277994 0.42609,-0.941091 0.42609,-1.073579 0,-0.09354 -0.499281,-0.42594 -1.8657229,-1.242111 -0.5130735,-0.306456 -1.1316113,-0.683511 -1.3745288,-0.8379 L 7.6555268,16.985845 7.4725951,17.163148 c -0.555549,0.538459 -1.3495515,-0.186159 -1.5660128,-1.429166 -0.1184512,-0.6802 -0.1886227,-0.687932 1.303659,0.143654 3.4876297,1.943508 4.2545477,2.367408 4.2831017,2.367408 0.05874,0 -0.0399,-1.953151 -0.127055,-2.515898 C 11.043261,13.643459 10.172115,11.712733 8.9244668,10.317323 7.8965618,9.1676803 6.5942866,8.3242468 5.3595278,8.0084488 4.869438,7.883105 4.5724808,7.8718213 4.1458898,7.9623313 3.066654,8.1913213 2.394222,9.0344781 2.0548478,10.584271 c -0.1269383,0.579678 -0.093283,2.344165 0.06147,3.222612 0.356562,2.02405 1.1116927,3.579134 2.3861955,4.914032 1.93185,2.023394 4.0547775,3.015436 5.4416567,2.542879 z M 7.2385103,13.36622 C 7.0519381,13.265195 6.6681278,13.044748 6.3855998,12.876339 l -0.5136877,-0.3062 0.047572,-0.254641 c 0.026168,-0.140054 0.1046745,-0.315792 0.1744657,-0.390531 0.1068885,-0.114466 0.1657928,-0.131566 0.373635,-0.108465 0.2869043,0.03189 0.4744823,0.156661 0.723777,0.481445 0.2570835,0.334931 0.5771775,1.256987 0.4350653,1.253239 -0.026782,-7.07e-4 -0.2013443,-0.08394 -0.3879168,-0.184966 z M 10.240022,6.8141443 C 9.951597,6.7513618 9.656783,6.5665453 9.610019,6.4192021 9.509352,6.1020301 9.939238,5.8060861 13.244961,3.916821 l 2.727302,-1.5586905 0.650786,0.3755783 c 0.357932,0.2065687 0.650786,0.3933937 0.650786,0.4151685 0,0.05016 -4.934607,3.0712673 -5.36324,3.2835293 -0.666065,0.3298392 -1.272443,0.4684009 -1.670573,0.3817377 z"
     id="path18"
     inkscape:connector-curvature="0" />
</svg>
