<?xml version="1.0" encoding="UTF-8" standalone="no"?>
<!-- Created with Inkscape (http://www.inkscape.org/) -->

<svg
   xmlns:dc="http://purl.org/dc/elements/1.1/"
   xmlns:cc="http://creativecommons.org/ns#"
   xmlns:rdf="http://www.w3.org/1999/02/22-rdf-syntax-ns#"
   xmlns:svg="http://www.w3.org/2000/svg"
   xmlns="http://www.w3.org/2000/svg"
   xmlns:sodipodi="http://sodipodi.sourceforge.net/DTD/sodipodi-0.dtd"
   xmlns:inkscape="http://www.inkscape.org/namespaces/inkscape"
   width="32"
   height="32"
   viewBox="0 0 8.4666665 8.4666669"
   version="1.1"
   id="svg8"
   inkscape:version="0.92.2 (5c3e80d, 2017-08-06)"
   sodipodi:docname="yenile.svg">
  <defs
     id="defs2" />
  <sodipodi:namedview
     id="base"
     pagecolor="#ffffff"
     bordercolor="#666666"
     borderopacity="1.0"
     inkscape:pageopacity="0.0"
     inkscape:pageshadow="2"
     inkscape:zoom="2.8"
     inkscape:cx="-20.253066"
     inkscape:cy="14.057901"
     inkscape:document-units="mm"
     inkscape:current-layer="layer1"
     showgrid="false"
     units="px"
     inkscape:window-width="1366"
     inkscape:window-height="715"
     inkscape:window-x="0"
     inkscape:window-y="24"
     inkscape:window-maximized="1" />
  <metadata
     id="metadata5">
    <rdf:RDF>
      <cc:Work
         rdf:about="">
        <dc:format>image/svg+xml</dc:format>
        <dc:type
           rdf:resource="http://purl.org/dc/dcmitype/StillImage" />
        <dc:title></dc:title>
      </cc:Work>
    </rdf:RDF>
  </metadata>
  <g
     inkscape:label="Layer 1"
     inkscape:groupmode="layer"
     id="layer1"
     transform="translate(0,-288.53332)">
    <path
       inkscape:connector-curvature="0"
       style="fill:#394050;fill-opacity:1;fill-rule:evenodd;stroke:none;stroke-width:0.70555556"
       d="m 4.2333336,288.53332 a 4.2333336,4.2333397 0 0 0 -4.1726997,3.52779 h 0.7165797 a 3.5277781,3.5277781 0 0 1 3.45612,-2.82224 3.5277781,3.5277781 0 0 1 3.2259879,2.11667 H 4.9388891 v 0.70557 h 3.4643882 0.063389 v -0.70557 -2.82222 h -0.705555 v 1.90446 A 4.2333336,4.2333397 0 0 0 4.2333336,288.53332 Z M 0,293.4722 v 0.70558 2.82221 h 0.7055558 v -1.90445 a 4.2333336,4.2333397 0 0 0 3.5277778,1.90445 4.2333336,4.2333397 0 0 0 4.1726995,-3.52779 h -0.716579 a 3.5277781,3.5277781 0 0 1 -3.4561205,2.82224 3.5277781,3.5277781 0 0 1 -3.2259874,-2.11666 H 3.5277781 V 293.4722 H 0.7799696 0.0633899 Z"
       id="path4201-0" />
  </g>
</svg>
